SplineFontDB: 3.0
FontName: Rokkitt
FullName: Rokkitt
FamilyName: Rokkitt
Weight: Book
Copyright: Copyright (c) 2011 by vernon adams. All rights reserved.
Version: 1.000
ItalicAngle: 0
UnderlinePosition: -103
UnderlineWidth: 102
Ascent: 1638
Descent: 410
sfntRevision: 0x00010000
LayerCount: 2
Layer: 0 1 "Back"  1
Layer: 1 1 "Fore"  0
XUID: [1021 759 1887733602 8996664]
FSType: 256
OS2Version: 2
OS2_WeightWidthSlopeOnly: 0
OS2_UseTypoMetrics: 1
CreationTime: 1303726980
ModificationTime: 1303937259
PfmFamily: 17
TTFWeight: 400
TTFWidth: 5
LineGap: 0
VLineGap: 0
Panose: 2 0 5 3 5 0 0 2 0 3
OS2TypoAscent: -138
OS2TypoAOffset: 1
OS2TypoDescent: -114
OS2TypoDOffset: 1
OS2TypoLinegap: 0
OS2WinAscent: -31
OS2WinAOffset: 1
OS2WinDescent: 1
OS2WinDOffset: 1
HheadAscent: -31
HheadAOffset: 1
HheadDescent: -1
HheadDOffset: 1
OS2SubXSize: 1346
OS2SubYSize: 1243
OS2SubXOff: 0
OS2SubYOff: 174
OS2SupXSize: 1346
OS2SupYSize: 1243
OS2SupXOff: 0
OS2SupYOff: 756
OS2StrikeYSize: 102
OS2StrikeYPos: 512
OS2Vendor: 'newt'
OS2CodePages: 20000001.00000000
OS2UnicodeRanges: 800000ef.5000204b.00000000.00000000
Lookup: 258 0 0 "'kern' Horizontal Kerning in Latin lookup 0"  {"'kern' Horizontal Kerning in Latin lookup 0 per glyph data 0"  "'kern' Horizontal Kerning in Latin lookup 0 kerning class 1"  } ['kern' ('latn' <'dflt' > ) ]
MarkAttachClasses: 1
DEI: 91125
KernClass2: 68+ 55 "'kern' Horizontal Kerning in Latin lookup 0 kerning class 1" 
 5 seven
 5 slash
 9 backslash
 40 period comma quotesinglbase quotedblbase
 12 questiondown
 20 endash emdash hyphen
 8 asterisk
 20 quotesingle quotedbl
 4 four
 22 quoteleft quotedblleft
 24 quoteright quotedblright
 27 guilsinglleft guillemotleft
 9 trademark
 29 guilsinglright guillemotright
 10 registered
 50 A Adieresis Aring Agrave Atilde Acircumflex Aacute
 1 B
 10 C Ccedilla
 5 D Eth
 43 E Eacute AE OE Ecircumflex Edieresis Egrave
 1 F
 1 G
 39 H I Iacute Icircumflex Idieresis Igrave
 1 J
 8 L Lslash
 1 M
 8 N Ntilde

StartChar: A
Encoding: 65 65 0
Width: 1196
Flags: MW
LayerCount: 2
Fore
SplineSet
878 1153 m 1,0,-1
 878 1043 l 1,1,-1
 777 1041 l 1,2,3
 797 985 797 985 820.5 916 c 128,-1,4
 844 847 844 847 868.5 772.5 c 128,-1,5
 893 698 893 698 917.5 621.5 c 128,-1,6
 942 545 942 545 965 473 c 0,7,8
 1018 305 1018 305 1071 127 c 1,9,-1
 1208 125 l 1,10,-1
 1208 0 l 1,11,-1
 755 0 l 1,12,-1
 755 127 l 1,13,-1
 905 127 l 1,14,-1
 830 424 l 1,15,-1
 365 424 l 1,16,-1
 291 126 l 1,17,-1
 440 126 l 1,18,-1
 440 0 l 1,19,-1
 -13 0 l 1,20,-1
 -13 125 l 1,21,-1
 125 127 l 1,22,23
 178 305 178 305 231 473 c 0,24,25
 253 545 253 545 277.5 621.5 c 128,-1,26
 302 698 302 698 326.5 772.5 c 128,-1,27
 351 847 351 847 374.5 916 c 128,-1,28
 398 985 398 985 418 1041 c 1,29,-1
 318 1043 l 1,30,-1
 318 1153 l 1,31,-1
 598 1153 l 1,32,-1
 878 1153 l 1,0,-1
790 545 m 1,33,34
 752 679 752 679 720 785 c 0,35,36
 706 830 706 830 692.5 874.5 c 128,-1,37
 679 919 679 919 667.5 954.5 c 128,-1,38
 656 990 656 990 647 1013.5 c 128,-1,39
 638 1037 638 1037 635 1041 c 1,40,-1
 561 1041 l 1,41,42
 557 1037 557 1037 548.5 1013.5 c 128,-1,43
 540 990 540 990 528.5 954.5 c 128,-1,44
 517 919 517 919 503.5 874.5 c 128,-1,45
 490 830 490 830 476 785 c 0,46,47
 443 679 443 679 405 545 c 1,48,-1
 790 545 l 1,33,34
EndSplineSet
EndChar

StartChar: B
Encoding: 66 66 1
Width: 1047
Flags: MW
LayerCount: 2
Fore
SplineSet
214 127 m 1,0,-1
 211 577 l 1,1,-1
 214 1026 l 1,2,-1
 66 1029 l 1,3,-1
 66 1153 l 1,4,-1
 552 1153 l 2,5,6
 656 1153 656 1153 727.5 1128.5 c 128,-1,7
 799 1104 799 1104 843.5 1062.5 c 128,-1,8
 888 1021 888 1021 907.5 967.5 c 128,-1,9
 927 914 927 914 927 857 c 0,10,11
 927 811 927 811 914.5 771.5 c 128,-1,12
 902 732 902 732 880.5 700.5 c 128,-1,13
 859 669 859 669 830 645.5 c 128,-1,14
 801 622 801 622 767 607 c 1,15,16
 813 592 813 592 852.5 566 c 128,-1,17
 892 540 892 540 920.5 503.5 c 128,-1,18
 949 467 949 467 965.5 421 c 128,-1,19
 982 375 982 375 982 322 c 0,20,21
 982 270 982 270 963.5 213.5 c 128,-1,22
 945 157 945 157 896.5 109.5 c 128,-1,23
 848 62 848 62 762 31 c 128,-1,24
 676 0 676 0 541 0 c 2,25,-1
 66 0 l 1,26,-1
 66 125 l 1,27,-1
 214 127 l 1,0,-1
375 127 m 1,28,29
 413 126 413 126 446 126 c 2,30,-1
 540 126 l 2,31,32
 616 126 616 126 668.5 140 c 128,-1,33
 721 154 721 154 753.5 180.5 c 128,-1,34
 786 207 786 207 800.5 245 c 128,-1,35
 815 283 815 283 815 332 c 0,36,37
 815 371 815 371 801.5 407 c 128,-1,38
 788 443 788 443 757 470.5 c 128,-1,39
 726 498 726 498 674 515 c 128,-1,40
 622 532 622 532 546 532 c 2,41,-1
 374 532 l 1,42,-1
 374 320 l 2,43,44
 374 234 374 234 375 127 c 1,28,29
537 661 m 2,45,46
 600 661 600 661 643 676 c 128,-1,47
 686 691 686 691 712.5 716.5 c 128,-1,48
 739 742 739 742 750.5 776 c 128,-1,49
 762 810 762 810 762 847 c 0,50,51
 762 892 762 892 748.5 925.5 c 128,-1,52
 735 959 735 959 705.5 981.5 c 128,-1,53
 676 1004 676 1004 628.5 1015.5 c 128,-1,54
 581 1027 581 1027 513 1027 c 0,55,56
 502 1027 502 1027 478.5 1026.5 c 128,-1,57
 455 1026 455 1026 432 1026 c 2,58,-1
 374 1026 l 1,59,-1
 374 661 l 1,60,-1
 537 661 l 2,45,46
EndSplineSet
EndChar

StartChar: C
Encoding: 67 67 2
Width: 1249
Flags: MW
LayerCount: 2
Fore
SplineSet
643 -19 m 0,0,1
 511 -19 511 -19 404.5 24.5 c 128,-1,2
 298 68 298 68 223.5 146 c 128,-1,3
 149 224 149 224 109 333.5 c 128,-1,4
 69 443 69 443 69 575 c 256,5,6
 69 707 69 707 107 817 c 128,-1,7
 145 927 145 927 218 1005.5 c 128,-1,8
 291 1084 291 1084 397.5 1127.5 c 128,-1,9
 504 1171 504 1171 640 1171 c 0,10,11
 762 1171 762 1171 861 1129.5 c 128,-1,12
 960 1088 960 1088 1027 1022 c 1,13,-1
 1027 1153 l 1,14,-1
 1157 1153 l 1,15,-1
 1157 804 l 1,16,-1
 1032 804 l 1,17,18
 974 920 974 920 873.5 978 c 128,-1,19
 773 1036 773 1036 648 1036 c 0,20,21
 553 1036 553 1036 478.5 1001.5 c 128,-1,22
 404 967 404 967 352.5 905.5 c 128,-1,23
 301 844 301 844 273.5 760.5 c 128,-1,24
 246 677 246 677 246 580 c 0,25,26
 246 484 246 484 274.5 400 c 128,-1,27
 303 316 303 316 356 253.5 c 128,-1,28
 409 191 409 191 484.5 155.5 c 128,-1,29
 560 120 560 120 654 120 c 0,30,31
 717 120 717 120 782 134.5 c 128,-1,32
 847 149 847 149 902.5 183.5 c 128,-1,33
 958 218 958 218 998.5 275 c 128,-1,34
 1039 332 1039 332 1053 418 c 1,35,-1
 1188 347 l 1,36,37
 1170 264 1170 264 1124 196.5 c 128,-1,38
 1078 129 1078 129 1008 81 c 128,-1,39
 938 33 938 33 846 7 c 128,-1,40
 754 -19 754 -19 643 -19 c 0,0,1
EndSplineSet
EndChar

StartChar: D
Encoding: 68 68 3
Width: 1271
Flags: MW
LayerCount: 2
Fore
SplineSet
59 125 m 1,0,-1
 220 127 l 1,1,2
 219 244 219 244 219 340 c 0,3,4
 219 381 219 381 218.5 421 c 128,-1,5
 218 461 218 461 218 493.5 c 128,-1,6
 218 526 218 526 218 548.5 c 128,-1,7
 218 571 218 571 218 577 c 256,8,9
 218 583 218 583 218 605 c 128,-1,10
 218 627 218 627 218 660 c 128,-1,11
 218 693 218 693 218.5 732.5 c 128,-1,12
 219 772 219 772 219 813 c 0,13,14
 219 908 219 908 220 1026 c 1,15,-1
 59 1029 l 1,16,-1
 59 1153 l 1,17,-1
 322 1153 l 2,18,19
 372 1153 372 1153 421.5 1153 c 128,-1,20
 471 1153 471 1153 511 1153.5 c 128,-1,21
 551 1154 551 1154 578.5 1154 c 128,-1,22
 606 1154 606 1154 613 1154 c 0,23,24
 727 1154 727 1154 815 1131 c 128,-1,25
 903 1108 903 1108 968 1067 c 128,-1,26
 1033 1026 1033 1026 1077.5 971.5 c 128,-1,27
 1122 917 1122 917 1149 854 c 128,-1,28
 1176 791 1176 791 1187.5 722.5 c 128,-1,29
 1199 654 1199 654 1199 587 c 0,30,31
 1199 454 1199 454 1165.5 346 c 128,-1,32
 1132 238 1132 238 1060 161 c 128,-1,33
 988 84 988 84 874 42 c 128,-1,34
 760 0 760 0 599 0 c 2,35,-1
 59 0 l 1,36,-1
 59 125 l 1,0,-1
380 577 m 2,37,38
 380 572 380 572 380 550 c 128,-1,39
 380 528 380 528 380 495.5 c 128,-1,40
 380 463 380 463 380.5 423 c 128,-1,41
 381 383 381 383 381 342 c 0,42,43
 381 246 381 246 382 127 c 1,44,45
 435 126 435 126 481 126 c 2,46,-1
 605 126 l 2,47,48
 731 126 731 126 814 162.5 c 128,-1,49
 897 199 897 199 945.5 261 c 128,-1,50
 994 323 994 323 1014 405.5 c 128,-1,51
 1034 488 1034 488 1034 581 c 0,52,53
 1034 676 1034 676 1011.5 757.5 c 128,-1,54
 989 839 989 839 938.5 899 c 128,-1,55
 888 959 888 959 807 993 c 128,-1,56
 726 1027 726 1027 609 1027 c 0,57,58
 603 1027 603 1027 590 1027 c 128,-1,59
 577 1027 577 1027 559.5 1026.5 c 128,-1,60
 542 1026 542 1026 522 1026 c 128,-1,61
 502 1026 502 1026 482 1026 c 2,62,-1
 380 1026 l 1,63,-1
 380 577 l 2,37,38
EndSplineSet
EndChar

StartChar: E
Encoding: 69 69 4
Width: 1119
Flags: MW
LayerCount: 2
Fore
SplineSet
60 127 m 1,0,-1
 216 127 l 1,1,-1
 216 577 l 1,2,-1
 216 1029 l 1,3,-1
 60 1029 l 1,4,-1
 60 1153 l 1,5,-1
 558 1153 l 1,6,-1
 1031 1153 l 1,7,-1
 1031 832 l 1,8,-1
 900 832 l 1,9,-1
 900 1026 l 1,10,-1
 375 1026 l 1,11,-1
 375 655 l 1,12,-1
 737 655 l 1,13,-1
 750 769 l 1,14,-1
 837 769 l 1,15,-1
 837 410 l 1,16,-1
 749 410 l 1,17,-1
 736 526 l 1,18,-1
 377 526 l 1,19,-1
 377 127 l 1,20,-1
 902 127 l 1,21,-1
 902 328 l 1,22,-1
 1031 328 l 1,23,-1
 1031 0 l 1,24,-1
 558 0 l 1,25,-1
 60 0 l 1,26,-1
 60 127 l 1,0,-1
EndSplineSet
EndChar

StartChar: F
Encoding: 70 70 5
Width: 1006
Flags: MW
LayerCount: 2
Fore
SplineSet
62 127 m 1,0,-1
 214 127 l 1,1,-1
 214 577 l 1,2,-1
 214 1029 l 1,3,-1
 62 1029 l 1,4,-1
 62 1153 l 1,5,-1
 979 1153 l 1,6,-1
 979 832 l 1,7,-1
 847 832 l 1,8,-1
 847 1026 l 1,9,-1
 374 1026 l 1,10,-1
 374 657 l 1,11,-1
 781 657 l 1,12,-1
 781 528 l 1,13,-1
 375 528 l 1,14,-1
 375 126 l 1,15,-1
 531 126 l 1,16,-1
 531 0 l 1,17,-1
 62 0 l 1,18,-1
 62 127 l 1,0,-1
EndSplineSet
EndChar

StartChar: G
Encoding: 71 71 6
Width: 1294
Flags: MW
LayerCount: 2
Fore
SplineSet
653 1171 m 0,0,1
 775 1171 775 1171 874.5 1129.5 c 128,-1,2
 974 1088 974 1088 1040 1022 c 1,3,-1
 1040 1153 l 1,4,-1
 1170 1153 l 1,5,-1
 1170 804 l 1,6,-1
 1046 804 l 1,7,8
 987 920 987 920 887 978 c 128,-1,9
 787 1036 787 1036 662 1036 c 0,10,11
 562 1036 562 1036 484.5 1001.5 c 128,-1,12
 407 967 407 967 353.5 906.5 c 128,-1,13
 300 846 300 846 272.5 762 c 128,-1,14
 245 678 245 678 245 579 c 256,15,16
 245 480 245 480 272.5 396 c 128,-1,17
 300 312 300 312 354.5 250.5 c 128,-1,18
 409 189 409 189 490 154 c 128,-1,19
 571 119 571 119 677 119 c 0,20,21
 776 119 776 119 846 139.5 c 128,-1,22
 916 160 916 160 961 200 c 128,-1,23
 1006 240 1006 240 1029.5 299.5 c 128,-1,24
 1053 359 1053 359 1059 436 c 1,25,-1
 832 436 l 1,26,-1
 832 563 l 1,27,-1
 1239 563 l 1,28,29
 1236 405 1236 405 1191.5 294.5 c 128,-1,30
 1147 184 1147 184 1072 114.5 c 128,-1,31
 997 45 997 45 895.5 13 c 128,-1,32
 794 -19 794 -19 676 -19 c 0,33,34
 551 -19 551 -19 457.5 9.5 c 128,-1,35
 364 38 364 38 296.5 85.5 c 128,-1,36
 229 133 229 133 184.5 194.5 c 128,-1,37
 140 256 140 256 114 322.5 c 128,-1,38
 88 389 88 389 77.5 456 c 128,-1,39
 67 523 67 523 67 580 c 0,40,41
 67 646 67 646 80 715.5 c 128,-1,42
 93 785 93 785 122 851 c 128,-1,43
 151 917 151 917 196.5 975 c 128,-1,44
 242 1033 242 1033 307 1076.5 c 128,-1,45
 372 1120 372 1120 458 1145.5 c 128,-1,46
 544 1171 544 1171 653 1171 c 0,0,1
EndSplineSet
EndChar

StartChar: H
Encoding: 72 72 7
Width: 1294
Flags: MW
LayerCount: 2
Fore
SplineSet
72 127 m 1,0,-1
 211 127 l 1,1,-1
 211 577 l 1,2,-1
 211 1029 l 1,3,-1
 72 1029 l 1,4,-1
 72 1153 l 1,5,-1
 515 1153 l 1,6,-1
 515 1026 l 1,7,-1
 371 1026 l 1,8,-1
 371 667 l 1,9,-1
 922 667 l 1,10,-1
 922 1027 l 1,11,-1
 780 1027 l 1,12,-1
 780 1153 l 1,13,-1
 1222 1153 l 1,14,-1
 1222 1026 l 1,15,-1
 1083 1026 l 1,16,-1
 1083 577 l 1,17,-1
 1083 125 l 1,18,-1
 1222 125 l 1,19,-1
 1222 0 l 1,20,-1
 780 0 l 1,21,-1
 780 127 l 1,22,-1
 923 127 l 1,23,-1
 923 538 l 1,24,-1
 372 538 l 1,25,-1
 372 126 l 1,26,-1
 515 126 l 1,27,-1
 515 0 l 1,28,-1
 72 0 l 1,29,-1
 72 127 l 1,0,-1
EndSplineSet
EndChar

StartChar: I
Encoding: 73 73 8
Width: 581
Flags: MW
LayerCount: 2
Fore
SplineSet
75 127 m 1,0,-1
 209 127 l 1,1,-1
 209 577 l 1,2,-1
 209 1029 l 1,3,-1
 75 1029 l 1,4,-1
 75 1153 l 1,5,-1
 503 1153 l 1,6,-1
 503 1026 l 1,7,-1
 371 1026 l 1,8,-1
 371 577 l 1,9,-1
 371 126 l 1,10,-1
 503 126 l 1,11,-1
 503 0 l 1,12,-1
 75 0 l 1,13,-1
 75 127 l 1,0,-1
EndSplineSet
EndChar

StartChar: J
Encoding: 74 74 9
Width: 557
Flags: MW
LayerCount: 2
Fore
SplineSet
-64 -141 m 1,0,1
 -41 -152 -41 -152 -12.5 -158.5 c 128,-1,2
 16 -165 16 -165 56 -165 c 0,3,4
 133 -165 133 -165 166 -125.5 c 128,-1,5
 199 -86 199 -86 199 -4 c 0,6,7
 199 -1 199 -1 199 22 c 128,-1,8
 199 45 199 45 198.5 80.5 c 128,-1,9
 198 116 198 116 198 160.5 c 128,-1,10
 198 205 198 205 198 251 c 0,11,12
 197 358 197 358 197 494 c 2,13,-1
 200 1029 l 1,14,-1
 42 1029 l 1,15,-1
 42 1153 l 1,16,-1
 513 1153 l 1,17,-1
 513 1026 l 1,18,-1
 360 1026 l 1,19,-1
 360 -22 l 2,20,21
 360 -106 360 -106 335 -161.5 c 128,-1,22
 310 -217 310 -217 270 -250 c 128,-1,23
 230 -283 230 -283 180.5 -296.5 c 128,-1,24
 131 -310 131 -310 83 -310 c 0,25,26
 46 -310 46 -310 6 -302.5 c 128,-1,27
 -34 -295 -34 -295 -64 -284 c 1,28,-1
 -64 -141 l 1,0,1
EndSplineSet
EndChar

StartChar: L
Encoding: 76 76 10
Width: 984
Flags: MW
LayerCount: 2
Fore
SplineSet
59 127 m 1,0,-1
 217 127 l 1,1,-1
 217 577 l 1,2,-1
 217 1029 l 1,3,-1
 59 1029 l 1,4,-1
 59 1153 l 1,5,-1
 533 1153 l 1,6,-1
 533 1026 l 1,7,-1
 378 1026 l 1,8,-1
 378 127 l 1,9,-1
 788 127 l 1,10,-1
 788 482 l 1,11,-1
 933 482 l 1,12,-1
 933 0 l 1,13,-1
 508 0 l 1,14,-1
 59 0 l 1,15,-1
 59 127 l 1,0,-1
EndSplineSet
EndChar

StartChar: M
Encoding: 77 77 11
Width: 1577
Flags: MW
LayerCount: 2
Fore
SplineSet
213 577 m 1,0,-1
 213 1029 l 1,1,-1
 65 1029 l 1,2,-1
 65 1153 l 1,3,-1
 450 1153 l 1,4,-1
 618 736 l 1,5,-1
 783 317 l 1,6,-1
 1121 1153 l 1,7,-1
 1511 1153 l 1,8,-1
 1511 1026 l 1,9,-1
 1364 1026 l 1,10,-1
 1364 577 l 1,11,-1
 1364 125 l 1,12,-1
 1511 125 l 1,13,-1
 1511 0 l 1,14,-1
 1083 0 l 1,15,-1
 1083 127 l 1,16,-1
 1216 127 l 1,17,-1
 1216 1023 l 1,18,-1
 1007 507 l 1,19,-1
 801 -10 l 1,20,-1
 759 -10 l 1,21,-1
 553 507 l 1,22,-1
 347 1022 l 1,23,-1
 347 126 l 1,24,-1
 480 126 l 1,25,-1
 480 0 l 1,26,-1
 65 0 l 1,27,-1
 65 127 l 1,28,-1
 213 127 l 1,29,-1
 213 577 l 1,0,-1
EndSplineSet
EndChar

StartChar: N
Encoding: 78 78 12
Width: 1322
Flags: MW
LayerCount: 2
Fore
SplineSet
56 127 m 1,0,-1
 225 127 l 1,1,-1
 225 577 l 1,2,-1
 225 1029 l 1,3,-1
 56 1029 l 1,4,-1
 56 1153 l 1,5,-1
 438 1153 l 1,6,-1
 986 225 l 1,7,-1
 986 1027 l 1,8,-1
 821 1027 l 1,9,-1
 821 1153 l 1,10,-1
 1293 1153 l 1,11,-1
 1293 1026 l 1,12,-1
 1120 1026 l 1,13,-1
 1120 511 l 1,14,-1
 1120 -10 l 1,15,-1
 947 -10 l 1,16,-1
 359 993 l 1,17,-1
 359 126 l 1,18,-1
 528 126 l 1,19,-1
 528 0 l 1,20,-1
 56 0 l 1,21,-1
 56 127 l 1,0,-1
EndSplineSet
EndChar

StartChar: O
Encoding: 79 79 13
Width: 1321
Flags: MW
LayerCount: 2
Fore
SplineSet
66 575 m 256,0,1
 66 700 66 700 107 809 c 128,-1,2
 148 918 148 918 224.5 998.5 c 128,-1,3
 301 1079 301 1079 411.5 1125 c 128,-1,4
 522 1171 522 1171 660 1171 c 0,5,6
 799 1171 799 1171 909.5 1124.5 c 128,-1,7
 1020 1078 1020 1078 1097 997.5 c 128,-1,8
 1174 917 1174 917 1215 808 c 128,-1,9
 1256 699 1256 699 1256 575 c 256,10,11
 1256 451 1256 451 1215 342.5 c 128,-1,12
 1174 234 1174 234 1097 154 c 128,-1,13
 1020 74 1020 74 909.5 27.5 c 128,-1,14
 799 -19 799 -19 660 -19 c 256,15,16
 521 -19 521 -19 411 27 c 128,-1,17
 301 73 301 73 224.5 153.5 c 128,-1,18
 148 234 148 234 107 342 c 128,-1,19
 66 450 66 450 66 575 c 256,0,1
243 575 m 0,20,21
 243 480 243 480 272.5 397 c 128,-1,22
 302 314 302 314 357 252 c 128,-1,23
 412 190 412 190 488.5 154 c 128,-1,24
 565 118 565 118 660 118 c 256,25,26
 755 118 755 118 832.5 154 c 128,-1,27
 910 190 910 190 964.5 252 c 128,-1,28
 1019 314 1019 314 1048.5 397 c 128,-1,29
 1078 480 1078 480 1078 575 c 0,30,31
 1078 671 1078 671 1048.5 755.5 c 128,-1,32
 1019 840 1019 840 964.5 902 c 128,-1,33
 910 964 910 964 832.5 1000 c 128,-1,34
 755 1036 755 1036 660 1036 c 256,35,36
 565 1036 565 1036 488.5 1000 c 128,-1,37
 412 964 412 964 357 902 c 128,-1,38
 302 840 302 840 272.5 755.5 c 128,-1,39
 243 671 243 671 243 575 c 0,20,21
EndSplineSet
EndChar

StartChar: P
Encoding: 80 80 14
Width: 1030
Flags: MW
LayerCount: 2
Fore
SplineSet
63 127 m 1,0,-1
 214 127 l 1,1,-1
 214 577 l 1,2,-1
 214 1029 l 1,3,-1
 63 1029 l 1,4,-1
 63 1153 l 1,5,-1
 596 1153 l 2,6,7
 716 1153 716 1153 792.5 1120.5 c 128,-1,8
 869 1088 869 1088 913.5 1037.5 c 128,-1,9
 958 987 958 987 975 925 c 128,-1,10
 992 863 992 863 992 805 c 0,11,12
 992 699 992 699 957 630.5 c 128,-1,13
 922 562 922 562 859.5 522.5 c 128,-1,14
 797 483 797 483 710.5 467.5 c 128,-1,15
 624 452 624 452 522 452 c 2,16,-1
 376 452 l 1,17,-1
 376 126 l 1,18,-1
 534 126 l 1,19,-1
 534 0 l 1,20,-1
 63 0 l 1,21,-1
 63 127 l 1,0,-1
374 577 m 1,22,-1
 552 577 l 2,23,24
 633 577 633 577 686.5 594.5 c 128,-1,25
 740 612 740 612 771 643 c 128,-1,26
 802 674 802 674 814.5 716 c 128,-1,27
 827 758 827 758 827 807 c 0,28,29
 827 915 827 915 767.5 971 c 128,-1,30
 708 1027 708 1027 601 1027 c 2,31,-1
 374 1027 l 1,32,-1
 374 577 l 1,22,-1
EndSplineSet
EndChar

StartChar: R
Encoding: 82 82 15
Width: 1107
Flags: MW
LayerCount: 2
Fore
SplineSet
57 127 m 1,0,-1
 220 127 l 1,1,-1
 220 577 l 1,2,-1
 220 1029 l 1,3,-1
 57 1029 l 1,4,-1
 57 1153 l 1,5,-1
 608 1153 l 2,6,7
 707 1153 707 1153 778.5 1131.5 c 128,-1,8
 850 1110 850 1110 896.5 1071 c 128,-1,9
 943 1032 943 1032 965.5 977 c 128,-1,10
 988 922 988 922 988 855 c 0,11,12
 988 738 988 738 923 661 c 128,-1,13
 858 584 858 584 729 558 c 1,14,-1
 963 125 l 1,15,-1
 1109 125 l 1,16,-1
 1109 0 l 1,17,-1
 856 0 l 1,18,-1
 573 538 l 1,19,-1
 380 538 l 1,20,-1
 380 127 l 1,21,-1
 536 126 l 1,22,-1
 536 0 l 1,23,-1
 57 0 l 1,24,-1
 57 127 l 1,0,-1
603 667 m 2,25,26
 668 667 668 667 710.5 683.5 c 128,-1,27
 753 700 753 700 778 726.5 c 128,-1,28
 803 753 803 753 813 786.5 c 128,-1,29
 823 820 823 820 823 855 c 0,30,31
 823 940 823 940 767 983.5 c 128,-1,32
 711 1027 711 1027 616 1027 c 0,33,34
 602 1027 602 1027 564.5 1026.5 c 128,-1,35
 527 1026 527 1026 485 1026 c 2,36,-1
 380 1026 l 1,37,-1
 380 667 l 1,38,-1
 603 667 l 2,25,26
EndSplineSet
EndChar

StartChar: S
Encoding: 83 83 16
Width: 972
Flags: MW
LayerCount: 2
Fore
SplineSet
527 -19 m 0,0,1
 441 -19 441 -19 367 8 c 128,-1,2
 293 35 293 35 231 87 c 1,3,4
 231 87 231 87 230.5 74.5 c 128,-1,5
 230 62 230 62 229.5 47 c 128,-1,6
 229 32 229 32 228.5 19.5 c 128,-1,7
 228 7 228 7 228 7 c 1,8,9
 226 8 226 8 205 8 c 128,-1,10
 184 8 184 8 160 9 c 1,11,12
 131 9 131 9 96 10 c 1,13,-1
 96 387 l 1,14,-1
 225 387 l 1,15,16
 225 360 225 360 226 338 c 0,17,18
 226 319 226 319 226.5 302 c 128,-1,19
 227 285 227 285 227 281 c 1,20,21
 283 199 283 199 352.5 155 c 128,-1,22
 422 111 422 111 513 111 c 0,23,24
 566 111 566 111 609 127 c 128,-1,25
 652 143 652 143 682 170.5 c 128,-1,26
 712 198 712 198 728.5 235 c 128,-1,27
 745 272 745 272 745 314 c 0,28,29
 745 367 745 367 719.5 402 c 128,-1,30
 694 437 694 437 650 460.5 c 128,-1,31
 606 484 606 484 547.5 499.5 c 128,-1,32
 489 515 489 515 422 530 c 0,33,34
 354 545 354 545 293 567.5 c 128,-1,35
 232 590 232 590 186.5 628 c 128,-1,36
 141 666 141 666 114.5 722 c 128,-1,37
 88 778 88 778 88 859 c 0,38,39
 88 936 88 936 116 994.5 c 128,-1,40
 144 1053 144 1053 193 1092 c 128,-1,41
 242 1131 242 1131 308 1151 c 128,-1,42
 374 1171 374 1171 449 1171 c 0,43,44
 522 1171 522 1171 589 1150 c 128,-1,45
 656 1129 656 1129 713 1089 c 0,46,47
 713 1088 713 1088 713.5 1098.5 c 128,-1,48
 714 1109 714 1109 715 1121 c 0,49,50
 716 1135 716 1135 716 1153 c 1,51,-1
 848 1153 l 1,52,-1
 848 826 l 1,53,-1
 719 826 l 1,54,55
 718 848 718 848 718 867 c 1,56,57
 717 883 717 883 717 898 c 128,-1,58
 717 913 717 913 717 918 c 1,59,60
 669 981 669 981 607 1011 c 128,-1,61
 545 1041 545 1041 460 1041 c 0,62,63
 404 1041 404 1041 362 1028.5 c 128,-1,64
 320 1016 320 1016 291.5 994.5 c 128,-1,65
 263 973 263 973 248.5 943 c 128,-1,66
 234 913 234 913 234 877 c 0,67,68
 234 818 234 818 264 784 c 128,-1,69
 294 750 294 750 342.5 729.5 c 128,-1,70
 391 709 391 709 452.5 696.5 c 128,-1,71
 514 684 514 684 578 668 c 128,-1,72
 642 652 642 652 703 627.5 c 128,-1,73
 764 603 764 603 810 559 c 0,74,75
 858 513 858 513 884 449 c 128,-1,76
 910 385 910 385 910 316 c 0,77,78
 910 245 910 245 882 183.5 c 128,-1,79
 854 122 854 122 804 77 c 128,-1,80
 754 32 754 32 683 6.5 c 128,-1,81
 612 -19 612 -19 527 -19 c 0,0,1
EndSplineSet
EndChar

StartChar: T
Encoding: 84 84 17
Width: 1034
Flags: MW
LayerCount: 2
Fore
SplineSet
282 127 m 1,0,-1
 437 127 l 1,1,-1
 437 577 l 1,2,-1
 437 1027 l 1,3,-1
 172 1027 l 1,4,-1
 172 754 l 1,5,-1
 43 754 l 1,6,-1
 43 1153 l 1,7,-1
 516 1153 l 1,8,-1
 990 1153 l 1,9,-1
 990 754 l 1,10,-1
 859 754 l 1,11,-1
 859 1027 l 1,12,-1
 600 1027 l 1,13,-1
 600 577 l 1,14,-1
 600 126 l 1,15,-1
 754 126 l 1,16,-1
 754 0 l 1,17,-1
 282 0 l 1,18,-1
 282 127 l 1,0,-1
EndSplineSet
EndChar

StartChar: U
Encoding: 85 85 18
Width: 1211
Flags: MW
LayerCount: 2
Fore
SplineSet
34 1029 m 1,0,-1
 34 1153 l 1,1,-1
 486 1153 l 1,2,-1
 486 1026 l 1,3,-1
 344 1026 l 1,4,-1
 344 378 l 2,5,6
 344 246 344 246 409.5 176 c 128,-1,7
 475 106 475 106 602 106 c 0,8,9
 678 106 678 106 729.5 125 c 128,-1,10
 781 144 781 144 811.5 180 c 128,-1,11
 842 216 842 216 855 268.5 c 128,-1,12
 868 321 868 321 868 389 c 2,13,-1
 868 1027 l 1,14,-1
 726 1027 l 1,15,-1
 726 1153 l 1,16,-1
 1177 1153 l 1,17,-1
 1177 1029 l 1,18,-1
 1028 1026 l 1,19,20
 1028 854 1028 854 1029 715 c 0,21,22
 1029 656 1029 656 1029 598 c 128,-1,23
 1029 540 1029 540 1029.5 493.5 c 128,-1,24
 1030 447 1030 447 1030 416.5 c 128,-1,25
 1030 386 1030 386 1030 380 c 0,26,27
 1030 272 1030 272 996.5 196 c 128,-1,28
 963 120 963 120 906 72.5 c 128,-1,29
 849 25 849 25 773.5 3 c 128,-1,30
 698 -19 698 -19 614 -19 c 0,31,32
 525 -19 525 -19 458.5 -3.5 c 128,-1,33
 392 12 392 12 344 39.5 c 128,-1,34
 296 67 296 67 264.5 104.5 c 128,-1,35
 233 142 233 142 215 186.5 c 128,-1,36
 197 231 197 231 189.5 281 c 128,-1,37
 182 331 182 331 182 382 c 0,38,39
 182 388 182 388 182 418.5 c 128,-1,40
 182 449 182 449 182 495.5 c 128,-1,41
 182 542 182 542 182.5 599.5 c 128,-1,42
 183 657 183 657 183 716 c 128,-1,43
 183 775 183 775 183.5 831 c 128,-1,44
 184 887 184 887 184 931 c 128,-1,45
 184 975 184 975 184 1001.5 c 128,-1,46
 184 1028 184 1028 184 1029 c 1,47,-1
 34 1029 l 1,0,-1
EndSplineSet
EndChar

StartChar: V
Encoding: 86 86 19
Width: 1208
Flags: MW
LayerCount: 2
Fore
SplineSet
125 1029 m 1,0,-1
 -21 1029 l 1,1,-1
 -21 1153 l 1,2,-1
 434 1153 l 1,3,-1
 434 1026 l 1,4,-1
 293 1026 l 1,5,-1
 448 617 l 1,6,-1
 610 204 l 1,7,-1
 769 617 l 1,8,-1
 922 1027 l 1,9,-1
 781 1027 l 1,10,-1
 781 1153 l 1,11,-1
 1226 1153 l 1,12,-1
 1226 1026 l 1,13,-1
 1080 1026 l 1,14,-1
 682 -10 l 1,15,-1
 528 -10 l 1,16,-1
 125 1029 l 1,0,-1
EndSplineSet
EndChar

StartChar: W
Encoding: 87 87 20
Width: 1759
Flags: MW
LayerCount: 2
Fore
SplineSet
125 1029 m 1,0,-1
 -20 1029 l 1,1,-1
 -20 1153 l 1,2,-1
 423 1153 l 1,3,-1
 423 1026 l 1,4,-1
 279 1026 l 1,5,-1
 400 623 l 1,6,-1
 524 220 l 1,7,-1
 647 623 l 1,8,-1
 764 1029 l 1,9,-1
 624 1029 l 1,10,-1
 624 1153 l 1,11,-1
 1143 1153 l 1,12,-1
 1143 1026 l 1,13,-1
 1004 1026 l 1,14,-1
 1123 623 l 1,15,-1
 1245 220 l 1,16,-1
 1370 623 l 1,17,-1
 1489 1027 l 1,18,-1
 1345 1027 l 1,19,-1
 1345 1153 l 1,20,-1
 1772 1153 l 1,21,-1
 1772 1026 l 1,22,-1
 1630 1026 l 1,23,-1
 1320 -10 l 1,24,-1
 1162 -10 l 1,25,-1
 876 928 l 1,26,-1
 594 -10 l 1,27,-1
 441 -10 l 1,28,-1
 125 1029 l 1,0,-1
EndSplineSet
EndChar

StartChar: X
Encoding: 88 88 21
Width: 1149
Flags: MW
LayerCount: 2
Fore
SplineSet
18 127 m 1,0,-1
 179 127 l 1,1,-1
 492 582 l 1,2,-1
 183 1029 l 1,3,-1
 29 1029 l 1,4,-1
 29 1153 l 1,5,-1
 491 1153 l 1,6,-1
 491 1026 l 1,7,-1
 356 1026 l 1,8,-1
 578 705 l 1,9,-1
 804 1027 l 1,10,-1
 664 1027 l 1,11,-1
 664 1153 l 1,12,-1
 1110 1153 l 1,13,-1
 1110 1026 l 1,14,-1
 959 1026 l 1,15,-1
 657 595 l 1,16,-1
 985 125 l 1,17,-1
 1140 125 l 1,18,-1
 1140 0 l 1,19,-1
 668 0 l 1,20,-1
 668 127 l 1,21,-1
 807 127 l 1,22,-1
 571 470 l 1,23,-1
 335 126 l 1,24,-1
 479 126 l 1,25,-1
 479 0 l 1,26,-1
 18 0 l 1,27,-1
 18 127 l 1,0,-1
EndSplineSet
EndChar

StartChar: Y
Encoding: 89 89 22
Width: 1130
Flags: MW
LayerCount: 2
Fore
SplineSet
327 127 m 1,0,-1
 486 127 l 1,1,-1
 486 530 l 1,2,-1
 128 1029 l 1,3,-1
 -18 1029 l 1,4,-1
 -18 1153 l 1,5,-1
 454 1153 l 1,6,-1
 454 1026 l 1,7,-1
 304 1026 l 1,8,-1
 578 648 l 1,9,-1
 835 1027 l 1,10,-1
 685 1027 l 1,11,-1
 685 1153 l 1,12,-1
 1145 1153 l 1,13,-1
 1145 1026 l 1,14,-1
 989 1026 l 1,15,-1
 646 530 l 1,16,-1
 646 126 l 1,17,-1
 810 126 l 1,18,-1
 810 0 l 1,19,-1
 327 0 l 1,20,-1
 327 127 l 1,0,-1
EndSplineSet
EndChar

StartChar: Z
Encoding: 90 90 23
Width: 1010
Flags: MW
LayerCount: 2
Fore
SplineSet
62 128 m 1,0,-1
 719 1026 l 1,1,-1
 221 1026 l 1,2,-1
 221 833 l 1,3,-1
 92 833 l 1,4,-1
 92 1153 l 1,5,-1
 505 1153 l 1,6,-1
 924 1153 l 1,7,-1
 924 1041 l 1,8,-1
 257 127 l 1,9,-1
 805 127 l 1,10,-1
 805 335 l 1,11,-1
 934 335 l 1,12,-1
 934 0 l 1,13,-1
 498 0 l 1,14,-1
 62 0 l 1,15,-1
 62 128 l 1,0,-1
EndSplineSet
EndChar

StartChar: a
Encoding: 97 97 24
Width: 889
Flags: MW
LayerCount: 2
Fore
SplineSet
327 -22 m 0,0,1
 264 -22 264 -22 213.5 -2 c 128,-1,2
 163 18 163 18 127.5 51 c 128,-1,3
 92 84 92 84 73.5 127 c 128,-1,4
 55 170 55 170 55 216 c 0,5,6
 55 291 55 291 82.5 340 c 128,-1,7
 110 389 110 389 157 418 c 128,-1,8
 204 447 204 447 267.5 458.5 c 128,-1,9
 331 470 331 470 402 470 c 0,10,11
 495 470 495 470 595 450 c 1,12,-1
 595 547 l 2,13,14
 595 589 595 589 579.5 618.5 c 128,-1,15
 564 648 564 648 537 666 c 128,-1,16
 510 684 510 684 474.5 692.5 c 128,-1,17
 439 701 439 701 399 701 c 0,18,19
 337 701 337 701 290 680 c 128,-1,20
 243 659 243 659 214 617 c 1,21,-1
 74 656 l 1,22,23
 120 735 120 735 207 777 c 128,-1,24
 294 819 294 819 419 819 c 0,25,26
 513 819 513 819 576 797 c 128,-1,27
 639 775 639 775 676 738 c 128,-1,28
 713 701 713 701 728.5 653 c 128,-1,29
 744 605 744 605 744 554 c 2,30,-1
 744 121 l 1,31,-1
 888 121 l 1,32,-1
 888 0 l 1,33,-1
 611 0 l 1,34,35
 610 23 610 23 610 41 c 0,36,37
 610 49 610 49 609.5 56.5 c 128,-1,38
 609 64 609 64 609 70 c 2,39,-1
 609 83 l 1,40,41
 569 54 569 54 534 34 c 128,-1,42
 499 14 499 14 465.5 1.5 c 128,-1,43
 432 -11 432 -11 398 -16.5 c 128,-1,44
 364 -22 364 -22 327 -22 c 0,0,1
595 352 m 1,45,46
 563 353 563 353 514.5 360.5 c 128,-1,47
 466 368 466 368 412 368 c 0,48,49
 373 368 373 368 334 362.5 c 128,-1,50
 295 357 295 357 264.5 341 c 128,-1,51
 234 325 234 325 215 295 c 128,-1,52
 196 265 196 265 196 216 c 0,53,54
 196 190 196 190 206 166.5 c 128,-1,55
 216 143 216 143 235.5 126 c 128,-1,56
 255 109 255 109 283 99 c 128,-1,57
 311 89 311 89 348 89 c 0,58,59
 381 89 381 89 415 95 c 128,-1,60
 449 101 449 101 481.5 112.5 c 128,-1,61
 514 124 514 124 543 140.5 c 128,-1,62
 572 157 572 157 595 178 c 1,63,-1
 595 352 l 1,45,46
EndSplineSet
EndChar

StartChar: b
Encoding: 98 98 25
Width: 1071
Flags: MW
LayerCount: 2
Fore
SplineSet
23 121 m 1,0,1
 61 121 61 121 93 122 c 0,2,3
 120 122 120 122 143.5 122.5 c 128,-1,4
 167 123 167 123 172 123 c 1,5,6
 172 127 172 127 171.5 160 c 128,-1,7
 171 193 171 193 171 241 c 128,-1,8
 171 289 171 289 170.5 345 c 128,-1,9
 170 401 170 401 170 450.5 c 128,-1,10
 170 500 170 500 170 536 c 128,-1,11
 170 572 170 572 170 580 c 0,12,13
 170 586 170 586 170 608.5 c 128,-1,14
 170 631 170 631 170 664 c 128,-1,15
 170 697 170 697 170.5 736.5 c 128,-1,16
 171 776 171 776 171 817 c 0,17,18
 171 912 171 912 172 1029 c 1,19,-1
 25 1032 l 1,20,-1
 25 1153 l 1,21,-1
 320 1153 l 1,22,23
 319 1036 319 1036 319 942 c 2,24,-1
 319 707 l 1,25,26
 382 765 382 765 453 792 c 128,-1,27
 524 819 524 819 615 819 c 0,28,29
 707 819 707 819 781 787 c 128,-1,30
 855 755 855 755 906.5 699.5 c 128,-1,31
 958 644 958 644 985.5 569.5 c 128,-1,32
 1013 495 1013 495 1013 410 c 0,33,34
 1013 321 1013 321 985 243 c 128,-1,35
 957 165 957 165 905.5 106.5 c 128,-1,36
 854 48 854 48 780 14.5 c 128,-1,37
 706 -19 706 -19 614 -19 c 0,38,39
 570 -19 570 -19 528 -11 c 128,-1,40
 486 -3 486 -3 448.5 12.5 c 128,-1,41
 411 28 411 28 379 50.5 c 128,-1,42
 347 73 347 73 325 101 c 1,43,44
 325 101 325 101 324 85 c 128,-1,45
 323 69 323 69 322 50 c 128,-1,46
 321 31 321 31 320 15 c 128,-1,47
 319 -1 319 -1 319 -1 c 1,48,49
 316 -1 316 -1 294 -1 c 128,-1,50
 272 -1 272 -1 240 -1 c 128,-1,51
 208 -1 208 -1 171 -0.5 c 128,-1,52
 134 0 134 0 102 0 c 128,-1,53
 70 0 70 0 47.5 0 c 128,-1,54
 25 0 25 0 23 0 c 1,55,-1
 23 121 l 1,0,1
583 106 m 0,56,57
 646 106 646 106 696.5 129 c 128,-1,58
 747 152 747 152 781.5 193 c 128,-1,59
 816 234 816 234 834.5 290.5 c 128,-1,60
 853 347 853 347 853 413 c 0,61,62
 853 486 853 486 830 540 c 128,-1,63
 807 594 807 594 769.5 629 c 128,-1,64
 732 664 732 664 684.5 681 c 128,-1,65
 637 698 637 698 587 698 c 0,66,67
 532 698 532 698 485.5 681 c 128,-1,68
 439 664 439 664 404.5 633 c 128,-1,69
 370 602 370 602 348.5 559 c 128,-1,70
 327 516 327 516 323 464 c 1,71,-1
 323 343 l 2,72,73
 323 292 323 292 342 248.5 c 128,-1,74
 361 205 361 205 395.5 173.5 c 128,-1,75
 430 142 430 142 477.5 124 c 128,-1,76
 525 106 525 106 583 106 c 0,56,57
EndSplineSet
EndChar

StartChar: c
Encoding: 99 99 26
Width: 899
Flags: MW
LayerCount: 2
Fore
SplineSet
471 -19 m 0,0,1
 361 -19 361 -19 282.5 20 c 128,-1,2
 204 59 204 59 154 121 c 128,-1,3
 104 183 104 183 80.5 258.5 c 128,-1,4
 57 334 57 334 57 408 c 0,5,6
 57 489 57 489 86 563.5 c 128,-1,7
 115 638 115 638 167.5 694.5 c 128,-1,8
 220 751 220 751 294.5 785 c 128,-1,9
 369 819 369 819 460 819 c 0,10,11
 493 819 493 819 525.5 815 c 128,-1,12
 558 811 558 811 588 801 c 128,-1,13
 618 791 618 791 643.5 774.5 c 128,-1,14
 669 758 669 758 686 733 c 1,15,-1
 687 805 l 1,16,-1
 820 805 l 1,17,-1
 820 517 l 1,18,-1
 691 517 l 1,19,20
 675 604 675 604 624 647 c 128,-1,21
 573 690 573 690 471 690 c 0,22,23
 409 690 409 690 361.5 669 c 128,-1,24
 314 648 314 648 281.5 610.5 c 128,-1,25
 249 573 249 573 232.5 522 c 128,-1,26
 216 471 216 471 216 410 c 0,27,28
 216 344 216 344 233.5 289 c 128,-1,29
 251 234 251 234 284 194 c 128,-1,30
 317 154 317 154 365 132 c 128,-1,31
 413 110 413 110 475 110 c 0,32,33
 556 110 556 110 619 143.5 c 128,-1,34
 682 177 682 177 720 243 c 1,35,-1
 841 188 l 1,36,37
 795 87 795 87 700 34 c 128,-1,38
 605 -19 605 -19 471 -19 c 0,0,1
EndSplineSet
EndChar

StartChar: d
Encoding: 100 100 27
Width: 1071
Flags: MW
LayerCount: 2
Fore
SplineSet
898 1153 m 1,0,-1
 898 121 l 1,1,-1
 1050 121 l 1,2,-1
 1050 0 l 1,3,-1
 746 0 l 1,4,-1
 745 99 l 1,5,6
 681 37 681 37 612 9 c 128,-1,7
 543 -19 543 -19 459 -19 c 0,8,9
 381 -19 381 -19 309 8 c 128,-1,10
 237 35 237 35 181 88 c 128,-1,11
 125 141 125 141 91.5 219 c 128,-1,12
 58 297 58 297 58 400 c 0,13,14
 58 485 58 485 86.5 561 c 128,-1,15
 115 637 115 637 167.5 694.5 c 128,-1,16
 220 752 220 752 295 785.5 c 128,-1,17
 370 819 370 819 462 819 c 0,18,19
 548 819 548 819 619 792 c 128,-1,20
 690 765 690 765 750 713 c 1,21,22
 750 717 750 717 750 733 c 128,-1,23
 750 749 750 749 749.5 772.5 c 128,-1,24
 749 796 749 796 749 823.5 c 128,-1,25
 749 851 749 851 749 880 c 0,26,27
 748 947 748 947 748 1029 c 1,28,-1
 588 1032 l 1,29,-1
 588 1153 l 1,30,-1
 898 1153 l 1,0,-1
485 106 m 0,31,32
 543 106 543 106 592 124.5 c 128,-1,33
 641 143 641 143 676 176 c 128,-1,34
 711 209 711 209 730.5 254 c 128,-1,35
 750 299 750 299 750 353 c 0,36,37
 750 355 750 355 750 374 c 128,-1,38
 750 393 750 393 749.5 415.5 c 128,-1,39
 749 438 749 438 749 457 c 128,-1,40
 749 476 749 476 749 478 c 0,41,42
 744 527 744 527 722.5 567.5 c 128,-1,43
 701 608 701 608 666.5 637 c 128,-1,44
 632 666 632 666 585 682 c 128,-1,45
 538 698 538 698 483 698 c 0,46,47
 422 698 422 698 372.5 675 c 128,-1,48
 323 652 323 652 288.5 612.5 c 128,-1,49
 254 573 254 573 235.5 519 c 128,-1,50
 217 465 217 465 217 403 c 0,51,52
 217 338 217 338 235 283.5 c 128,-1,53
 253 229 253 229 287.5 189.5 c 128,-1,54
 322 150 322 150 371.5 128 c 128,-1,55
 421 106 421 106 485 106 c 0,31,32
EndSplineSet
EndChar

StartChar: e
Encoding: 101 101 28
Width: 955
Flags: MW
LayerCount: 2
Fore
SplineSet
561 363 m 1,0,-1
 219 365 l 1,1,2
 227 307 227 307 248.5 259 c 128,-1,3
 270 211 270 211 306 177 c 128,-1,4
 342 143 342 143 391.5 124.5 c 128,-1,5
 441 106 441 106 506 106 c 0,6,7
 584 106 584 106 654 134 c 128,-1,8
 724 162 724 162 770 217 c 1,9,-1
 898 161 l 1,10,11
 840 75 840 75 738 28 c 128,-1,12
 636 -19 636 -19 502 -19 c 0,13,14
 398 -19 398 -19 315 14 c 128,-1,15
 232 47 232 47 174.5 104 c 128,-1,16
 117 161 117 161 86 238 c 128,-1,17
 55 315 55 315 55 402 c 0,18,19
 55 493 55 493 89 570 c 128,-1,20
 123 647 123 647 182 702 c 128,-1,21
 241 757 241 757 322 788 c 128,-1,22
 403 819 403 819 498 819 c 0,23,24
 597 819 597 819 672 783.5 c 128,-1,25
 747 748 747 748 797.5 688 c 128,-1,26
 848 628 848 628 873 548.5 c 128,-1,27
 898 469 898 469 898 382 c 2,28,-1
 898 365 l 1,29,-1
 561 363 l 1,0,-1
492 467 m 1,30,-1
 754 467 l 1,31,32
 746 515 746 515 726 558 c 128,-1,33
 706 601 706 601 674 633.5 c 128,-1,34
 642 666 642 666 598.5 685 c 128,-1,35
 555 704 555 704 500 704 c 0,36,37
 440 704 440 704 392 686 c 128,-1,38
 344 668 344 668 309.5 636.5 c 128,-1,39
 275 605 275 605 253.5 561.5 c 128,-1,40
 232 518 232 518 223 467 c 1,41,-1
 492 467 l 1,30,-1
EndSplineSet
EndChar

StartChar: f
Encoding: 102 102 29
Width: 555
Flags: MW
LayerCount: 2
Fore
SplineSet
65 123 m 1,0,-1
 185 123 l 1,1,-1
 185 430 l 1,2,-1
 185 683 l 1,3,-1
 56 683 l 1,4,-1
 56 805 l 1,5,-1
 185 805 l 1,6,-1
 186 938 l 2,7,8
 186 1000 186 1000 203 1046.5 c 128,-1,9
 220 1093 220 1093 250.5 1124 c 128,-1,10
 281 1155 281 1155 323.5 1170.5 c 128,-1,11
 366 1186 366 1186 418 1186 c 0,12,13
 494 1186 494 1186 546 1145 c 128,-1,14
 598 1104 598 1104 610 1029 c 1,15,-1
 482 1004 l 1,16,17
 475 1071 475 1071 425 1071 c 0,18,19
 389 1071 389 1071 370 1055 c 128,-1,20
 351 1039 351 1039 343 1006 c 128,-1,21
 335 973 335 973 334.5 923 c 128,-1,22
 334 873 334 873 336 805 c 1,23,-1
 489 805 l 1,24,-1
 489 683 l 1,25,-1
 336 683 l 1,26,-1
 336 122 l 1,27,-1
 498 122 l 1,28,-1
 498 0 l 1,29,-1
 65 0 l 1,30,-1
 65 123 l 1,0,-1
EndSplineSet
EndChar

StartChar: g
Encoding: 103 103 30
Width: 1069
Flags: MW
LayerCount: 2
Fore
SplineSet
465 -360 m 0,0,1
 372 -360 372 -360 298 -338.5 c 128,-1,2
 224 -317 224 -317 154 -267 c 1,3,-1
 248 -163 l 1,4,5
 299 -200 299 -200 358 -218 c 128,-1,6
 417 -236 417 -236 478 -236 c 0,7,8
 523 -236 523 -236 570.5 -224 c 128,-1,9
 618 -212 618 -212 658 -184 c 128,-1,10
 698 -156 698 -156 724 -110 c 128,-1,11
 750 -64 750 -64 751 3 c 0,12,13
 751 4 751 4 750.5 18 c 128,-1,14
 750 32 750 32 749.5 48 c 128,-1,15
 749 64 749 64 748.5 77.5 c 128,-1,16
 748 91 748 91 748 93 c 1,17,18
 727 73 727 73 694.5 56.5 c 128,-1,19
 662 40 662 40 623 27 c 128,-1,20
 584 14 584 14 541.5 7 c 128,-1,21
 499 0 499 0 458 0 c 0,22,23
 365 0 365 0 291 31 c 128,-1,24
 217 62 217 62 165 115.5 c 128,-1,25
 113 169 113 169 85.5 240.5 c 128,-1,26
 58 312 58 312 58 392 c 0,27,28
 58 479 58 479 86.5 556.5 c 128,-1,29
 115 634 115 634 168 692.5 c 128,-1,30
 221 751 221 751 296 785 c 128,-1,31
 371 819 371 819 464 819 c 0,32,33
 624 819 624 819 747 709 c 1,34,-1
 749 757 l 2,35,36
 750 778 750 778 750 805 c 1,37,-1
 1049 805 l 1,38,-1
 1049 685 l 1,39,-1
 898 682 l 1,40,-1
 898 381 l 2,41,42
 898 324 898 324 898 268 c 128,-1,43
 898 212 898 212 898.5 167 c 128,-1,44
 899 122 899 122 899 92.5 c 128,-1,45
 899 63 899 63 899 57 c 0,46,47
 899 -62 899 -62 861 -142 c 128,-1,48
 823 -222 823 -222 761.5 -270.5 c 128,-1,49
 700 -319 700 -319 622 -339.5 c 128,-1,50
 544 -360 544 -360 465 -360 c 0,0,1
485 125 m 0,51,52
 539 125 539 125 587 141.5 c 128,-1,53
 635 158 635 158 672 187 c 128,-1,54
 709 216 709 216 730.5 255 c 128,-1,55
 752 294 752 294 752 339 c 2,56,-1
 752 464 l 1,57,58
 750 512 750 512 729 552.5 c 128,-1,59
 708 593 708 593 673 623 c 128,-1,60
 638 653 638 653 590.5 670 c 128,-1,61
 543 687 543 687 488 687 c 0,62,63
 425 687 425 687 375 664 c 128,-1,64
 325 641 325 641 289.5 601.5 c 128,-1,65
 254 562 254 562 235.5 509 c 128,-1,66
 217 456 217 456 217 396 c 0,67,68
 217 340 217 340 235 290.5 c 128,-1,69
 253 241 253 241 287 204 c 128,-1,70
 321 167 321 167 371 146 c 128,-1,71
 421 125 421 125 485 125 c 0,51,52
EndSplineSet
EndChar

StartChar: h
Encoding: 104 104 31
Width: 997
Flags: MW
LayerCount: 2
Fore
SplineSet
21 123 m 1,0,-1
 173 123 l 1,1,-1
 173 577 l 1,2,-1
 173 1032 l 1,3,-1
 23 1032 l 1,4,-1
 23 1153 l 1,5,-1
 323 1153 l 1,6,7
 322 1042 322 1042 322 951 c 2,8,-1
 322 726 l 1,9,10
 452 819 452 819 596 819 c 0,11,12
 716 819 716 819 779 752.5 c 128,-1,13
 842 686 842 686 842 556 c 0,14,15
 842 553 842 553 842 533.5 c 128,-1,16
 842 514 842 514 841.5 483 c 128,-1,17
 841 452 841 452 841 413.5 c 128,-1,18
 841 375 841 375 841 335 c 2,19,-1
 841 123 l 1,20,-1
 985 121 l 1,21,-1
 985 0 l 1,22,-1
 591 0 l 1,23,-1
 591 121 l 1,24,-1
 693 121 l 1,25,-1
 693 528 l 2,26,27
 693 562 693 562 687.5 593.5 c 128,-1,28
 682 625 682 625 667 649 c 128,-1,29
 652 673 652 673 627 687.5 c 128,-1,30
 602 702 602 702 563 702 c 0,31,32
 509 702 509 702 445.5 678.5 c 128,-1,33
 382 655 382 655 322 611 c 1,34,-1
 322 122 l 1,35,-1
 467 122 l 1,36,-1
 467 0 l 1,37,-1
 21 0 l 1,38,-1
 21 123 l 1,0,-1
EndSplineSet
EndChar

StartChar: i
Encoding: 105 105 32
Width: 509
Flags: MW
LayerCount: 2
Fore
SplineSet
59 124 m 1,0,-1
 194 124 l 1,1,-1
 194 685 l 1,2,-1
 59 685 l 1,3,-1
 59 805 l 1,4,-1
 343 805 l 1,5,-1
 343 122 l 1,6,-1
 479 122 l 1,7,-1
 479 0 l 1,8,-1
 59 0 l 1,9,-1
 59 124 l 1,0,-1
176 1066 m 256,10,11
 176 1084 176 1084 183 1100 c 128,-1,12
 190 1116 190 1116 202.5 1128 c 128,-1,13
 215 1140 215 1140 231.5 1146.5 c 128,-1,14
 248 1153 248 1153 267 1153 c 256,15,16
 286 1153 286 1153 303 1146.5 c 128,-1,17
 320 1140 320 1140 332.5 1128 c 128,-1,18
 345 1116 345 1116 352 1100 c 128,-1,19
 359 1084 359 1084 359 1066 c 256,20,21
 359 1048 359 1048 352 1032 c 128,-1,22
 345 1016 345 1016 332.5 1004 c 128,-1,23
 320 992 320 992 303 985.5 c 128,-1,24
 286 979 286 979 267 979 c 256,25,26
 248 979 248 979 231.5 985.5 c 128,-1,27
 215 992 215 992 202.5 1004 c 128,-1,28
 190 1016 190 1016 183 1032 c 128,-1,29
 176 1048 176 1048 176 1066 c 256,10,11
EndSplineSet
EndChar

StartChar: j
Encoding: 106 106 33
Width: 441
Flags: MW
LayerCount: 2
Fore
SplineSet
-60 -235 m 1,0,1
 -37 -237 -37 -237 -20 -238 c 128,-1,2
 -3 -239 -3 -239 17 -239 c 0,3,4
 59 -239 59 -239 87.5 -228 c 128,-1,5
 116 -217 116 -217 133.5 -193.5 c 128,-1,6
 151 -170 151 -170 158.5 -133 c 128,-1,7
 166 -96 166 -96 166 -43 c 0,8,9
 166 -41 166 -41 166 -23 c 128,-1,10
 166 -5 166 -5 165.5 23 c 128,-1,11
 165 51 165 51 164.5 86.5 c 128,-1,12
 164 122 164 122 164 158 c 0,13,14
 163 243 163 243 163 351 c 2,15,-1
 163 685 l 1,16,-1
 31 685 l 1,17,-1
 31 805 l 1,18,-1
 314 805 l 1,19,-1
 314 430 l 1,20,-1
 314 220 l 2,21,22
 314 181 314 181 314 142.5 c 128,-1,23
 314 104 314 104 314.5 74 c 128,-1,24
 315 44 315 44 315 24.5 c 128,-1,25
 315 5 315 5 315 4 c 0,26,27
 315 -72 315 -72 308 -139 c 128,-1,28
 301 -206 301 -206 272.5 -256 c 128,-1,29
 244 -306 244 -306 187 -336 c 128,-1,30
 130 -366 130 -366 31 -367 c 0,31,32
 6 -367 6 -367 -15 -366 c 128,-1,33
 -36 -365 -36 -365 -60 -361 c 1,34,-1
 -60 -235 l 1,0,1
143 1066 m 256,35,36
 143 1084 143 1084 150 1100 c 128,-1,37
 157 1116 157 1116 169.5 1128 c 128,-1,38
 182 1140 182 1140 199 1146.5 c 128,-1,39
 216 1153 216 1153 235 1153 c 0,40,41
 273 1153 273 1153 300 1128 c 128,-1,42
 327 1103 327 1103 327 1066 c 256,43,44
 327 1029 327 1029 300 1004 c 128,-1,45
 273 979 273 979 235 979 c 0,46,47
 216 979 216 979 199 985.5 c 128,-1,48
 182 992 182 992 169.5 1004 c 128,-1,49
 157 1016 157 1016 150 1032 c 128,-1,50
 143 1048 143 1048 143 1066 c 256,35,36
EndSplineSet
EndChar

StartChar: k
Encoding: 107 107 34
Width: 995
Flags: MW
LayerCount: 2
Fore
SplineSet
20 122 m 1,0,-1
 173 122 l 1,1,-1
 173 577 l 1,2,-1
 173 1032 l 1,3,-1
 20 1032 l 1,4,-1
 20 1153 l 1,5,-1
 321 1153 l 1,6,-1
 321 430 l 1,7,-1
 650 691 l 1,8,-1
 510 691 l 1,9,-1
 510 805 l 1,10,-1
 958 805 l 1,11,-1
 958 691 l 1,12,-1
 826 691 l 1,13,-1
 494 415 l 1,14,-1
 828 122 l 1,15,-1
 958 122 l 1,16,-1
 958 0 l 1,17,-1
 537 0 l 1,18,-1
 537 122 l 1,19,-1
 643 122 l 1,20,-1
 321 405 l 1,21,-1
 321 122 l 1,22,-1
 425 122 l 1,23,-1
 425 0 l 1,24,-1
 20 0 l 1,25,-1
 20 122 l 1,0,-1
EndSplineSet
EndChar

StartChar: l
Encoding: 108 108 35
Width: 487
Flags: MW
LayerCount: 2
Fore
SplineSet
21 123 m 1,0,-1
 173 123 l 1,1,-1
 173 580 l 1,2,-1
 173 1032 l 1,3,-1
 24 1032 l 1,4,-1
 24 1153 l 1,5,-1
 322 1153 l 1,6,-1
 322 122 l 1,7,-1
 455 122 l 1,8,-1
 455 0 l 1,9,-1
 21 0 l 1,10,-1
 21 123 l 1,0,-1
EndSplineSet
EndChar

StartChar: m
Encoding: 109 109 36
Width: 1554
Flags: MW
LayerCount: 2
Fore
SplineSet
208 432 m 1,0,-1
 208 685 l 1,1,-1
 65 685 l 1,2,-1
 65 805 l 1,3,-1
 354 805 l 1,4,5
 355 779 355 779 356 758 c 0,6,7
 357 739 357 739 357.5 722 c 128,-1,8
 358 705 358 705 359 698 c 1,9,10
 428 756 428 756 495.5 787.5 c 128,-1,11
 563 819 563 819 641 819 c 0,12,13
 721 819 721 819 776.5 782.5 c 128,-1,14
 832 746 832 746 859 680 c 1,15,16
 899 714 899 714 936 740 c 128,-1,17
 973 766 973 766 1009 783.5 c 128,-1,18
 1045 801 1045 801 1082 810 c 128,-1,19
 1119 819 1119 819 1159 819 c 0,20,21
 1221 819 1221 819 1266.5 799.5 c 128,-1,22
 1312 780 1312 780 1341.5 746.5 c 128,-1,23
 1371 713 1371 713 1385.5 667 c 128,-1,24
 1400 621 1400 621 1400 568 c 0,25,26
 1400 565 1400 565 1400 544 c 128,-1,27
 1400 523 1400 523 1399.5 491 c 128,-1,28
 1399 459 1399 459 1398.5 419.5 c 128,-1,29
 1398 380 1398 380 1398 339 c 0,30,31
 1397 243 1397 243 1397 123 c 1,32,-1
 1542 121 l 1,33,-1
 1542 0 l 1,34,-1
 1157 0 l 1,35,-1
 1157 124 l 1,36,-1
 1250 124 l 1,37,-1
 1250 537 l 2,38,39
 1250 609 1250 609 1220.5 651.5 c 128,-1,40
 1191 694 1191 694 1122 694 c 256,41,42
 1053 694 1053 694 993 654 c 128,-1,43
 933 614 933 614 880 551 c 1,44,-1
 880 121 l 1,45,-1
 1025 121 l 1,46,-1
 1025 0 l 1,47,-1
 636 0 l 1,48,-1
 636 121 l 1,49,-1
 728 121 l 1,50,-1
 728 534 l 2,51,52
 728 611 728 611 695 650 c 128,-1,53
 662 689 662 689 599 689 c 256,54,55
 536 689 536 689 479.5 652 c 128,-1,56
 423 615 423 615 359 551 c 1,57,-1
 359 122 l 1,58,-1
 504 122 l 1,59,-1
 504 0 l 1,60,-1
 58 0 l 1,61,-1
 58 123 l 1,62,-1
 208 123 l 1,63,-1
 208 432 l 1,0,-1
EndSplineSet
EndChar

StartChar: n
Encoding: 110 110 37
Width: 1031
Flags: MW
LayerCount: 2
Fore
SplineSet
63 123 m 1,0,-1
 206 123 l 1,1,-1
 206 685 l 1,2,-1
 57 685 l 1,3,-1
 57 805 l 1,4,-1
 353 805 l 1,5,6
 353 780 353 780 354 759 c 0,7,8
 355 741 355 741 355.5 724 c 128,-1,9
 356 707 356 707 357 701 c 1,10,11
 434 761 434 761 500 790 c 128,-1,12
 566 819 566 819 640 819 c 0,13,14
 695 819 695 819 739 801 c 128,-1,15
 783 783 783 783 813.5 749.5 c 128,-1,16
 844 716 844 716 860.5 668.5 c 128,-1,17
 877 621 877 621 877 562 c 0,18,19
 877 559 877 559 877 538.5 c 128,-1,20
 877 518 877 518 876.5 487 c 128,-1,21
 876 456 876 456 875.5 416.5 c 128,-1,22
 875 377 875 377 875 337 c 0,23,24
 874 242 874 242 874 123 c 1,25,-1
 1019 121 l 1,26,-1
 1019 0 l 1,27,-1
 617 0 l 1,28,-1
 617 120 l 1,29,-1
 727 120 l 1,30,-1
 727 507 l 2,31,32
 727 595 727 595 700 643 c 128,-1,33
 673 691 673 691 602 691 c 0,34,35
 533 691 533 691 472 651 c 128,-1,36
 411 611 411 611 357 550 c 1,37,-1
 357 122 l 1,38,-1
 502 122 l 1,39,-1
 502 0 l 1,40,-1
 63 0 l 1,41,-1
 63 123 l 1,0,-1
EndSplineSet
EndChar

StartChar: o
Encoding: 111 111 38
Width: 966
Flags: MW
LayerCount: 2
Fore
SplineSet
482 118 m 0,0,1
 544 118 544 118 593.5 139.5 c 128,-1,2
 643 161 643 161 678 199 c 128,-1,3
 713 237 713 237 731.5 289 c 128,-1,4
 750 341 750 341 750 402 c 256,5,6
 750 463 750 463 731.5 516 c 128,-1,7
 713 569 713 569 678 608 c 128,-1,8
 643 647 643 647 593.5 669 c 128,-1,9
 544 691 544 691 482 691 c 0,10,11
 421 691 421 691 371.5 669 c 128,-1,12
 322 647 322 647 287.5 608 c 128,-1,13
 253 569 253 569 234.5 516 c 128,-1,14
 216 463 216 463 216 402 c 256,15,16
 216 341 216 341 234.5 289 c 128,-1,17
 253 237 253 237 287.5 199 c 128,-1,18
 322 161 322 161 371.5 139.5 c 128,-1,19
 421 118 421 118 482 118 c 0,0,1
482 -19 m 256,20,21
 384 -19 384 -19 305.5 14.5 c 128,-1,22
 227 48 227 48 172 105 c 128,-1,23
 117 162 117 162 87 238.5 c 128,-1,24
 57 315 57 315 57 402 c 256,25,26
 57 489 57 489 87 565 c 128,-1,27
 117 641 117 641 172.5 697.5 c 128,-1,28
 228 754 228 754 307 786.5 c 128,-1,29
 386 819 386 819 484 819 c 0,30,31
 581 819 581 819 660 786.5 c 128,-1,32
 739 754 739 754 794.5 697.5 c 128,-1,33
 850 641 850 641 880 565 c 128,-1,34
 910 489 910 489 910 402 c 256,35,36
 910 315 910 315 880 238.5 c 128,-1,37
 850 162 850 162 794 105 c 128,-1,38
 738 48 738 48 659 14.5 c 128,-1,39
 580 -19 580 -19 482 -19 c 256,20,21
EndSplineSet
EndChar

StartChar: p
Encoding: 112 112 39
Width: 1058
Flags: MW
LayerCount: 2
Fore
SplineSet
13 -244 m 1,0,-1
 166 -244 l 1,1,-1
 166 223 l 1,2,-1
 166 685 l 1,3,-1
 25 685 l 1,4,-1
 25 805 l 1,5,-1
 317 805 l 1,6,7
 318 775 318 775 319 752 c 0,8,9
 320 732 320 732 320.5 715.5 c 128,-1,10
 321 699 321 699 322 699 c 0,11,12
 378 759 378 759 449.5 789 c 128,-1,13
 521 819 521 819 602 819 c 0,14,15
 695 819 695 819 769 786 c 128,-1,16
 843 753 843 753 894.5 696.5 c 128,-1,17
 946 640 946 640 973.5 563.5 c 128,-1,18
 1001 487 1001 487 1001 400 c 0,19,20
 1001 314 1001 314 972.5 238 c 128,-1,21
 944 162 944 162 891.5 105 c 128,-1,22
 839 48 839 48 765 14.5 c 128,-1,23
 691 -19 691 -19 600 -19 c 0,24,25
 519 -19 519 -19 445 8 c 128,-1,26
 371 35 371 35 314 87 c 1,27,-1
 314 -87 l 2,28,29
 314 -157 314 -157 315 -244 c 1,30,-1
 478 -245 l 1,31,-1
 478 -368 l 1,32,-1
 13 -368 l 1,33,-1
 13 -244 l 1,0,-1
573 110 m 0,34,35
 638 110 638 110 689 131.5 c 128,-1,36
 740 153 740 153 775 192 c 128,-1,37
 810 231 810 231 828 285.5 c 128,-1,38
 846 340 846 340 846 405 c 0,39,40
 846 466 846 466 828 519 c 128,-1,41
 810 572 810 572 775.5 611 c 128,-1,42
 741 650 741 650 691.5 672 c 128,-1,43
 642 694 642 694 580 694 c 0,44,45
 524 694 524 694 475.5 676 c 128,-1,46
 427 658 427 658 391 626.5 c 128,-1,47
 355 595 355 595 334 552 c 128,-1,48
 313 509 313 509 312 459 c 0,49,50
 312 458 312 458 311.5 439.5 c 128,-1,51
 311 421 311 421 311 399 c 128,-1,52
 311 377 311 377 311 358.5 c 128,-1,53
 311 340 311 340 311 339 c 0,54,55
 314 289 314 289 334.5 247 c 128,-1,56
 355 205 355 205 389.5 174.5 c 128,-1,57
 424 144 424 144 470.5 127 c 128,-1,58
 517 110 517 110 573 110 c 0,34,35
EndSplineSet
EndChar

StartChar: q
Encoding: 113 113 40
Width: 1063
Flags: MW
LayerCount: 2
Fore
SplineSet
583 -247 m 1,0,-1
 747 -244 l 1,1,2
 747 -157 747 -157 746 -87 c 0,3,4
 746 -57 746 -57 745.5 -27.5 c 128,-1,5
 745 2 745 2 744.5 26.5 c 128,-1,6
 744 51 744 51 744 68 c 128,-1,7
 744 85 744 85 744 90 c 1,8,9
 688 36 688 36 614.5 8.5 c 128,-1,10
 541 -19 541 -19 457 -19 c 0,11,12
 366 -19 366 -19 292 14.5 c 128,-1,13
 218 48 218 48 166 105 c 128,-1,14
 114 162 114 162 86 238.5 c 128,-1,15
 58 315 58 315 58 402 c 0,16,17
 58 488 58 488 85 564 c 128,-1,18
 112 640 112 640 163.5 696.5 c 128,-1,19
 215 753 215 753 289 786 c 128,-1,20
 363 819 363 819 457 819 c 0,21,22
 539 819 539 819 611 789 c 128,-1,23
 683 759 683 759 739 699 c 1,24,25
 739 706 739 706 740 715 c 0,26,27
 741 723 741 723 741 732 c 128,-1,28
 741 741 741 741 742 752 c 0,29,30
 743 775 743 775 744 805 c 1,31,-1
 1037 805 l 1,32,-1
 1037 682 l 1,33,-1
 895 682 l 1,34,-1
 895 -245 l 1,35,-1
 1047 -245 l 1,36,-1
 1047 -368 l 1,37,-1
 583 -368 l 1,38,-1
 583 -247 l 1,0,-1
747 326 m 0,39,40
 747 327 747 327 747.5 346.5 c 128,-1,41
 748 366 748 366 748 388.5 c 128,-1,42
 748 411 748 411 748 430 c 128,-1,43
 748 449 748 449 748 451 c 0,44,45
 748 503 748 503 728 547.5 c 128,-1,46
 708 592 708 592 672 624.5 c 128,-1,47
 636 657 636 657 586.5 675.5 c 128,-1,48
 537 694 537 694 478 694 c 0,49,50
 415 694 415 694 366 671.5 c 128,-1,51
 317 649 317 649 282.5 610 c 128,-1,52
 248 571 248 571 230 518 c 128,-1,53
 212 465 212 465 212 403 c 0,54,55
 212 338 212 338 230 284.5 c 128,-1,56
 248 231 248 231 282.5 192 c 128,-1,57
 317 153 317 153 367.5 131.5 c 128,-1,58
 418 110 418 110 484 110 c 0,59,60
 538 110 538 110 584 126 c 128,-1,61
 630 142 630 142 664.5 170.5 c 128,-1,62
 699 199 699 199 720.5 238.5 c 128,-1,63
 742 278 742 278 747 326 c 0,39,40
EndSplineSet
EndChar

StartChar: r
Encoding: 114 114 41
Width: 761
Flags: MW
LayerCount: 2
Fore
SplineSet
64 123 m 1,0,-1
 225 123 l 1,1,-1
 225 685 l 1,2,-1
 58 685 l 1,3,-1
 58 805 l 1,4,-1
 341 805 l 1,5,6
 342 760 342 760 344 724 c 0,7,8
 345 692 345 692 346 664.5 c 128,-1,9
 347 637 347 637 348 630 c 1,10,11
 389 727 389 727 459.5 773 c 128,-1,12
 530 819 530 819 615 819 c 0,13,14
 620 819 620 819 639.5 818.5 c 128,-1,15
 659 818 659 818 680 817 c 0,16,17
 705 816 705 816 734 815 c 1,18,-1
 729 675 l 1,19,20
 728 676 728 676 714 676.5 c 128,-1,21
 700 677 700 677 682.5 677.5 c 128,-1,22
 665 678 665 678 650 678 c 128,-1,23
 635 678 635 678 631 678 c 0,24,25
 557 678 557 678 508 657 c 128,-1,26
 459 636 459 636 429.5 597 c 128,-1,27
 400 558 400 558 387.5 503 c 128,-1,28
 375 448 375 448 375 380 c 2,29,-1
 375 122 l 1,30,-1
 551 122 l 1,31,-1
 551 0 l 1,32,-1
 64 0 l 1,33,-1
 64 123 l 1,0,-1
EndSplineSet
EndChar

StartChar: s
Encoding: 115 115 42
Width: 809
Flags: MW
LayerCount: 2
Fore
SplineSet
77 263 m 1,0,-1
 206 263 l 1,1,2
 205 259 205 259 205 250 c 0,3,4
 205 215 205 215 220.5 187.5 c 128,-1,5
 236 160 236 160 264 140.5 c 128,-1,6
 292 121 292 121 330.5 110.5 c 128,-1,7
 369 100 369 100 416 100 c 0,8,9
 503 100 503 100 551 130.5 c 128,-1,10
 599 161 599 161 599 217 c 0,11,12
 599 248 599 248 586 268 c 128,-1,13
 573 288 573 288 549.5 300 c 128,-1,14
 526 312 526 312 493.5 319 c 128,-1,15
 461 326 461 326 421 331 c 0,16,17
 385 336 385 336 345.5 343.5 c 128,-1,18
 306 351 306 351 267.5 363 c 128,-1,19
 229 375 229 375 194 393.5 c 128,-1,20
 159 412 159 412 132.5 439 c 128,-1,21
 106 466 106 466 90.5 502 c 128,-1,22
 75 538 75 538 75 586 c 0,23,24
 75 636 75 636 96 678.5 c 128,-1,25
 117 721 117 721 156 752.5 c 128,-1,26
 195 784 195 784 249.5 801.5 c 128,-1,27
 304 819 304 819 372 819 c 0,28,29
 431 819 431 819 483.5 807.5 c 128,-1,30
 536 796 536 796 575 777 c 0,31,32
 575 776 575 776 576 781 c 128,-1,33
 577 786 577 786 578 791 c 2,34,-1
 580 805 l 1,35,-1
 706 805 l 1,36,-1
 706 549 l 1,37,-1
 580 549 l 1,38,39
 579 565 579 565 578 578 c 0,40,41
 577 589 577 589 577 600 c 128,-1,42
 577 611 577 611 577 616 c 1,43,44
 506 702 506 702 378 702 c 0,45,46
 304 702 304 702 260 672.5 c 128,-1,47
 216 643 216 643 216 592 c 0,48,49
 216 559 216 559 237.5 539 c 128,-1,50
 259 519 259 519 295 506.5 c 128,-1,51
 331 494 331 494 378.5 486.5 c 128,-1,52
 426 479 426 479 479 470 c 0,53,54
 534 461 534 461 584 444.5 c 128,-1,55
 634 428 634 428 671 400.5 c 128,-1,56
 708 373 708 373 730 331 c 128,-1,57
 752 289 752 289 752 228 c 0,58,59
 752 173 752 173 729.5 127.5 c 128,-1,60
 707 82 707 82 665.5 49.5 c 128,-1,61
 624 17 624 17 565 -1 c 128,-1,62
 506 -19 506 -19 433 -19 c 0,63,64
 364 -19 364 -19 309.5 -5 c 128,-1,65
 255 9 255 9 210 40 c 1,66,-1
 208 0 l 1,67,-1
 77 0 l 1,68,-1
 77 263 l 1,0,-1
EndSplineSet
EndChar

StartChar: t
Encoding: 116 116 43
Width: 528
Flags: MW
LayerCount: 2
Fore
SplineSet
35 805 m 1,0,-1
 162 805 l 1,1,-1
 162 973 l 1,2,-1
 310 1095 l 1,3,-1
 310 805 l 1,4,-1
 473 805 l 1,5,-1
 473 683 l 1,6,-1
 310 683 l 1,7,-1
 310 470 l 2,8,9
 310 460 310 460 310 436.5 c 128,-1,10
 310 413 310 413 310 383 c 128,-1,11
 310 353 310 353 310.5 321 c 128,-1,12
 311 289 311 289 311.5 261.5 c 128,-1,13
 312 234 312 234 312.5 214.5 c 128,-1,14
 313 195 313 195 314 192 c 0,15,16
 316 150 316 150 338 134 c 128,-1,17
 360 118 360 118 395 118 c 0,18,19
 429 118 429 118 473 132 c 1,20,-1
 473 5 l 1,21,22
 447 -2 447 -2 419 -6.5 c 128,-1,23
 391 -11 391 -11 365 -11 c 0,24,25
 322 -11 322 -11 286 -1 c 128,-1,26
 250 9 250 9 223.5 31.5 c 128,-1,27
 197 54 197 54 181.5 91 c 128,-1,28
 166 128 166 128 164 181 c 0,29,30
 162 250 162 250 161 307 c 0,31,32
 161 331 161 331 160.5 355.5 c 128,-1,33
 160 380 160 380 159.5 401 c 128,-1,34
 159 422 159 422 159 438 c 128,-1,35
 159 454 159 454 159 462 c 2,36,-1
 159 683 l 1,37,-1
 35 683 l 1,38,-1
 35 805 l 1,0,-1
EndSplineSet
EndChar

StartChar: u
Encoding: 117 117 44
Width: 994
Flags: MW
LayerCount: 2
Fore
SplineSet
678 0 m 1,0,1
 677 24 677 24 676 44 c 0,2,3
 675 61 675 61 674.5 77 c 128,-1,4
 674 93 674 93 673 100 c 1,5,6
 607 41 607 41 541 11 c 128,-1,7
 475 -19 475 -19 401 -19 c 0,8,9
 335 -19 335 -19 288 0.5 c 128,-1,10
 241 20 241 20 211 56.5 c 128,-1,11
 181 93 181 93 167 144.5 c 128,-1,12
 153 196 153 196 153 261 c 0,13,14
 153 264 153 264 153 283.5 c 128,-1,15
 153 303 153 303 153 333 c 128,-1,16
 153 363 153 363 153.5 400.5 c 128,-1,17
 154 438 154 438 154 477 c 0,18,19
 154 568 154 568 155 682 c 1,20,-1
 32 685 l 1,21,-1
 32 805 l 1,22,-1
 304 805 l 1,23,-1
 304 268 l 2,24,25
 304 190 304 190 332 148 c 128,-1,26
 360 106 360 106 429 106 c 0,27,28
 499 106 499 106 562.5 146.5 c 128,-1,29
 626 187 626 187 673 250 c 1,30,-1
 673 683 l 1,31,-1
 528 683 l 1,32,-1
 528 805 l 1,33,-1
 824 805 l 1,34,-1
 824 121 l 1,35,-1
 970 121 l 1,36,-1
 970 0 l 1,37,-1
 678 0 l 1,0,1
EndSplineSet
EndChar

StartChar: v
Encoding: 118 118 45
Width: 960
Flags: MW
LayerCount: 2
Fore
SplineSet
144 685 m 1,0,-1
 -2 685 l 1,1,-1
 -2 805 l 1,2,-1
 409 805 l 1,3,-1
 409 682 l 1,4,-1
 293 682 l 1,5,-1
 391 427 l 1,6,-1
 488 181 l 1,7,-1
 585 427 l 1,8,-1
 683 683 l 1,9,-1
 560 683 l 1,10,-1
 560 805 l 1,11,-1
 962 805 l 1,12,-1
 962 682 l 1,13,-1
 832 682 l 1,14,-1
 558 -11 l 1,15,-1
 422 -11 l 1,16,-1
 144 685 l 1,0,-1
EndSplineSet
EndChar

StartChar: w
Encoding: 119 119 46
Width: 1403
Flags: MW
LayerCount: 2
Fore
SplineSet
111 685 m 1,0,-1
 2 685 l 1,1,-1
 2 805 l 1,2,-1
 356 805 l 1,3,-1
 356 682 l 1,4,-1
 240 682 l 1,5,-1
 327 412 l 1,6,-1
 413 157 l 1,7,-1
 503 413 l 1,8,-1
 590 685 l 1,9,-1
 495 685 l 1,10,-1
 495 805 l 1,11,-1
 893 805 l 1,12,-1
 893 682 l 1,13,-1
 798 682 l 1,14,-1
 973 157 l 1,15,-1
 1063 412 l 1,16,-1
 1151 683 l 1,17,-1
 1029 683 l 1,18,-1
 1029 805 l 1,19,-1
 1402 805 l 1,20,-1
 1402 682 l 1,21,-1
 1280 682 l 1,22,-1
 1046 -11 l 1,23,-1
 904 -11 l 1,24,-1
 699 606 l 1,25,-1
 487 -11 l 1,26,-1
 344 -11 l 1,27,-1
 111 685 l 1,0,-1
EndSplineSet
EndChar

StartChar: x
Encoding: 120 120 47
Width: 989
Flags: MW
LayerCount: 2
Fore
SplineSet
35 123 m 1,0,-1
 162 123 l 1,1,-1
 416 413 l 1,2,-1
 173 685 l 1,3,-1
 54 685 l 1,4,-1
 54 805 l 1,5,-1
 444 805 l 1,6,-1
 444 682 l 1,7,-1
 330 682 l 1,8,-1
 493 500 l 1,9,-1
 650 683 l 1,10,-1
 554 683 l 1,11,-1
 554 805 l 1,12,-1
 944 805 l 1,13,-1
 944 682 l 1,14,-1
 805 682 l 1,15,-1
 572 413 l 1,16,-1
 833 121 l 1,17,-1
 948 121 l 1,18,-1
 948 0 l 1,19,-1
 552 0 l 1,20,-1
 552 124 l 1,21,-1
 677 124 l 1,22,-1
 493 327 l 1,23,-1
 320 122 l 1,24,-1
 436 122 l 1,25,-1
 436 0 l 1,26,-1
 35 0 l 1,27,-1
 35 123 l 1,0,-1
EndSplineSet
EndChar

StartChar: y
Encoding: 121 121 48
Width: 982
Flags: MW
LayerCount: 2
Fore
SplineSet
309 -370 m 0,0,1
 280 -370 280 -370 254 -368 c 128,-1,2
 228 -366 228 -366 208 -364 c 0,3,4
 184 -361 184 -361 163 -357 c 1,5,-1
 167 -235 l 1,6,7
 184 -238 184 -238 202 -240 c 0,8,9
 218 -242 218 -242 237.5 -243.5 c 128,-1,10
 257 -245 257 -245 277 -245 c 0,11,12
 313 -245 313 -245 338.5 -235.5 c 128,-1,13
 364 -226 364 -226 386.5 -193 c 128,-1,14
 409 -160 409 -160 431.5 -97.5 c 128,-1,15
 454 -35 454 -35 483 71 c 1,16,-1
 388 70 l 1,17,-1
 124 685 l 1,18,-1
 -1 685 l 1,19,-1
 -1 805 l 1,20,-1
 405 805 l 1,21,-1
 405 682 l 1,22,-1
 297 682 l 1,23,-1
 499 162 l 1,24,-1
 519 162 l 1,25,-1
 605 432 l 1,26,-1
 680 683 l 1,27,-1
 565 683 l 1,28,-1
 565 805 l 1,29,-1
 978 805 l 1,30,-1
 978 682 l 1,31,-1
 849 682 l 1,32,-1
 633 36 l 1,33,34
 599 -59 599 -59 571.5 -134.5 c 128,-1,35
 544 -210 544 -210 509.5 -262.5 c 128,-1,36
 475 -315 475 -315 428 -342.5 c 128,-1,37
 381 -370 381 -370 309 -370 c 0,0,1
EndSplineSet
EndChar

StartChar: z
Encoding: 122 122 49
Width: 833
Flags: MW
LayerCount: 2
Fore
SplineSet
754 0 m 1,0,-1
 404 0 l 1,1,-1
 54 0 l 1,2,-1
 54 116 l 1,3,-1
 579 691 l 1,4,-1
 215 691 l 1,5,-1
 215 537 l 1,6,-1
 94 537 l 1,7,-1
 94 805 l 1,8,-1
 424 805 l 1,9,-1
 757 805 l 1,10,-1
 757 683 l 1,11,-1
 225 115 l 1,12,-1
 626 115 l 1,13,-1
 626 276 l 1,14,-1
 754 276 l 1,15,-1
 754 0 l 1,0,-1
EndSplineSet
EndChar

StartChar: zero
Encoding: 48 48 50
Width: 1004
Flags: MW
LayerCount: 2
Fore
SplineSet
502 -19 m 0,0,1
 395 -19 395 -19 317 24 c 128,-1,2
 239 67 239 67 188 145 c 128,-1,3
 137 223 137 223 112 333 c 128,-1,4
 87 443 87 443 87 577 c 0,5,6
 87 710 87 710 112 819.5 c 128,-1,7
 137 929 137 929 188 1007 c 128,-1,8
 239 1085 239 1085 317 1128 c 128,-1,9
 395 1171 395 1171 502 1171 c 0,10,11
 608 1171 608 1171 686.5 1128 c 128,-1,12
 765 1085 765 1085 816 1007 c 128,-1,13
 867 929 867 929 892 819.5 c 128,-1,14
 917 710 917 710 917 577 c 0,15,16
 917 443 917 443 892 333 c 128,-1,17
 867 223 867 223 816 145 c 128,-1,18
 765 67 765 67 686.5 24 c 128,-1,19
 608 -19 608 -19 502 -19 c 0,0,1
501 101 m 0,20,21
 568 101 568 101 617.5 128.5 c 128,-1,22
 667 156 667 156 699.5 214 c 128,-1,23
 732 272 732 272 747.5 362 c 128,-1,24
 763 452 763 452 763 577 c 0,25,26
 763 700 763 700 747.5 789.5 c 128,-1,27
 732 879 732 879 700 937 c 128,-1,28
 668 995 668 995 618.5 1023 c 128,-1,29
 569 1051 569 1051 501 1051 c 0,30,31
 427 1051 427 1051 377 1018 c 128,-1,32
 327 985 327 985 297 923.5 c 128,-1,33
 267 862 267 862 254 774 c 128,-1,34
 241 686 241 686 241 577 c 0,35,36
 241 465 241 465 254 377 c 128,-1,37
 267 289 267 289 297 227.5 c 128,-1,38
 327 166 327 166 377 133.5 c 128,-1,39
 427 101 427 101 501 101 c 0,20,21
EndSplineSet
EndChar

StartChar: one
Encoding: 49 49 51
Width: 584
Flags: MW
LayerCount: 2
Fore
SplineSet
70 120 m 1,0,-1
 233 123 l 1,1,2
 232 242 232 242 231 339 c 0,3,4
 231 380 231 380 230.5 420.5 c 128,-1,5
 230 461 230 461 230 494 c 128,-1,6
 230 527 230 527 230 549 c 128,-1,7
 230 571 230 571 230 577 c 0,8,9
 230 582 230 582 230 616.5 c 128,-1,10
 230 651 230 651 230 699 c 128,-1,11
 230 747 230 747 230.5 802 c 128,-1,12
 231 857 231 857 231 905 c 128,-1,13
 231 953 231 953 231.5 986.5 c 128,-1,14
 232 1020 232 1020 232 1025 c 1,15,16
 231 1024 231 1024 219 1023.5 c 128,-1,17
 207 1023 207 1023 189.5 1022.5 c 128,-1,18
 172 1022 172 1022 151.5 1021 c 128,-1,19
 131 1020 131 1020 112.5 1019.5 c 128,-1,20
 94 1019 94 1019 80 1018.5 c 128,-1,21
 66 1018 66 1018 62 1018 c 1,22,-1
 62 1141 l 1,23,24
 69 1141 69 1141 96.5 1143 c 128,-1,25
 124 1145 124 1145 155 1147 c 0,26,27
 191 1150 191 1150 234 1153 c 1,28,-1
 381 1153 l 1,29,30
 380 1018 380 1018 380 908 c 0,31,32
 380 861 380 861 379.5 815 c 128,-1,33
 379 769 379 769 379 731.5 c 128,-1,34
 379 694 379 694 379 668.5 c 128,-1,35
 379 643 379 643 379 636 c 2,36,-1
 379 369 l 2,37,38
 379 259 379 259 380 123 c 1,39,-1
 535 122 l 1,40,-1
 535 0 l 1,41,-1
 70 0 l 1,42,-1
 70 120 l 1,0,-1
EndSplineSet
EndChar

StartChar: two
Encoding: 50 50 52
Width: 936
Flags: MW
LayerCount: 2
Fore
SplineSet
831 0 m 1,0,1
 732 -1 732 -1 651 -2 c 0,2,3
 616 -2 616 -2 582.5 -2.5 c 128,-1,4
 549 -3 549 -3 521 -3 c 128,-1,5
 493 -3 493 -3 473.5 -3 c 128,-1,6
 454 -3 454 -3 448 -3 c 0,7,8
 443 -3 443 -3 424.5 -3 c 128,-1,9
 406 -3 406 -3 378.5 -3 c 128,-1,10
 351 -3 351 -3 317.5 -2.5 c 128,-1,11
 284 -2 284 -2 250 -2 c 0,12,13
 170 -1 170 -1 71 0 c 1,14,15
 71 106 71 106 110 210 c 128,-1,16
 149 314 149 314 237 420 c 0,17,18
 299 495 299 495 367.5 546.5 c 128,-1,19
 436 598 436 598 519 642 c 0,20,21
 599 684 599 684 638 735.5 c 128,-1,22
 677 787 677 787 677 859 c 0,23,24
 677 902 677 902 663.5 937.5 c 128,-1,25
 650 973 650 973 623 998 c 128,-1,26
 596 1023 596 1023 554.5 1037 c 128,-1,27
 513 1051 513 1051 458 1051 c 0,28,29
 396 1051 396 1051 354 1033.5 c 128,-1,30
 312 1016 312 1016 286 979 c 128,-1,31
 260 942 260 942 248.5 885.5 c 128,-1,32
 237 829 237 829 237 751 c 1,33,-1
 100 751 l 1,34,35
 100 758 100 758 99.5 769 c 128,-1,36
 99 780 99 780 98.5 792 c 128,-1,37
 98 804 98 804 97.5 814.5 c 128,-1,38
 97 825 97 825 97 831 c 0,39,40
 97 917 97 917 124.5 981 c 128,-1,41
 152 1045 152 1045 200.5 1087 c 128,-1,42
 249 1129 249 1129 314.5 1150 c 128,-1,43
 380 1171 380 1171 456 1171 c 0,44,45
 564 1171 564 1171 637 1142.5 c 128,-1,46
 710 1114 710 1114 754.5 1069 c 128,-1,47
 799 1024 799 1024 817.5 969.5 c 128,-1,48
 836 915 836 915 836 863 c 0,49,50
 836 801 836 801 814.5 749 c 128,-1,51
 793 697 793 697 755 653.5 c 128,-1,52
 717 610 717 610 664.5 573 c 128,-1,53
 612 536 612 536 550 503 c 1,54,55
 481 468 481 468 432 429.5 c 128,-1,56
 383 391 383 391 341 343 c 0,57,58
 322 322 322 322 303.5 296 c 128,-1,59
 285 270 285 270 269 242 c 128,-1,60
 253 214 253 214 241.5 185 c 128,-1,61
 230 156 230 156 225 129 c 1,62,-1
 464 129 l 2,63,64
 469 129 469 129 489 129 c 128,-1,65
 509 129 509 129 535.5 129 c 128,-1,66
 562 129 562 129 592 129.5 c 128,-1,67
 622 130 622 130 647.5 130 c 128,-1,68
 673 130 673 130 690.5 130 c 128,-1,69
 708 130 708 130 711 130 c 1,70,71
 711 131 711 131 711 142.5 c 128,-1,72
 711 154 711 154 711 171.5 c 128,-1,73
 711 189 711 189 711.5 210.5 c 128,-1,74
 712 232 712 232 712 255 c 0,75,76
 713 308 713 308 714 374 c 1,77,-1
 831 374 l 1,78,-1
 831 0 l 1,0,1
EndSplineSet
EndChar

StartChar: three
Encoding: 51 51 53
Width: 953
Flags: MW
LayerCount: 2
Fore
SplineSet
56 341 m 1,0,-1
 196 345 l 1,1,2
 207 230 207 230 277 165.5 c 128,-1,3
 347 101 347 101 468 101 c 0,4,5
 530 101 530 101 577 117.5 c 128,-1,6
 624 134 624 134 655.5 162.5 c 128,-1,7
 687 191 687 191 703 230.5 c 128,-1,8
 719 270 719 270 719 316 c 0,9,10
 719 368 719 368 698 408.5 c 128,-1,11
 677 449 677 449 639.5 476.5 c 128,-1,12
 602 504 602 504 549.5 518.5 c 128,-1,13
 497 533 497 533 435 535 c 2,14,-1
 349 537 l 1,15,-1
 349 663 l 1,16,-1
 433 663 l 2,17,18
 556 663 556 663 618 708.5 c 128,-1,19
 680 754 680 754 680 852 c 0,20,21
 680 895 680 895 667 931.5 c 128,-1,22
 654 968 654 968 627.5 994.5 c 128,-1,23
 601 1021 601 1021 561 1036 c 128,-1,24
 521 1051 521 1051 467 1051 c 0,25,26
 364 1051 364 1051 312.5 995.5 c 128,-1,27
 261 940 261 940 256 846 c 1,28,-1
 114 871 l 1,29,30
 117 940 117 940 142 995.5 c 128,-1,31
 167 1051 167 1051 211 1090 c 128,-1,32
 255 1129 255 1129 316 1150 c 128,-1,33
 377 1171 377 1171 452 1171 c 0,34,35
 539 1171 539 1171 608.5 1151 c 128,-1,36
 678 1131 678 1131 726.5 1092.5 c 128,-1,37
 775 1054 775 1054 801 998 c 128,-1,38
 827 942 827 942 827 869 c 0,39,40
 827 825 827 825 815 784.5 c 128,-1,41
 803 744 803 744 780.5 709.5 c 128,-1,42
 758 675 758 675 726 648 c 128,-1,43
 694 621 694 621 653 604 c 1,44,45
 767 567 767 567 820.5 498.5 c 128,-1,46
 874 430 874 430 874 324 c 0,47,48
 874 248 874 248 846 185 c 128,-1,49
 818 122 818 122 764.5 76.5 c 128,-1,50
 711 31 711 31 634 6 c 128,-1,51
 557 -19 557 -19 458 -19 c 0,52,53
 370 -19 370 -19 296 3 c 128,-1,54
 222 25 222 25 169 70 c 128,-1,55
 116 115 116 115 86 182.5 c 128,-1,56
 56 250 56 250 56 341 c 1,0,-1
EndSplineSet
EndChar

StartChar: five
Encoding: 53 53 54
Width: 947
Flags: MW
LayerCount: 2
Fore
SplineSet
204 325 m 1,0,1
 224 219 224 219 291.5 160 c 128,-1,2
 359 101 359 101 465 101 c 0,3,4
 529 101 529 101 577.5 121 c 128,-1,5
 626 141 626 141 658.5 175.5 c 128,-1,6
 691 210 691 210 707.5 257.5 c 128,-1,7
 724 305 724 305 724 360 c 0,8,9
 724 423 724 423 705.5 470 c 128,-1,10
 687 517 687 517 655 548.5 c 128,-1,11
 623 580 623 580 580.5 595.5 c 128,-1,12
 538 611 538 611 490 611 c 0,13,14
 425 611 425 611 358 588 c 128,-1,15
 291 565 291 565 230 517 c 1,16,-1
 115 562 l 1,17,-1
 161 1153 l 1,18,-1
 483 1153 l 1,19,-1
 804 1153 l 1,20,-1
 804 922 l 1,21,-1
 673 922 l 1,22,-1
 673 1023 l 1,23,-1
 282 1023 l 1,24,-1
 241 642 l 1,25,26
 286 688 286 688 354 710.5 c 128,-1,27
 422 733 422 733 503 733 c 0,28,29
 589 733 589 733 658.5 706 c 128,-1,30
 728 679 728 679 776.5 629.5 c 128,-1,31
 825 580 825 580 851.5 511.5 c 128,-1,32
 878 443 878 443 878 361 c 0,33,34
 878 284 878 284 853.5 215.5 c 128,-1,35
 829 147 829 147 778.5 94.5 c 128,-1,36
 728 42 728 42 650 11.5 c 128,-1,37
 572 -19 572 -19 465 -19 c 0,38,39
 375 -19 375 -19 303.5 4.5 c 128,-1,40
 232 28 232 28 181.5 72 c 128,-1,41
 131 116 131 116 102 179 c 128,-1,42
 73 242 73 242 67 322 c 1,43,-1
 204 325 l 1,0,1
EndSplineSet
EndChar

StartChar: six
Encoding: 54 54 55
Width: 947
Flags: MW
LayerCount: 2
Fore
SplineSet
848 858 m 1,0,-1
 718 857 l 1,1,2
 700 946 700 946 640.5 998.5 c 128,-1,3
 581 1051 581 1051 494 1051 c 0,4,5
 419 1051 419 1051 368.5 1014 c 128,-1,6
 318 977 318 977 287.5 915.5 c 128,-1,7
 257 854 257 854 244.5 774.5 c 128,-1,8
 232 695 232 695 232 609 c 1,9,10
 256 635 256 635 289 655.5 c 128,-1,11
 322 676 322 676 360.5 690.5 c 128,-1,12
 399 705 399 705 441 712.5 c 128,-1,13
 483 720 483 720 526 720 c 0,14,15
 605 720 605 720 668.5 693 c 128,-1,16
 732 666 732 666 776.5 618.5 c 128,-1,17
 821 571 821 571 844.5 506 c 128,-1,18
 868 441 868 441 868 365 c 0,19,20
 868 284 868 284 843 213.5 c 128,-1,21
 818 143 818 143 771 91.5 c 128,-1,22
 724 40 724 40 656.5 10.5 c 128,-1,23
 589 -19 589 -19 504 -19 c 0,24,25
 397 -19 397 -19 318 24 c 128,-1,26
 239 67 239 67 187.5 145 c 128,-1,27
 136 223 136 223 111 331.5 c 128,-1,28
 86 440 86 440 86 571 c 0,29,30
 86 708 86 708 112 819 c 128,-1,31
 138 930 138 930 190.5 1008 c 128,-1,32
 243 1086 243 1086 323 1128.5 c 128,-1,33
 403 1171 403 1171 511 1171 c 0,34,35
 586 1171 586 1171 647 1148.5 c 128,-1,36
 708 1126 708 1126 752 1085 c 128,-1,37
 796 1044 796 1044 821 986 c 128,-1,38
 846 928 846 928 848 858 c 1,0,-1
237 457 m 1,39,40
 246 373 246 373 263.5 307.5 c 128,-1,41
 281 242 281 242 311.5 197 c 128,-1,42
 342 152 342 152 387 129 c 128,-1,43
 432 106 432 106 496 106 c 0,44,45
 552 106 552 106 595.5 125 c 128,-1,46
 639 144 639 144 668.5 178 c 128,-1,47
 698 212 698 212 713.5 257 c 128,-1,48
 729 302 729 302 729 355 c 0,49,50
 729 405 729 405 715 447 c 128,-1,51
 701 489 701 489 673.5 519.5 c 128,-1,52
 646 550 646 550 605 567 c 128,-1,53
 564 584 564 584 510 584 c 0,54,55
 481 584 481 584 445.5 576.5 c 128,-1,56
 410 569 410 569 373 553.5 c 128,-1,57
 336 538 336 538 300.5 514 c 128,-1,58
 265 490 265 490 237 457 c 1,39,40
EndSplineSet
EndChar

StartChar: seven
Encoding: 55 55 56
Width: 819
Flags: MW
LayerCount: 2
Fore
SplineSet
142 0 m 1,0,1
 143 1 143 1 143.5 21 c 128,-1,2
 144 41 144 41 145 64 c 128,-1,3
 146 87 146 87 146.5 107 c 128,-1,4
 147 127 147 127 147 128 c 2,5,6
 147 128 147 128 157 128.5 c 128,-1,7
 167 129 167 129 182 129 c 128,-1,8
 197 129 197 129 215 129 c 128,-1,9
 233 129 233 129 248 129 c 128,-1,10
 263 129 263 129 273.5 129.5 c 128,-1,11
 284 130 284 130 284 130 c 1,12,13
 286 149 286 149 288 167.5 c 128,-1,14
 290 186 290 186 292 206 c 1,15,16
 313 311 313 311 349 419.5 c 128,-1,17
 385 528 385 528 431.5 633.5 c 128,-1,18
 478 739 478 739 532 838 c 128,-1,19
 586 937 586 937 644 1023 c 1,20,-1
 414 1023 l 1,21,-1
 188 1023 l 1,22,23
 188 1019 188 1019 187.5 994.5 c 128,-1,24
 187 970 187 970 186 942 c 0,25,26
 185 909 185 909 185 869 c 1,27,-1
 56 869 l 1,28,-1
 56 1153 l 1,29,30
 154 1153 154 1153 233 1154 c 0,31,32
 267 1154 267 1154 300 1154.5 c 128,-1,33
 333 1155 333 1155 360 1155.5 c 128,-1,34
 387 1156 387 1156 406 1156 c 128,-1,35
 425 1156 425 1156 431 1156 c 0,36,37
 436 1156 436 1156 455.5 1156 c 128,-1,38
 475 1156 475 1156 503.5 1155.5 c 128,-1,39
 532 1155 532 1155 566 1154.5 c 128,-1,40
 600 1154 600 1154 635 1154 c 0,41,42
 717 1153 717 1153 817 1153 c 1,43,44
 817 1153 817 1153 816.5 1137 c 128,-1,45
 816 1121 816 1121 815 1102.5 c 128,-1,46
 814 1084 814 1084 813.5 1068 c 128,-1,47
 813 1052 813 1052 813 1052 c 1,48,49
 772 996 772 996 732 930 c 128,-1,50
 692 864 692 864 655 792 c 128,-1,51
 618 720 618 720 584.5 643.5 c 128,-1,52
 551 567 551 567 523.5 490 c 128,-1,53
 496 413 496 413 475.5 338 c 128,-1,54
 455 263 455 263 444 193 c 0,55,56
 442 176 442 176 441.5 160.5 c 128,-1,57
 441 145 441 145 440 128 c 0,58,59
 440 127 440 127 458 127 c 128,-1,60
 476 127 476 127 499 127 c 0,61,62
 525 127 525 127 558 126 c 1,63,64
 557 125 557 125 556.5 105.5 c 128,-1,65
 556 86 556 86 555.5 63 c 128,-1,66
 555 40 555 40 554.5 20.5 c 128,-1,67
 554 1 554 1 553 0 c 1,68,-1
 142 0 l 1,0,1
EndSplineSet
EndChar

StartChar: eight
Encoding: 56 56 57
Width: 1007
Flags: MW
LayerCount: 2
Fore
SplineSet
511 -19 m 0,0,1
 395 -19 395 -19 314 8 c 128,-1,2
 233 35 233 35 181 80.5 c 128,-1,3
 129 126 129 126 105.5 186.5 c 128,-1,4
 82 247 82 247 82 314 c 0,5,6
 82 416 82 416 136.5 488 c 128,-1,7
 191 560 191 560 300 599 c 1,8,9
 204 650 204 650 160.5 716 c 128,-1,10
 117 782 117 782 117 872 c 0,11,12
 117 938 117 938 143 992.5 c 128,-1,13
 169 1047 169 1047 218 1087 c 128,-1,14
 267 1127 267 1127 338 1149 c 128,-1,15
 409 1171 409 1171 500 1171 c 0,16,17
 594 1171 594 1171 666.5 1149.5 c 128,-1,18
 739 1128 739 1128 789 1088.5 c 128,-1,19
 839 1049 839 1049 865 994 c 128,-1,20
 891 939 891 939 891 872 c 0,21,22
 891 782 891 782 847.5 717 c 128,-1,23
 804 652 804 652 709 601 c 1,24,25
 817 563 817 563 871 489.5 c 128,-1,26
 925 416 925 416 925 314 c 0,27,28
 925 239 925 239 897.5 177.5 c 128,-1,29
 870 116 870 116 817 72.5 c 128,-1,30
 764 29 764 29 687 5 c 128,-1,31
 610 -19 610 -19 511 -19 c 0,0,1
481 538 m 1,32,33
 424 535 424 535 379 518 c 128,-1,34
 334 501 334 501 303.5 472.5 c 128,-1,35
 273 444 273 444 257 405 c 128,-1,36
 241 366 241 366 241 320 c 0,37,38
 241 273 241 273 258 232.5 c 128,-1,39
 275 192 275 192 308.5 163 c 128,-1,40
 342 134 342 134 391.5 117.5 c 128,-1,41
 441 101 441 101 505 101 c 256,42,43
 569 101 569 101 617.5 118 c 128,-1,44
 666 135 666 135 699 164 c 128,-1,45
 732 193 732 193 749 233 c 128,-1,46
 766 273 766 273 766 320 c 0,47,48
 766 423 766 423 693.5 480.5 c 128,-1,49
 621 538 621 538 481 538 c 1,32,33
516 658 m 1,50,51
 630 663 630 663 687 717.5 c 128,-1,52
 744 772 744 772 744 858 c 0,53,54
 744 946 744 946 684 997 c 128,-1,55
 624 1048 624 1048 500 1048 c 0,56,57
 383 1048 383 1048 323.5 996.5 c 128,-1,58
 264 945 264 945 264 857 c 0,59,60
 264 764 264 764 327 711 c 128,-1,61
 390 658 390 658 516 658 c 1,50,51
EndSplineSet
EndChar

StartChar: nine
Encoding: 57 57 58
Width: 949
Flags: MW
LayerCount: 2
Fore
SplineSet
101 298 m 1,0,-1
 231 300 l 1,1,2
 237 255 237 255 257.5 218.5 c 128,-1,3
 278 182 278 182 308 155.5 c 128,-1,4
 338 129 338 129 376 115 c 128,-1,5
 414 101 414 101 457 101 c 0,6,7
 577 101 577 101 647.5 211 c 128,-1,8
 718 321 718 321 718 545 c 1,9,10
 694 519 694 519 661 498 c 128,-1,11
 628 477 628 477 589.5 463 c 128,-1,12
 551 449 551 449 508.5 441.5 c 128,-1,13
 466 434 466 434 423 434 c 0,14,15
 345 434 345 434 282 460.5 c 128,-1,16
 219 487 219 487 174 534.5 c 128,-1,17
 129 582 129 582 104.5 646 c 128,-1,18
 80 710 80 710 80 785 c 0,19,20
 80 867 80 867 105 937.5 c 128,-1,21
 130 1008 130 1008 177.5 1060 c 128,-1,22
 225 1112 225 1112 293.5 1141.5 c 128,-1,23
 362 1171 362 1171 449 1171 c 0,24,25
 551 1171 551 1171 628.5 1132 c 128,-1,26
 706 1093 706 1093 757.5 1018 c 128,-1,27
 809 943 809 943 835.5 834 c 128,-1,28
 862 725 862 725 862 584 c 0,29,30
 862 447 862 447 836 335.5 c 128,-1,31
 810 224 810 224 757.5 145.5 c 128,-1,32
 705 67 705 67 626 24 c 128,-1,33
 547 -19 547 -19 440 -19 c 0,34,35
 364 -19 364 -19 302.5 4 c 128,-1,36
 241 27 241 27 197 69 c 128,-1,37
 153 111 153 111 128 169 c 128,-1,38
 103 227 103 227 101 298 c 1,0,-1
712 696 m 1,39,40
 704 782 704 782 686.5 847.5 c 128,-1,41
 669 913 669 913 638.5 957.5 c 128,-1,42
 608 1002 608 1002 563 1024.5 c 128,-1,43
 518 1047 518 1047 455 1047 c 0,44,45
 397 1047 397 1047 353 1027.5 c 128,-1,46
 309 1008 309 1008 279 974 c 128,-1,47
 249 940 249 940 234 894 c 128,-1,48
 219 848 219 848 219 795 c 0,49,50
 219 746 219 746 233.5 704.5 c 128,-1,51
 248 663 248 663 276.5 633 c 128,-1,52
 305 603 305 603 346 586 c 128,-1,53
 387 569 387 569 440 569 c 0,54,55
 468 569 468 569 503 576.5 c 128,-1,56
 538 584 538 584 575 600 c 128,-1,57
 612 616 612 616 647.5 639.5 c 128,-1,58
 683 663 683 663 712 696 c 1,39,40
EndSplineSet
EndChar

StartChar: parenleft
Encoding: 40 40 59
Width: 522
Flags: MW
LayerCount: 2
Fore
SplineSet
216 416 m 0,0,1
 216 270 216 270 236.5 163.5 c 128,-1,2
 257 57 257 57 294 -20 c 128,-1,3
 331 -97 331 -97 383 -150 c 128,-1,4
 435 -203 435 -203 498 -242 c 1,5,-1
 491 -351 l 1,6,7
 401 -310 401 -310 322.5 -242.5 c 128,-1,8
 244 -175 244 -175 185 -79.5 c 128,-1,9
 126 16 126 16 92 139.5 c 128,-1,10
 58 263 58 263 58 416 c 256,11,12
 58 569 58 569 92 692.5 c 128,-1,13
 126 816 126 816 185 912 c 128,-1,14
 244 1008 244 1008 322.5 1076 c 128,-1,15
 401 1144 401 1144 491 1185 c 1,16,-1
 498 1075 l 1,17,18
 435 1036 435 1036 383 983 c 128,-1,19
 331 930 331 930 294 853 c 128,-1,20
 257 776 257 776 236.5 669.5 c 128,-1,21
 216 563 216 563 216 416 c 0,0,1
EndSplineSet
EndChar

StartChar: parenright
Encoding: 41 41 60
Width: 522
Flags: MW
LayerCount: 2
Fore
SplineSet
306 416 m 0,0,1
 306 563 306 563 285.5 669.5 c 128,-1,2
 265 776 265 776 228 853 c 128,-1,3
 191 930 191 930 139 983 c 128,-1,4
 87 1036 87 1036 24 1075 c 1,5,-1
 30 1185 l 1,6,7
 120 1144 120 1144 199 1076 c 128,-1,8
 278 1008 278 1008 337 912 c 128,-1,9
 396 816 396 816 430 692.5 c 128,-1,10
 464 569 464 569 464 416 c 256,11,12
 464 263 464 263 430 139.5 c 128,-1,13
 396 16 396 16 337 -79.5 c 128,-1,14
 278 -175 278 -175 199 -242.5 c 128,-1,15
 120 -310 120 -310 30 -351 c 1,16,-1
 24 -242 l 1,17,18
 87 -203 87 -203 139 -150 c 128,-1,19
 191 -97 191 -97 228 -20 c 128,-1,20
 265 57 265 57 285.5 163.5 c 128,-1,21
 306 270 306 270 306 416 c 0,0,1
EndSplineSet
EndChar

StartChar: bracketleft
Encoding: 91 91 61
Width: 569
Flags: MW
LayerCount: 2
Fore
SplineSet
541 1167 m 1,0,-1
 541 1058 l 1,1,-1
 290 1058 l 1,2,-1
 290 -222 l 1,3,-1
 541 -222 l 1,4,-1
 541 -329 l 1,5,-1
 142 -329 l 1,6,-1
 142 418 l 1,7,-1
 142 1167 l 1,8,-1
 541 1167 l 1,0,-1
EndSplineSet
EndChar

StartChar: bracketright
Encoding: 93 93 62
Width: 569
Flags: MW
LayerCount: 2
Fore
SplineSet
28 1058 m 1,0,-1
 28 1165 l 1,1,-1
 427 1165 l 1,2,-1
 427 418 l 1,3,-1
 427 -332 l 1,4,-1
 28 -332 l 1,5,-1
 28 -222 l 1,6,-1
 279 -222 l 1,7,-1
 279 1058 l 1,8,-1
 28 1058 l 1,0,-1
EndSplineSet
EndChar

StartChar: braceleft
Encoding: 123 123 63
Width: 528
Flags: MW
LayerCount: 2
Fore
SplineSet
18 470 m 1,0,1
 73 470 73 470 106.5 488 c 128,-1,2
 140 506 140 506 158.5 539.5 c 128,-1,3
 177 573 177 573 183.5 622 c 128,-1,4
 190 671 190 671 190 733 c 0,5,6
 190 828 190 828 193.5 907 c 128,-1,7
 197 986 197 986 219 1043.5 c 128,-1,8
 241 1101 241 1101 289 1133 c 128,-1,9
 337 1165 337 1165 426 1166 c 1,10,-1
 494 1166 l 1,11,-1
 494 1059 l 1,12,13
 442 1059 442 1059 409.5 1053 c 128,-1,14
 377 1047 377 1047 358 1029 c 128,-1,15
 339 1011 339 1011 332 977.5 c 128,-1,16
 325 944 325 944 325 890 c 0,17,18
 325 771 325 771 320 691 c 128,-1,19
 315 611 315 611 297 557.5 c 128,-1,20
 279 504 279 504 245 470.5 c 128,-1,21
 211 437 211 437 153 412 c 1,22,23
 201 391 201 391 233.5 363 c 128,-1,24
 266 335 266 335 286.5 293.5 c 128,-1,25
 307 252 307 252 315.5 193.5 c 128,-1,26
 324 135 324 135 324 53 c 0,27,28
 324 -44 324 -44 326.5 -101.5 c 128,-1,29
 329 -159 329 -159 345 -189 c 128,-1,30
 361 -219 361 -219 395.5 -227.5 c 128,-1,31
 430 -236 430 -236 494 -236 c 1,32,-1
 494 -342 l 1,33,-1
 427 -342 l 2,34,35
 339 -342 339 -342 291 -311.5 c 128,-1,36
 243 -281 243 -281 220.5 -225.5 c 128,-1,37
 198 -170 198 -170 194 -92 c 128,-1,38
 190 -14 190 -14 190 81 c 0,39,40
 190 144 190 144 184.5 194.5 c 128,-1,41
 179 245 179 245 161 280.5 c 128,-1,42
 143 316 143 316 109 334.5 c 128,-1,43
 75 353 75 353 18 353 c 1,44,-1
 18 470 l 1,0,1
EndSplineSet
EndChar

StartChar: slash
Encoding: 47 47 64
Width: 793
Flags: MW
LayerCount: 2
Fore
SplineSet
752 1166 m 1,0,-1
 168 -40 l 1,1,-1
 39 -40 l 1,2,-1
 623 1166 l 1,3,-1
 752 1166 l 1,0,-1
EndSplineSet
EndChar

StartChar: backslash
Encoding: 92 92 65
Width: 793
Flags: MW
LayerCount: 2
Fore
SplineSet
754 -40 m 1,0,-1
 625 -40 l 1,1,-1
 41 1166 l 1,2,-1
 170 1166 l 1,3,-1
 754 -40 l 1,0,-1
EndSplineSet
EndChar

StartChar: bar
Encoding: 124 124 66
Width: 404
Flags: MW
LayerCount: 2
Fore
SplineSet
263 1166 m 1,0,-1
 263 -368 l 1,1,-1
 141 -368 l 1,2,-1
 141 1166 l 1,3,-1
 263 1166 l 1,0,-1
EndSplineSet
EndChar

StartChar: period
Encoding: 46 46 67
Width: 414
Flags: MW
LayerCount: 2
Fore
SplineSet
101 212 m 1,0,-1
 313 212 l 1,1,-1
 313 0 l 1,2,-1
 101 0 l 1,3,-1
 101 212 l 1,0,-1
EndSplineSet
EndChar

StartChar: colon
Encoding: 58 58 68
Width: 414
Flags: MW
LayerCount: 2
Fore
SplineSet
101 832 m 1,0,-1
 313 832 l 1,1,-1
 313 620 l 1,2,-1
 101 620 l 1,3,-1
 101 832 l 1,0,-1
101 212 m 1,4,-1
 313 212 l 1,5,-1
 313 0 l 1,6,-1
 101 0 l 1,7,-1
 101 212 l 1,4,-1
EndSplineSet
EndChar

StartChar: ellipsis
Encoding: 8230 8230 69
Width: 1374
Flags: MW
LayerCount: 2
Fore
SplineSet
101 212 m 1,0,-1
 313 212 l 1,1,-1
 313 0 l 1,2,-1
 101 0 l 1,3,-1
 101 212 l 1,0,-1
581 212 m 1,4,-1
 793 212 l 1,5,-1
 793 0 l 1,6,-1
 581 0 l 1,7,-1
 581 212 l 1,4,-1
1061 212 m 1,8,-1
 1273 212 l 1,9,-1
 1273 0 l 1,10,-1
 1061 0 l 1,11,-1
 1061 212 l 1,8,-1
EndSplineSet
EndChar

StartChar: endash
Encoding: 8211 8211 70
Width: 1089
Flags: MW
LayerCount: 2
Fore
SplineSet
980 496 m 1,0,-1
 980 367 l 1,1,-1
 108 367 l 1,2,-1
 108 496 l 1,3,-1
 980 496 l 1,0,-1
EndSplineSet
EndChar

StartChar: emdash
Encoding: 8212 8212 71
Width: 1944
Flags: MW
LayerCount: 2
Fore
SplineSet
1835 496 m 1,0,-1
 1835 367 l 1,1,-1
 108 367 l 1,2,-1
 108 496 l 1,3,-1
 1835 496 l 1,0,-1
EndSplineSet
EndChar

StartChar: bullet
Encoding: 8226 8226 72
Width: 559
Flags: MW
LayerCount: 2
Fore
SplineSet
280 754 m 256,0,1
 322 754 322 754 358.5 739 c 128,-1,2
 395 724 395 724 422 698.5 c 128,-1,3
 449 673 449 673 465 637.5 c 128,-1,4
 481 602 481 602 481 562 c 256,5,6
 481 522 481 522 465 486.5 c 128,-1,7
 449 451 449 451 422 425 c 128,-1,8
 395 399 395 399 358.5 383.5 c 128,-1,9
 322 368 322 368 280 368 c 256,10,11
 238 368 238 368 201.5 383.5 c 128,-1,12
 165 399 165 399 138 425 c 128,-1,13
 111 451 111 451 95.5 486.5 c 128,-1,14
 80 522 80 522 80 562 c 256,15,16
 80 602 80 602 95.5 637.5 c 128,-1,17
 111 673 111 673 138 698.5 c 128,-1,18
 165 724 165 724 201.5 739 c 128,-1,19
 238 754 238 754 280 754 c 256,0,1
EndSplineSet
EndChar

StartChar: exclam
Encoding: 33 33 73
Width: 466
Flags: MW
LayerCount: 2
Fore
SplineSet
147 832 m 1,0,-1
 147 1196 l 1,1,-1
 319 1196 l 1,2,-1
 319 832 l 1,3,-1
 277 324 l 1,4,-1
 189 324 l 1,5,-1
 147 832 l 1,0,-1
127 212 m 1,6,-1
 339 212 l 1,7,-1
 339 0 l 1,8,-1
 127 0 l 1,9,-1
 127 212 l 1,6,-1
EndSplineSet
EndChar

StartChar: underscore
Encoding: 95 95 76
Width: 1030
Flags: MW
LayerCount: 2
Fore
SplineSet
964 -126 m 1,0,-1
 964 -204 l 1,1,-1
 66 -204 l 1,2,-1
 66 -126 l 1,3,-1
 964 -126 l 1,0,-1
EndSplineSet
EndChar

StartChar: asciitilde
Encoding: 126 126 77
Width: 1062
Flags: MW
LayerCount: 2
Fore
SplineSet
733 446 m 0,0,1
 668 446 668 446 616 466 c 128,-1,2
 564 486 564 486 517 510 c 128,-1,3
 470 534 470 534 424 554 c 128,-1,4
 378 574 378 574 324 574 c 0,5,6
 291 574 291 574 264 566 c 128,-1,7
 237 558 237 558 212 542.5 c 128,-1,8
 187 527 187 527 162.5 505 c 128,-1,9
 138 483 138 483 109 455 c 1,10,-1
 104 599 l 1,11,12
 123 620 123 620 146.5 640 c 128,-1,13
 170 660 170 660 199 676 c 128,-1,14
 228 692 228 692 262 702 c 128,-1,15
 296 712 296 712 336 712 c 0,16,17
 404 712 404 712 459.5 692 c 128,-1,18
 515 672 515 672 563.5 648.5 c 128,-1,19
 612 625 612 625 656.5 605 c 128,-1,20
 701 585 701 585 747 585 c 0,21,22
 778 585 778 585 807.5 595 c 128,-1,23
 837 605 837 605 864.5 621.5 c 128,-1,24
 892 638 892 638 916.5 659.5 c 128,-1,25
 941 681 941 681 964 704 c 1,26,-1
 969 556 l 1,27,28
 944 535 944 535 919.5 515 c 128,-1,29
 895 495 895 495 867 479.5 c 128,-1,30
 839 464 839 464 806 455 c 128,-1,31
 773 446 773 446 733 446 c 0,0,1
EndSplineSet
EndChar

StartChar: ordmasculine
Encoding: 186 186 78
Width: 704
Flags: MW
LayerCount: 2
Fore
SplineSet
180 951 m 256,0,1
 180 915 180 915 193 884 c 128,-1,2
 206 853 206 853 229.5 830.5 c 128,-1,3
 253 808 253 808 284.5 795 c 128,-1,4
 316 782 316 782 353 782 c 0,5,6
 389 782 389 782 420.5 795 c 128,-1,7
 452 808 452 808 475 830.5 c 128,-1,8
 498 853 498 853 511 884 c 128,-1,9
 524 915 524 915 524 951 c 256,10,11
 524 987 524 987 511 1017.5 c 128,-1,12
 498 1048 498 1048 475 1070.5 c 128,-1,13
 452 1093 452 1093 420.5 1105.5 c 128,-1,14
 389 1118 389 1118 353 1118 c 0,15,16
 316 1118 316 1118 284.5 1105.5 c 128,-1,17
 253 1093 253 1093 229.5 1070.5 c 128,-1,18
 206 1048 206 1048 193 1017.5 c 128,-1,19
 180 987 180 987 180 951 c 256,0,1
68 951 m 256,20,21
 68 1008 68 1008 89.5 1056.5 c 128,-1,22
 111 1105 111 1105 149.5 1140 c 128,-1,23
 188 1175 188 1175 240 1195 c 128,-1,24
 292 1215 292 1215 353 1215 c 256,25,26
 414 1215 414 1215 466 1195 c 128,-1,27
 518 1175 518 1175 556 1140 c 128,-1,28
 594 1105 594 1105 615.5 1056.5 c 128,-1,29
 637 1008 637 1008 637 951 c 256,30,31
 637 894 637 894 615.5 846 c 128,-1,32
 594 798 594 798 556 762.5 c 128,-1,33
 518 727 518 727 466 707 c 128,-1,34
 414 687 414 687 353 687 c 256,35,36
 292 687 292 687 240 707 c 128,-1,37
 188 727 188 727 149.5 762.5 c 128,-1,38
 111 798 111 798 89.5 846 c 128,-1,39
 68 894 68 894 68 951 c 256,20,21
EndSplineSet
EndChar

StartChar: numbersign
Encoding: 35 35 79
Width: 1186
Flags: MW
LayerCount: 2
Fore
SplineSet
201 -11 m 1,0,-1
 257 325 l 1,1,-1
 77 325 l 1,2,-1
 77 427 l 1,3,-1
 281 427 l 1,4,-1
 333 729 l 1,5,-1
 77 729 l 1,6,-1
 77 833 l 1,7,-1
 355 833 l 1,8,-1
 418 1169 l 1,9,-1
 534 1169 l 1,10,-1
 472 833 l 1,11,-1
 812 833 l 1,12,-1
 875 1169 l 1,13,-1
 991 1169 l 1,14,-1
 929 833 l 1,15,-1
 1109 833 l 1,16,-1
 1109 729 l 1,17,-1
 906 729 l 1,18,-1
 854 427 l 1,19,-1
 1109 427 l 1,20,-1
 1109 325 l 1,21,-1
 832 325 l 1,22,-1
 772 -11 l 1,23,-1
 657 -11 l 1,24,-1
 714 325 l 1,25,-1
 375 325 l 1,26,-1
 315 -11 l 1,27,-1
 201 -11 l 1,0,-1
397 427 m 1,28,-1
 737 427 l 1,29,-1
 790 729 l 1,30,-1
 448 729 l 1,31,-1
 397 427 l 1,28,-1
EndSplineSet
EndChar

StartChar: currency
Encoding: 164 164 80
Width: 929
Flags: MW
LayerCount: 2
Fore
SplineSet
119 806 m 0,0,1
 119 864 119 864 138 915 c 128,-1,2
 157 966 157 966 192 1007 c 1,3,-1
 112 1088 l 1,4,-1
 181 1157 l 1,5,-1
 267 1071 l 1,6,7
 309 1096 309 1096 358 1110 c 128,-1,8
 407 1124 407 1124 464 1124 c 256,9,10
 521 1124 521 1124 570.5 1109.5 c 128,-1,11
 620 1095 620 1095 662 1069 c 1,12,-1
 750 1157 l 1,13,-1
 819 1088 l 1,14,-1
 736 1005 l 1,15,16
 771 964 771 964 789.5 913.5 c 128,-1,17
 808 863 808 863 808 806 c 0,18,19
 808 746 808 746 788.5 695 c 128,-1,20
 769 644 769 644 734 603 c 1,21,-1
 819 519 l 1,22,-1
 750 451 l 1,23,-1
 660 539 l 1,24,25
 618 513 618 513 569 499.5 c 128,-1,26
 520 486 520 486 464 486 c 256,27,28
 408 486 408 486 359 499.5 c 128,-1,29
 310 513 310 513 269 538 c 1,30,-1
 181 451 l 1,31,-1
 112 519 l 1,32,-1
 194 601 l 1,33,34
 159 642 159 642 139 694 c 128,-1,35
 119 746 119 746 119 806 c 0,0,1
256 806 m 0,36,37
 256 761 256 761 272 723.5 c 128,-1,38
 288 686 288 686 315.5 658.5 c 128,-1,39
 343 631 343 631 381 615.5 c 128,-1,40
 419 600 419 600 464 600 c 0,41,42
 508 600 508 600 546 615.5 c 128,-1,43
 584 631 584 631 611.5 658.5 c 128,-1,44
 639 686 639 686 655 723.5 c 128,-1,45
 671 761 671 761 671 806 c 0,46,47
 671 849 671 849 655 885.5 c 128,-1,48
 639 922 639 922 611.5 949 c 128,-1,49
 584 976 584 976 546 991 c 128,-1,50
 508 1006 508 1006 464 1006 c 0,51,52
 419 1006 419 1006 381 991 c 128,-1,53
 343 976 343 976 315.5 949 c 128,-1,54
 288 922 288 922 272 885.5 c 128,-1,55
 256 849 256 849 256 806 c 0,36,37
EndSplineSet
EndChar

StartChar: plus
Encoding: 43 43 81
Width: 1047
Flags: MW
LayerCount: 2
Fore
SplineSet
990 602 m 1,0,-1
 990 485 l 1,1,-1
 585 485 l 1,2,-1
 585 93 l 1,3,-1
 461 93 l 1,4,-1
 461 485 l 1,5,-1
 57 485 l 1,6,-1
 57 602 l 1,7,-1
 461 602 l 1,8,-1
 461 994 l 1,9,-1
 585 994 l 1,10,-1
 585 602 l 1,11,-1
 990 602 l 1,0,-1
EndSplineSet
EndChar

StartChar: equal
Encoding: 61 61 82
Width: 1152
Flags: MW
LayerCount: 2
Fore
SplineSet
1040 791 m 1,0,-1
 1040 673 l 1,1,-1
 112 673 l 1,2,-1
 112 791 l 1,3,-1
 1040 791 l 1,0,-1
1040 414 m 1,4,-1
 1040 297 l 1,5,-1
 112 297 l 1,6,-1
 112 414 l 1,7,-1
 1040 414 l 1,4,-1
EndSplineSet
EndChar

StartChar: acute
Encoding: 180 180 83
Width: 562
Flags: MW
LayerCount: 2
Fore
SplineSet
125 914 m 1,0,-1
 264 1171 l 1,1,-1
 471 1171 l 1,2,-1
 224 914 l 1,3,-1
 125 914 l 1,0,-1
EndSplineSet
EndChar

StartChar: grave
Encoding: 96 96 84
Width: 562
Flags: MW
LayerCount: 2
Fore
SplineSet
340 914 m 1,0,-1
 92 1171 l 1,1,-1
 299 1171 l 1,2,-1
 439 914 l 1,3,-1
 340 914 l 1,0,-1
EndSplineSet
EndChar

StartChar: circumflex
Encoding: 710 710 85
Width: 593
Flags: MW
LayerCount: 2
Fore
SplineSet
38 912 m 1,0,-1
 196 1167 l 1,1,-1
 391 1167 l 1,2,-1
 555 912 l 1,3,-1
 447 912 l 1,4,-1
 294 1062 l 1,5,-1
 141 912 l 1,6,-1
 38 912 l 1,0,-1
EndSplineSet
EndChar

StartChar: caron
Encoding: 711 711 86
Width: 593
Flags: MW
LayerCount: 2
Fore
SplineSet
145 1171 m 1,0,-1
 299 1017 l 1,1,-1
 451 1171 l 1,2,-1
 555 1171 l 1,3,-1
 396 912 l 1,4,-1
 200 912 l 1,5,-1
 38 1171 l 1,6,-1
 145 1171 l 1,0,-1
EndSplineSet
EndChar

StartChar: breve
Encoding: 728 728 87
Width: 584
Flags: MW
LayerCount: 2
Fore
SplineSet
144 1158 m 1,0,1
 154 1098 154 1098 191.5 1064 c 128,-1,2
 229 1030 229 1030 292 1030 c 0,3,4
 352 1030 352 1030 391.5 1064 c 128,-1,5
 431 1098 431 1098 439 1158 c 1,6,-1
 550 1158 l 1,7,8
 545 1106 545 1106 524.5 1063 c 128,-1,9
 504 1020 504 1020 470 989.5 c 128,-1,10
 436 959 436 959 391 942 c 128,-1,11
 346 925 346 925 292 925 c 256,12,13
 238 925 238 925 192.5 941.5 c 128,-1,14
 147 958 147 958 113.5 989 c 128,-1,15
 80 1020 80 1020 59 1062.5 c 128,-1,16
 38 1105 38 1105 34 1158 c 1,17,-1
 144 1158 l 1,0,1
EndSplineSet
EndChar

StartChar: dotaccent
Encoding: 729 729 88
Width: 535
Flags: MW
LayerCount: 2
Fore
SplineSet
268 1125 m 0,0,1
 287 1125 287 1125 303.5 1118.5 c 128,-1,2
 320 1112 320 1112 332.5 1100 c 128,-1,3
 345 1088 345 1088 352 1072 c 128,-1,4
 359 1056 359 1056 359 1038 c 256,5,6
 359 1020 359 1020 352 1004 c 128,-1,7
 345 988 345 988 332.5 976 c 128,-1,8
 320 964 320 964 303.5 957 c 128,-1,9
 287 950 287 950 268 950 c 256,10,11
 249 950 249 950 232.5 957 c 128,-1,12
 216 964 216 964 203.5 976 c 128,-1,13
 191 988 191 988 184 1004 c 128,-1,14
 177 1020 177 1020 177 1038 c 0,15,16
 177 1075 177 1075 203.5 1100 c 128,-1,17
 230 1125 230 1125 268 1125 c 0,0,1
EndSplineSet
EndChar

StartChar: dieresis
Encoding: 168 168 89
Width: 572
Flags: MW
LayerCount: 2
Fore
SplineSet
437 1127 m 256,0,1
 456 1127 456 1127 473 1120 c 128,-1,2
 490 1113 490 1113 502.5 1101.5 c 128,-1,3
 515 1090 515 1090 522 1074 c 128,-1,4
 529 1058 529 1058 529 1040 c 256,5,6
 529 1022 529 1022 522 1006 c 128,-1,7
 515 990 515 990 502.5 978 c 128,-1,8
 490 966 490 966 473 959.5 c 128,-1,9
 456 953 456 953 437 953 c 0,10,11
 399 953 399 953 373 978 c 128,-1,12
 347 1003 347 1003 347 1040 c 0,13,14
 347 1058 347 1058 354 1074 c 128,-1,15
 361 1090 361 1090 373 1101.5 c 128,-1,16
 385 1113 385 1113 401.5 1120 c 128,-1,17
 418 1127 418 1127 437 1127 c 256,0,1
135 1127 m 0,18,19
 154 1127 154 1127 170.5 1120 c 128,-1,20
 187 1113 187 1113 199 1101.5 c 128,-1,21
 211 1090 211 1090 218 1074 c 128,-1,22
 225 1058 225 1058 225 1040 c 0,23,24
 225 1003 225 1003 199 978 c 128,-1,25
 173 953 173 953 135 953 c 0,26,27
 96 953 96 953 69.5 978 c 128,-1,28
 43 1003 43 1003 43 1040 c 0,29,30
 43 1076 43 1076 69.5 1101.5 c 128,-1,31
 96 1127 96 1127 135 1127 c 0,18,19
EndSplineSet
EndChar

StartChar: ring
Encoding: 730 730 90
Width: 565
Flags: MW
LayerCount: 2
Fore
SplineSet
282 1201 m 256,0,1
 317 1201 317 1201 348 1189 c 128,-1,2
 379 1177 379 1177 402 1155.5 c 128,-1,3
 425 1134 425 1134 438 1105 c 128,-1,4
 451 1076 451 1076 451 1042 c 256,5,6
 451 1008 451 1008 438 978.5 c 128,-1,7
 425 949 425 949 402 927.5 c 128,-1,8
 379 906 379 906 348 893.5 c 128,-1,9
 317 881 317 881 282 881 c 256,10,11
 247 881 247 881 216 893.5 c 128,-1,12
 185 906 185 906 162.5 927.5 c 128,-1,13
 140 949 140 949 127 978.5 c 128,-1,14
 114 1008 114 1008 114 1042 c 256,15,16
 114 1076 114 1076 127 1105 c 128,-1,17
 140 1134 140 1134 162.5 1155.5 c 128,-1,18
 185 1177 185 1177 216 1189 c 128,-1,19
 247 1201 247 1201 282 1201 c 256,0,1
282 1140 m 256,20,21
 260 1140 260 1140 241 1132.5 c 128,-1,22
 222 1125 222 1125 207.5 1112 c 128,-1,23
 193 1099 193 1099 185 1081 c 128,-1,24
 177 1063 177 1063 177 1042 c 256,25,26
 177 1021 177 1021 185 1003 c 128,-1,27
 193 985 193 985 207.5 971.5 c 128,-1,28
 222 958 222 958 241 950.5 c 128,-1,29
 260 943 260 943 282 943 c 256,30,31
 304 943 304 943 323 950.5 c 128,-1,32
 342 958 342 958 356 971.5 c 128,-1,33
 370 985 370 985 378 1003 c 128,-1,34
 386 1021 386 1021 386 1042 c 256,35,36
 386 1063 386 1063 378 1081 c 128,-1,37
 370 1099 370 1099 356 1112 c 128,-1,38
 342 1125 342 1125 323 1132.5 c 128,-1,39
 304 1140 304 1140 282 1140 c 256,20,21
EndSplineSet
EndChar

StartChar: Lslash
Encoding: 321 321 91
Width: 985
Flags: MW
LayerCount: 2
Fore
SplineSet
60 127 m 1,0,-1
 218 127 l 1,1,-1
 218 513 l 1,2,-1
 60 450 l 1,3,-1
 60 579 l 1,4,-1
 218 640 l 1,5,-1
 218 1029 l 1,6,-1
 60 1029 l 1,7,-1
 60 1153 l 1,8,-1
 534 1153 l 1,9,-1
 534 1026 l 1,10,-1
 379 1026 l 1,11,-1
 379 703 l 1,12,-1
 627 805 l 1,13,-1
 627 676 l 1,14,-1
 379 574 l 1,15,-1
 379 127 l 1,16,-1
 789 127 l 1,17,-1
 789 482 l 1,18,-1
 934 482 l 1,19,-1
 934 0 l 1,20,-1
 60 0 l 1,21,-1
 60 127 l 1,0,-1
EndSplineSet
EndChar

StartChar: Oslash
Encoding: 216 216 92
Width: 1320
Flags: MW
LayerCount: 2
Fore
SplineSet
65 575 m 0,0,1
 65 700 65 700 106 809 c 128,-1,2
 147 918 147 918 223.5 998.5 c 128,-1,3
 300 1079 300 1079 410.5 1125 c 128,-1,4
 521 1171 521 1171 659 1171 c 0,5,6
 788 1171 788 1171 893 1130 c 1,7,-1
 947 1235 l 1,8,-1
 1041 1192 l 1,9,-1
 987 1084 l 1,10,11
 1051 1045 1051 1045 1100.5 991 c 128,-1,12
 1150 937 1150 937 1184.5 872 c 128,-1,13
 1219 807 1219 807 1237 732 c 128,-1,14
 1255 657 1255 657 1255 575 c 0,15,16
 1255 451 1255 451 1214 342.5 c 128,-1,17
 1173 234 1173 234 1096 154 c 128,-1,18
 1019 74 1019 74 908.5 27.5 c 128,-1,19
 798 -19 798 -19 659 -19 c 0,20,21
 599 -19 599 -19 545.5 -10.5 c 128,-1,22
 492 -2 492 -2 444 15 c 1,23,-1
 389 -92 l 1,24,-1
 295 -49 l 1,25,-1
 348 57 l 1,26,27
 280 94 280 94 227.5 148 c 128,-1,28
 175 202 175 202 139 269 c 128,-1,29
 103 336 103 336 84 413.5 c 128,-1,30
 65 491 65 491 65 575 c 0,0,1
242 575 m 0,31,32
 242 454 242 454 288 355 c 128,-1,33
 334 256 334 256 418 194 c 1,34,-1
 828 1002 l 1,35,36
 751 1036 751 1036 659 1036 c 0,37,38
 564 1036 564 1036 487.5 1000 c 128,-1,39
 411 964 411 964 356 902 c 128,-1,40
 301 840 301 840 271.5 755.5 c 128,-1,41
 242 671 242 671 242 575 c 0,31,32
1077 575 m 0,42,43
 1077 690 1077 690 1035 787 c 128,-1,44
 993 884 993 884 917 947 c 1,45,-1
 509 144 l 1,46,47
 578 118 578 118 659 118 c 0,48,49
 754 118 754 118 831.5 154 c 128,-1,50
 909 190 909 190 963.5 252 c 128,-1,51
 1018 314 1018 314 1047.5 397 c 128,-1,52
 1077 480 1077 480 1077 575 c 0,42,43
EndSplineSet
EndChar

StartChar: lslash
Encoding: 322 322 93
Width: 511
Flags: MW
LayerCount: 2
Fore
SplineSet
37 123 m 1,0,-1
 189 123 l 1,1,-1
 189 507 l 1,2,-1
 36 450 l 1,3,-1
 36 579 l 1,4,-1
 189 638 l 1,5,-1
 189 1032 l 1,6,-1
 40 1032 l 1,7,-1
 40 1153 l 1,8,-1
 338 1153 l 1,9,-1
 338 696 l 1,10,-1
 472 748 l 1,11,-1
 472 612 l 1,12,-1
 338 562 l 1,13,-1
 338 122 l 1,14,-1
 471 122 l 1,15,-1
 471 0 l 1,16,-1
 37 0 l 1,17,-1
 37 123 l 1,0,-1
EndSplineSet
EndChar

StartChar: oslash
Encoding: 248 248 94
Width: 967
Flags: MW
LayerCount: 2
Fore
SplineSet
483 -23 m 0,0,1
 445 -23 445 -23 410 -17.5 c 128,-1,2
 375 -12 375 -12 343 -2 c 1,3,-1
 279 -126 l 1,4,-1
 185 -83 l 1,5,-1
 248 40 l 1,6,7
 203 68 203 68 167.5 107.5 c 128,-1,8
 132 147 132 147 107.5 193.5 c 128,-1,9
 83 240 83 240 70.5 293 c 128,-1,10
 58 346 58 346 58 402 c 0,11,12
 58 489 58 489 88 566 c 128,-1,13
 118 643 118 643 173.5 701 c 128,-1,14
 229 759 229 759 308 793 c 128,-1,15
 387 827 387 827 485 827 c 0,16,17
 570 827 570 827 638 802 c 1,18,-1
 702 926 l 1,19,-1
 796 883 l 1,20,-1
 731 756 l 1,21,22
 816 698 816 698 863.5 605 c 128,-1,23
 911 512 911 512 911 402 c 0,24,25
 911 315 911 315 881 238 c 128,-1,26
 851 161 851 161 795 103 c 128,-1,27
 739 45 739 45 660 11 c 128,-1,28
 581 -23 581 -23 483 -23 c 0,0,1
217 402 m 0,29,30
 217 330 217 330 242.5 270.5 c 128,-1,31
 268 211 268 211 315 171 c 1,32,-1
 574 677 l 1,33,34
 530 691 530 691 483 691 c 0,35,36
 422 691 422 691 372.5 669 c 128,-1,37
 323 647 323 647 288.5 608 c 128,-1,38
 254 569 254 569 235.5 516 c 128,-1,39
 217 463 217 463 217 402 c 0,29,30
483 114 m 0,40,41
 545 114 545 114 594.5 136 c 128,-1,42
 644 158 644 158 679 197 c 128,-1,43
 714 236 714 236 732.5 288.5 c 128,-1,44
 751 341 751 341 751 402 c 0,45,46
 751 470 751 470 728 527 c 128,-1,47
 705 584 705 584 663 623 c 1,48,-1
 408 123 l 1,49,50
 442 114 442 114 483 114 c 0,40,41
EndSplineSet
EndChar

StartChar: fi
Encoding: 64257 64257 95
Width: 1027
Flags: MW
LayerCount: 2
Fore
SplineSet
576 124 m 1,0,-1
 711 124 l 1,1,-1
 711 685 l 1,2,-1
 631 683 l 1,3,-1
 336 683 l 1,4,-1
 336 122 l 1,5,-1
 498 122 l 1,6,-1
 498 0 l 1,7,-1
 65 0 l 1,8,-1
 65 123 l 1,9,-1
 185 123 l 1,10,-1
 185 683 l 1,11,-1
 56 683 l 1,12,-1
 56 805 l 1,13,-1
 185 805 l 1,14,-1
 185 871 l 2,15,16
 185 896 185 896 185 916.5 c 128,-1,17
 185 937 185 937 186 938 c 1,18,19
 186 1000 186 1000 203 1046.5 c 128,-1,20
 220 1093 220 1093 250.5 1124 c 128,-1,21
 281 1155 281 1155 323.5 1170.5 c 128,-1,22
 366 1186 366 1186 418 1186 c 0,23,24
 494 1186 494 1186 546 1145 c 128,-1,25
 598 1104 598 1104 610 1029 c 1,26,-1
 482 1004 l 1,27,28
 475 1071 475 1071 425 1071 c 0,29,30
 389 1071 389 1071 370 1055 c 128,-1,31
 351 1039 351 1039 343 1006 c 128,-1,32
 335 973 335 973 334.5 923 c 128,-1,33
 334 873 334 873 336 805 c 1,34,-1
 861 805 l 1,35,-1
 861 122 l 1,36,-1
 997 122 l 1,37,-1
 997 0 l 1,38,-1
 576 0 l 1,39,-1
 576 124 l 1,0,-1
693 1067 m 0,40,41
 693 1104 693 1104 719.5 1129.5 c 128,-1,42
 746 1155 746 1155 784 1155 c 0,43,44
 803 1155 803 1155 820 1148 c 128,-1,45
 837 1141 837 1141 849.5 1129 c 128,-1,46
 862 1117 862 1117 869 1101 c 128,-1,47
 876 1085 876 1085 876 1067 c 256,48,49
 876 1049 876 1049 869 1033 c 128,-1,50
 862 1017 862 1017 849.5 1005.5 c 128,-1,51
 837 994 837 994 820 987 c 128,-1,52
 803 980 803 980 784 980 c 256,53,54
 765 980 765 980 748.5 987 c 128,-1,55
 732 994 732 994 719.5 1005.5 c 128,-1,56
 707 1017 707 1017 700 1033 c 128,-1,57
 693 1049 693 1049 693 1067 c 0,40,41
EndSplineSet
EndChar

StartChar: fl
Encoding: 64258 64258 96
Width: 1041
Flags: MW
LayerCount: 2
Fore
SplineSet
65 123 m 1,0,-1
 185 123 l 1,1,-1
 185 683 l 1,2,-1
 56 683 l 1,3,-1
 56 805 l 1,4,-1
 185 805 l 1,5,-1
 186 869 l 1,6,7
 186 958 186 958 203.5 1018.5 c 128,-1,8
 221 1079 221 1079 251.5 1116.5 c 128,-1,9
 282 1154 282 1154 324 1170 c 128,-1,10
 366 1186 366 1186 416 1186 c 0,11,12
 467 1186 467 1186 524 1177.5 c 128,-1,13
 581 1169 581 1169 640.5 1154.5 c 128,-1,14
 700 1140 700 1140 760 1121.5 c 128,-1,15
 820 1103 820 1103 876 1084 c 1,16,-1
 876 122 l 1,17,-1
 1009 122 l 1,18,-1
 1009 0 l 1,19,-1
 575 0 l 1,20,-1
 575 123 l 1,21,-1
 727 123 l 1,22,-1
 727 1032 l 1,23,24
 625 1040 625 1040 557 1046 c 128,-1,25
 489 1052 489 1052 445 1052 c 0,26,27
 412 1052 412 1052 391 1039.5 c 128,-1,28
 370 1027 370 1027 358 998 c 128,-1,29
 346 969 346 969 341 921.5 c 128,-1,30
 336 874 336 874 336 805 c 1,31,-1
 489 805 l 1,32,-1
 489 683 l 1,33,-1
 336 683 l 1,34,-1
 336 122 l 1,35,-1
 498 122 l 1,36,-1
 498 0 l 1,37,-1
 65 0 l 1,38,-1
 65 123 l 1,0,-1
EndSplineSet
EndChar

StartChar: K
Encoding: 75 75 98
Width: 1139
Flags: MW
LayerCount: 2
Fore
SplineSet
655 126 m 1,0,-1
 783 127 l 1,1,-1
 571 366 l 1,2,-1
 374 587 l 1,3,-1
 375 127 l 1,4,-1
 514 126 l 1,5,-1
 514 0 l 1,6,-1
 64 0 l 1,7,-1
 64 125 l 1,8,-1
 214 127 l 1,9,-1
 212 577 l 1,10,-1
 214 1026 l 1,11,-1
 64 1029 l 1,12,-1
 64 1153 l 1,13,-1
 530 1153 l 1,14,-1
 530 1027 l 1,15,-1
 375 1026 l 1,16,-1
 374 618 l 1,17,-1
 583 820 l 1,18,-1
 795 1026 l 1,19,-1
 659 1027 l 1,20,-1
 659 1153 l 1,21,-1
 1110 1153 l 1,22,-1
 1110 1029 l 1,23,-1
 981 1026 l 1,24,-1
 759 803 l 1,25,-1
 560 605 l 1,26,-1
 990 127 l 1,27,-1
 1121 125 l 1,28,-1
 1121 0 l 1,29,-1
 655 0 l 1,30,-1
 655 126 l 1,0,-1
EndSplineSet
EndChar

StartChar: Q
Encoding: 81 81 99
Width: 1323
Flags: MW
LayerCount: 2
Fore
SplineSet
67 575 m 0,0,1
 67 700 67 700 108 809 c 128,-1,2
 149 918 149 918 225.5 998.5 c 128,-1,3
 302 1079 302 1079 412.5 1125 c 128,-1,4
 523 1171 523 1171 661 1171 c 0,5,6
 800 1171 800 1171 910.5 1124.5 c 128,-1,7
 1021 1078 1021 1078 1098 997.5 c 128,-1,8
 1175 917 1175 917 1216 808 c 128,-1,9
 1257 699 1257 699 1257 575 c 0,10,11
 1257 462 1257 462 1220.5 362 c 128,-1,12
 1184 262 1184 262 1115.5 184.5 c 128,-1,13
 1047 107 1047 107 948.5 57.5 c 128,-1,14
 850 8 850 8 726 -5 c 1,15,16
 763 -17 763 -17 799 -31.5 c 128,-1,17
 835 -46 835 -46 871 -58.5 c 128,-1,18
 907 -71 907 -71 944.5 -79.5 c 128,-1,19
 982 -88 982 -88 1021 -88 c 0,20,21
 1051 -88 1051 -88 1080 -80 c 1,22,-1
 1022 -228 l 1,23,24
 1009 -231 1009 -231 996 -232 c 128,-1,25
 983 -233 983 -233 970 -233 c 0,26,27
 934 -233 934 -233 901 -223 c 128,-1,28
 868 -213 868 -213 836.5 -198.5 c 128,-1,29
 805 -184 805 -184 774 -166.5 c 128,-1,30
 743 -149 743 -149 712 -134.5 c 128,-1,31
 681 -120 681 -120 648.5 -110 c 128,-1,32
 616 -100 616 -100 581 -100 c 0,33,34
 520 -100 520 -100 467 -114 c 128,-1,35
 414 -128 414 -128 369 -153 c 1,36,-1
 318 -46 l 1,37,38
 378 -15 378 -15 425.5 -3 c 128,-1,39
 473 9 473 9 513 9 c 1,40,41
 408 33 408 33 325 86 c 128,-1,42
 242 139 242 139 184.5 213 c 128,-1,43
 127 287 127 287 97 379.5 c 128,-1,44
 67 472 67 472 67 575 c 0,0,1
244 575 m 0,45,46
 244 478 244 478 273.5 393.5 c 128,-1,47
 303 309 303 309 358 247 c 128,-1,48
 413 185 413 185 489.5 149 c 128,-1,49
 566 113 566 113 661 113 c 256,50,51
 756 113 756 113 833.5 149 c 128,-1,52
 911 185 911 185 965.5 247 c 128,-1,53
 1020 309 1020 309 1049.5 393.5 c 128,-1,54
 1079 478 1079 478 1079 575 c 0,55,56
 1079 671 1079 671 1049.5 755.5 c 128,-1,57
 1020 840 1020 840 965.5 902 c 128,-1,58
 911 964 911 964 833.5 1000 c 128,-1,59
 756 1036 756 1036 661 1036 c 256,60,61
 566 1036 566 1036 489.5 1000 c 128,-1,62
 413 964 413 964 358 902 c 128,-1,63
 303 840 303 840 273.5 755.5 c 128,-1,64
 244 671 244 671 244 575 c 0,45,46
EndSplineSet
EndChar

StartChar: at
Encoding: 64 64 100
Width: 1674
Flags: MW
LayerCount: 2
Fore
SplineSet
889 -348 m 0,0,1
 686 -348 686 -348 531.5 -290.5 c 128,-1,2
 377 -233 377 -233 273 -131 c 128,-1,3
 169 -29 169 -29 116 111 c 128,-1,4
 63 251 63 251 63 415 c 0,5,6
 63 507 63 507 82.5 605 c 128,-1,7
 102 703 102 703 143.5 797 c 128,-1,8
 185 891 185 891 250 975.5 c 128,-1,9
 315 1060 315 1060 405.5 1123.5 c 128,-1,10
 496 1187 496 1187 613 1224 c 128,-1,11
 730 1261 730 1261 877 1261 c 0,12,13
 1048 1261 1048 1261 1179.5 1206 c 128,-1,14
 1311 1151 1311 1151 1400 1059 c 128,-1,15
 1489 967 1489 967 1534.5 848 c 128,-1,16
 1580 729 1580 729 1580 601 c 0,17,18
 1580 521 1580 521 1560.5 445 c 128,-1,19
 1541 369 1541 369 1507 302 c 128,-1,20
 1473 235 1473 235 1426 179 c 128,-1,21
 1379 123 1379 123 1324 82.5 c 128,-1,22
 1269 42 1269 42 1208.5 19.5 c 128,-1,23
 1148 -3 1148 -3 1086 -3 c 0,24,25
 1045 -3 1045 -3 1015.5 9 c 128,-1,26
 986 21 986 21 972 50 c 1,27,28
 960 65 960 65 953 85.5 c 128,-1,29
 946 106 946 106 946 135 c 2,30,-1
 946 145 l 1,31,32
 944 143 944 143 942 141 c 128,-1,33
 940 139 940 139 938 137 c 0,34,35
 879 69 879 69 811 34 c 128,-1,36
 743 -1 743 -1 673 -1 c 0,37,38
 607 -1 607 -1 550.5 27.5 c 128,-1,39
 494 56 494 56 453 106.5 c 128,-1,40
 412 157 412 157 388.5 226.5 c 128,-1,41
 365 296 365 296 365 378 c 0,42,43
 365 442 365 442 380.5 507.5 c 128,-1,44
 396 573 396 573 424.5 633 c 128,-1,45
 453 693 453 693 493 745 c 128,-1,46
 533 797 533 797 582.5 836 c 128,-1,47
 632 875 632 875 689 897 c 128,-1,48
 746 919 746 919 809 919 c 0,49,50
 975 919 975 919 1069 759 c 1,51,-1
 1099 897 l 1,52,-1
 1238 897 l 1,53,-1
 1089 205 l 1,54,55
 1085 193 1085 193 1085 181 c 0,56,57
 1085 154 1085 154 1099.5 138 c 128,-1,58
 1114 122 1114 122 1138 122 c 0,59,60
 1161 122 1161 122 1195 136 c 128,-1,61
 1229 150 1229 150 1266 177 c 128,-1,62
 1303 204 1303 204 1340 245 c 128,-1,63
 1377 286 1377 286 1406 339 c 128,-1,64
 1435 392 1435 392 1453.5 458 c 128,-1,65
 1472 524 1472 524 1472 602 c 0,66,67
 1472 708 1472 708 1433 807 c 128,-1,68
 1394 906 1394 906 1318 982 c 128,-1,69
 1242 1058 1242 1058 1130 1103.5 c 128,-1,70
 1018 1149 1018 1149 871 1149 c 0,71,72
 719 1149 719 1149 590.5 1095 c 128,-1,73
 462 1041 462 1041 368.5 944 c 128,-1,74
 275 847 275 847 222.5 714 c 128,-1,75
 170 581 170 581 170 423 c 0,76,77
 170 275 170 275 217 153 c 128,-1,78
 264 31 264 31 355.5 -56 c 128,-1,79
 447 -143 447 -143 581 -191 c 128,-1,80
 715 -239 715 -239 889 -239 c 0,81,82
 1082 -239 1082 -239 1234 -175 c 128,-1,83
 1386 -111 1386 -111 1485 23 c 1,84,-1
 1620 23 l 1,85,86
 1566 -62 1566 -62 1495.5 -130.5 c 128,-1,87
 1425 -199 1425 -199 1335 -247.5 c 128,-1,88
 1245 -296 1245 -296 1134 -322 c 128,-1,89
 1023 -348 1023 -348 889 -348 c 0,0,1
1023 563 m 0,90,91
 1023 618 1023 618 1008 663 c 128,-1,92
 993 708 993 708 966 740 c 128,-1,93
 939 772 939 772 901 790 c 128,-1,94
 863 808 863 808 817 808 c 0,95,96
 763 808 763 808 719 785 c 128,-1,97
 675 762 675 762 641 725 c 128,-1,98
 607 688 607 688 581.5 640.5 c 128,-1,99
 556 593 556 593 540 544 c 128,-1,100
 524 495 524 495 516 448 c 128,-1,101
 508 401 508 401 508 366 c 0,102,103
 508 312 508 312 523 265.5 c 128,-1,104
 538 219 538 219 564 185 c 128,-1,105
 590 151 590 151 626.5 131.5 c 128,-1,106
 663 112 663 112 705 112 c 0,107,108
 770 112 770 112 828 153 c 128,-1,109
 886 194 886 194 929.5 259 c 128,-1,110
 973 324 973 324 998 404 c 128,-1,111
 1023 484 1023 484 1023 563 c 0,90,91
EndSplineSet
EndChar

StartChar: comma
Encoding: 44 44 101
Width: 414
Flags: MW
LayerCount: 2
Fore
SplineSet
101 212 m 1,0,-1
 313 212 l 1,1,-1
 313 0 l 2,2,3
 313 -57 313 -57 302 -101.5 c 128,-1,4
 291 -146 291 -146 266 -176 c 128,-1,5
 241 -206 241 -206 200.5 -221.5 c 128,-1,6
 160 -237 160 -237 101 -237 c 1,7,-1
 101 -150 l 1,8,9
 129 -143 129 -143 149.5 -132.5 c 128,-1,10
 170 -122 170 -122 182.5 -104.5 c 128,-1,11
 195 -87 195 -87 201 -61.5 c 128,-1,12
 207 -36 207 -36 207 0 c 1,13,-1
 101 0 l 1,14,-1
 101 212 l 1,0,-1
EndSplineSet
EndChar

StartChar: hyphen
Encoding: 45 45 102
Width: 719
Flags: MW
LayerCount: 2
Fore
SplineSet
101 484 m 1,0,-1
 618 484 l 1,1,-1
 618 340 l 1,2,-1
 101 340 l 1,3,-1
 101 484 l 1,0,-1
EndSplineSet
EndChar

StartChar: asterisk
Encoding: 42 42 103
Width: 916
Flags: MW
LayerCount: 2
Fore
SplineSet
291 458 m 1,0,-1
 162 550 l 1,1,-1
 250 671 l 1,2,-1
 410 807 l 1,3,-1
 199 820 l 1,4,-1
 60 869 l 1,5,-1
 106 1020 l 1,6,-1
 250 974 l 1,7,-1
 435 857 l 1,8,-1
 380 1069 l 1,9,-1
 380 1215 l 1,10,-1
 536 1215 l 1,11,-1
 536 1069 l 1,12,-1
 481 857 l 1,13,-1
 666 974 l 1,14,-1
 810 1020 l 1,15,-1
 856 869 l 1,16,-1
 717 820 l 1,17,-1
 506 807 l 1,18,-1
 666 671 l 1,19,-1
 754 550 l 1,20,-1
 625 458 l 1,21,-1
 536 580 l 1,22,-1
 458 778 l 1,23,-1
 380 580 l 1,24,-1
 291 458 l 1,0,-1
EndSplineSet
EndChar

StartChar: dollar
Encoding: 36 36 104
Width: 940
Flags: MW
LayerCount: 2
Fore
SplineSet
411 -9 m 1,0,1
 339 -5 339 -5 275 19 c 128,-1,2
 211 43 211 43 163 87.5 c 128,-1,3
 115 132 115 132 87.5 198.5 c 128,-1,4
 60 265 60 265 60 354 c 1,5,-1
 209 354 l 1,6,7
 217 247 217 247 264.5 192 c 128,-1,8
 312 137 312 137 411 121 c 1,9,-1
 411 538 l 1,10,11
 341 556 341 556 282.5 583 c 128,-1,12
 224 610 224 610 181.5 647.5 c 128,-1,13
 139 685 139 685 115.5 735 c 128,-1,14
 92 785 92 785 92 849 c 0,15,16
 92 987 92 987 175 1071.5 c 128,-1,17
 258 1156 258 1156 411 1170 c 1,18,-1
 411 1293 l 1,19,-1
 542 1293 l 1,20,-1
 542 1170 l 1,21,22
 607 1163 607 1163 660.5 1139.5 c 128,-1,23
 714 1116 714 1116 752 1075 c 128,-1,24
 790 1034 790 1034 811 975.5 c 128,-1,25
 832 917 832 917 832 840 c 0,26,27
 832 829 832 829 832 819.5 c 128,-1,28
 832 810 832 810 830 798 c 1,29,-1
 698 798 l 1,30,31
 698 907 698 907 663 962.5 c 128,-1,32
 628 1018 628 1018 542 1035 c 1,33,-1
 542 642 l 1,34,35
 615 624 615 624 677 600.5 c 128,-1,36
 739 577 739 577 784 540.5 c 128,-1,37
 829 504 829 504 854.5 451 c 128,-1,38
 880 398 880 398 880 321 c 0,39,40
 880 178 880 178 792 92 c 128,-1,41
 704 6 704 6 542 -9 c 1,42,-1
 542 -151 l 1,43,-1
 411 -151 l 1,44,-1
 411 -9 l 1,0,1
411 1043 m 1,45,46
 326 1029 326 1029 279 980.5 c 128,-1,47
 232 932 232 932 232 857 c 0,48,49
 232 820 232 820 242 792 c 128,-1,50
 252 764 252 764 274 742.5 c 128,-1,51
 296 721 296 721 329.5 705 c 128,-1,52
 363 689 363 689 411 676 c 1,53,-1
 411 1043 l 1,45,46
542 123 m 1,54,55
 645 140 645 140 694.5 185 c 128,-1,56
 744 230 744 230 744 307 c 0,57,58
 744 350 744 350 733 382 c 128,-1,59
 722 414 722 414 698 437.5 c 128,-1,60
 674 461 674 461 635.5 478 c 128,-1,61
 597 495 597 495 542 507 c 1,62,-1
 542 123 l 1,54,55
EndSplineSet
EndChar

StartChar: percent
Encoding: 37 37 105
Width: 1579
Flags: MW
LayerCount: 2
Fore
SplineSet
1523 284 m 256,0,1
 1523 213 1523 213 1505.5 155.5 c 128,-1,2
 1488 98 1488 98 1455 57.5 c 128,-1,3
 1422 17 1422 17 1375.5 -5 c 128,-1,4
 1329 -27 1329 -27 1272 -27 c 256,5,6
 1215 -27 1215 -27 1168.5 -5 c 128,-1,7
 1122 17 1122 17 1090 57.5 c 128,-1,8
 1058 98 1058 98 1040.5 155.5 c 128,-1,9
 1023 213 1023 213 1023 284 c 256,10,11
 1023 355 1023 355 1040.5 412.5 c 128,-1,12
 1058 470 1058 470 1090 510.5 c 128,-1,13
 1122 551 1122 551 1168.5 573 c 128,-1,14
 1215 595 1215 595 1272 595 c 256,15,16
 1329 595 1329 595 1375.5 573 c 128,-1,17
 1422 551 1422 551 1455 510.5 c 128,-1,18
 1488 470 1488 470 1505.5 412.5 c 128,-1,19
 1523 355 1523 355 1523 284 c 256,0,1
1383 284 m 0,20,21
 1383 387 1383 387 1355.5 436.5 c 128,-1,22
 1328 486 1328 486 1272 486 c 0,23,24
 1215 486 1215 486 1188 436.5 c 128,-1,25
 1161 387 1161 387 1161 284 c 0,26,27
 1161 180 1161 180 1188 130.5 c 128,-1,28
 1215 81 1215 81 1272 81 c 0,29,30
 1328 81 1328 81 1355.5 130.5 c 128,-1,31
 1383 180 1383 180 1383 284 c 0,20,21
556 902 m 256,32,33
 556 831 556 831 538 774 c 128,-1,34
 520 717 520 717 487.5 676.5 c 128,-1,35
 455 636 455 636 409 614 c 128,-1,36
 363 592 363 592 306 592 c 256,37,38
 249 592 249 592 202.5 614 c 128,-1,39
 156 636 156 636 123.5 676.5 c 128,-1,40
 91 717 91 717 73.5 774 c 128,-1,41
 56 831 56 831 56 902 c 256,42,43
 56 973 56 973 73.5 1030.5 c 128,-1,44
 91 1088 91 1088 123.5 1128.5 c 128,-1,45
 156 1169 156 1169 202.5 1191 c 128,-1,46
 249 1213 249 1213 306 1213 c 256,47,48
 363 1213 363 1213 409 1191 c 128,-1,49
 455 1169 455 1169 487.5 1128.5 c 128,-1,50
 520 1088 520 1088 538 1030.5 c 128,-1,51
 556 973 556 973 556 902 c 256,32,33
417 902 m 0,52,53
 417 1005 417 1005 389.5 1054.5 c 128,-1,54
 362 1104 362 1104 306 1104 c 0,55,56
 249 1104 249 1104 222 1054.5 c 128,-1,57
 195 1005 195 1005 195 902 c 256,58,59
 195 799 195 799 222 749 c 128,-1,60
 249 699 249 699 306 699 c 0,61,62
 417 699 417 699 417 902 c 0,52,53
1203 1196 m 1,63,-1
 1324 1196 l 1,64,-1
 381 0 l 1,65,-1
 253 0 l 1,66,-1
 1203 1196 l 1,63,-1
EndSplineSet
EndChar

StartChar: ampersand
Encoding: 38 38 106
Width: 1201
Flags: MW
LayerCount: 2
Fore
SplineSet
797 115 m 1,0,1
 716 46 716 46 637.5 13.5 c 128,-1,2
 559 -19 559 -19 471 -19 c 0,3,4
 382 -19 382 -19 306 11 c 128,-1,5
 230 41 230 41 174.5 93.5 c 128,-1,6
 119 146 119 146 87.5 218.5 c 128,-1,7
 56 291 56 291 56 375 c 0,8,9
 56 501 56 501 129.5 589 c 128,-1,10
 203 677 203 677 342 735 c 1,11,12
 296 796 296 796 270.5 848.5 c 128,-1,13
 245 901 245 901 245 956 c 0,14,15
 245 1010 245 1010 267.5 1057.5 c 128,-1,16
 290 1105 290 1105 329 1140 c 128,-1,17
 368 1175 368 1175 420.5 1195 c 128,-1,18
 473 1215 473 1215 533 1215 c 0,19,20
 592 1215 592 1215 643 1196 c 128,-1,21
 694 1177 694 1177 732 1143 c 128,-1,22
 770 1109 770 1109 791.5 1063.5 c 128,-1,23
 813 1018 813 1018 813 965 c 0,24,25
 813 920 813 920 798.5 881.5 c 128,-1,26
 784 843 784 843 752 808.5 c 128,-1,27
 720 774 720 774 669 743.5 c 128,-1,28
 618 713 618 713 546 686 c 1,29,-1
 806 332 l 1,30,31
 844 393 844 393 870.5 464 c 128,-1,32
 897 535 897 535 913 623 c 1,33,-1
 1143 623 l 1,34,-1
 1143 496 l 1,35,-1
 1014 496 l 1,36,37
 988 404 988 404 958 339.5 c 128,-1,38
 928 275 928 275 886 223 c 1,39,-1
 959 128 l 1,40,-1
 1143 128 l 1,41,-1
 1143 0 l 1,42,-1
 883 0 l 1,43,-1
 797 115 l 1,0,1
418 638 m 1,44,45
 315 595 315 595 262.5 532.5 c 128,-1,46
 210 470 210 470 210 385 c 0,47,48
 210 333 210 333 230.5 284 c 128,-1,49
 251 235 251 235 287.5 196.5 c 128,-1,50
 324 158 324 158 375 135 c 128,-1,51
 426 112 426 112 487 112 c 0,52,53
 614 112 614 112 720 219 c 1,54,-1
 418 638 l 1,44,45
474 785 m 1,55,56
 579 827 579 827 629 868.5 c 128,-1,57
 679 910 679 910 679 967 c 0,58,59
 679 1025 679 1025 637.5 1057.5 c 128,-1,60
 596 1090 596 1090 533 1090 c 0,61,62
 468 1090 468 1090 426.5 1056.5 c 128,-1,63
 385 1023 385 1023 385 963 c 0,64,65
 385 946 385 946 390.5 927.5 c 128,-1,66
 396 909 396 909 407.5 888 c 128,-1,67
 419 867 419 867 435.5 841.5 c 128,-1,68
 452 816 452 816 474 785 c 1,55,56
EndSplineSet
EndChar

StartChar: quotesingle
Encoding: 39 39 107
Width: 337
Flags: MW
LayerCount: 2
Fore
SplineSet
98 990 m 1,0,-1
 98 1196 l 1,1,-1
 239 1196 l 1,2,-1
 239 990 l 1,3,-1
 215 746 l 1,4,-1
 123 746 l 1,5,-1
 98 990 l 1,0,-1
EndSplineSet
EndChar

StartChar: quotedbl
Encoding: 34 34 108
Width: 665
Flags: MW
LayerCount: 2
Fore
SplineSet
97 990 m 1,0,-1
 97 1196 l 1,1,-1
 238 1196 l 1,2,-1
 238 990 l 1,3,-1
 213 746 l 1,4,-1
 122 746 l 1,5,-1
 97 990 l 1,0,-1
426 990 m 1,6,-1
 426 1196 l 1,7,-1
 567 1196 l 1,8,-1
 567 990 l 1,9,-1
 542 746 l 1,10,-1
 450 746 l 1,11,-1
 426 990 l 1,6,-1
EndSplineSet
EndChar

StartChar: four
Encoding: 52 52 109
Width: 875
Flags: HMW
LayerCount: 2
Fore
SplineSet
326 119 m 1,0,-1
 492 127 l 1,1,-1
 492 318 l 1,2,-1
 87 318 l 1,3,-1
 17 431 l 1,4,-1
 493.5 1152.29980469 l 1,5,-1
 626.5 1152.29980469 l 1,6,-1
 627 432 l 1,7,-1
 819 432 l 1,8,-1
 819 318 l 1,9,-1
 627 318 l 1,10,-1
 627 127 l 1,11,-1
 778 119 l 1,12,-1
 778 0 l 1,13,-1
 326 0 l 1,14,-1
 326 119 l 1,0,-1
492 922 m 1,15,-1
 479 922 l 1,16,-1
 163 432 l 1,17,-1
 492 432 l 1,18,-1
 492 922 l 1,15,-1
EndSplineSet
EndChar

StartChar: semicolon
Encoding: 59 59 110
Width: 414
Flags: MW
LayerCount: 2
Fore
SplineSet
101 212 m 1,0,-1
 313 212 l 1,1,-1
 313 0 l 2,2,3
 313 -57 313 -57 302 -101.5 c 128,-1,4
 291 -146 291 -146 266 -176 c 128,-1,5
 241 -206 241 -206 200.5 -221.5 c 128,-1,6
 160 -237 160 -237 101 -237 c 1,7,-1
 101 -150 l 1,8,9
 129 -143 129 -143 149.5 -132.5 c 128,-1,10
 170 -122 170 -122 182.5 -104.5 c 128,-1,11
 195 -87 195 -87 201 -61.5 c 128,-1,12
 207 -36 207 -36 207 0 c 1,13,-1
 101 0 l 1,14,-1
 101 212 l 1,0,-1
101 832 m 1,15,-1
 313 832 l 1,16,-1
 313 620 l 1,17,-1
 101 620 l 1,18,-1
 101 832 l 1,15,-1
EndSplineSet
EndChar

StartChar: greater
Encoding: 62 62 111
Width: 1108
Flags: MW
LayerCount: 2
Fore
SplineSet
117 891 m 1,0,-1
 117 1019 l 1,1,-1
 1053 625 l 1,2,-1
 1053 518 l 1,3,-1
 117 124 l 1,4,-1
 117 252 l 1,5,-1
 896 572 l 1,6,-1
 117 891 l 1,0,-1
EndSplineSet
EndChar

StartChar: question
Encoding: 63 63 112
Width: 796
Flags: MW
LayerCount: 2
Fore
SplineSet
319 323 m 1,0,1
 319 331 319 331 318.5 338.5 c 128,-1,2
 318 346 318 346 318 354 c 0,3,4
 318 439 318 439 330 498 c 128,-1,5
 342 557 342 557 361.5 598 c 128,-1,6
 381 639 381 639 406 665 c 128,-1,7
 431 691 431 691 457.5 710.5 c 128,-1,8
 484 730 484 730 509 746.5 c 128,-1,9
 534 763 534 763 553.5 784.5 c 128,-1,10
 573 806 573 806 585 836 c 128,-1,11
 597 866 597 866 597 912 c 0,12,13
 597 953 597 953 581.5 986.5 c 128,-1,14
 566 1020 566 1020 539.5 1044 c 128,-1,15
 513 1068 513 1068 477 1081 c 128,-1,16
 441 1094 441 1094 401 1094 c 0,17,18
 301 1094 301 1094 245 1035 c 128,-1,19
 189 976 189 976 189 865 c 2,20,-1
 189 855 l 2,21,22
 189 852 189 852 190 849 c 1,23,-1
 56 849 l 1,24,25
 55 855 55 855 54.5 860.5 c 128,-1,26
 54 866 54 866 54 872 c 0,27,28
 54 965 54 965 84.5 1030.5 c 128,-1,29
 115 1096 115 1096 163.5 1137 c 128,-1,30
 212 1178 212 1178 274 1196.5 c 128,-1,31
 336 1215 336 1215 399 1215 c 0,32,33
 470 1215 470 1215 532 1193.5 c 128,-1,34
 594 1172 594 1172 639.5 1132.5 c 128,-1,35
 685 1093 685 1093 711.5 1037 c 128,-1,36
 738 981 738 981 738 912 c 0,37,38
 738 851 738 851 724.5 810 c 128,-1,39
 711 769 711 769 689 740 c 128,-1,40
 667 711 667 711 638 690 c 128,-1,41
 609 669 609 669 579 647.5 c 128,-1,42
 549 626 549 626 519 601.5 c 128,-1,43
 489 577 489 577 465 540 c 128,-1,44
 441 503 441 503 424.5 451 c 128,-1,45
 408 399 408 399 404 323 c 1,46,-1
 319 323 l 1,0,1
452 0 m 1,47,-1
 280 0 l 1,48,-1
 280 197 l 1,49,-1
 452 197 l 1,50,-1
 452 0 l 1,47,-1
EndSplineSet
EndChar

StartChar: hungarumlaut
Encoding: 733 733 113
Width: 587
Flags: MW
LayerCount: 2
Fore
SplineSet
277 942 m 1,0,-1
 417 1214 l 1,1,-1
 607 1214 l 1,2,-1
 372 942 l 1,3,-1
 277 942 l 1,0,-1
15 942 m 1,4,-1
 156 1214 l 1,5,-1
 346 1214 l 1,6,-1
 111 942 l 1,7,-1
 15 942 l 1,4,-1
EndSplineSet
EndChar

StartChar: ogonek
Encoding: 731 731 114
Width: 587
Flags: MW
LayerCount: 2
Fore
SplineSet
311 0 m 1,0,1
 285 -36 285 -36 275.5 -65 c 128,-1,2
 266 -94 266 -94 266 -126 c 0,3,4
 266 -179 266 -179 291 -206 c 128,-1,5
 316 -233 316 -233 364 -233 c 0,6,7
 387 -233 387 -233 407 -228.5 c 128,-1,8
 427 -224 427 -224 451 -213 c 1,9,-1
 451 -316 l 1,10,11
 410 -336 410 -336 381 -344.5 c 128,-1,12
 352 -353 352 -353 317 -353 c 0,13,14
 278 -353 278 -353 245 -340 c 128,-1,15
 212 -327 212 -327 188 -304 c 128,-1,16
 164 -281 164 -281 150.5 -248.5 c 128,-1,17
 137 -216 137 -216 137 -177 c 0,18,19
 137 -157 137 -157 140 -138 c 128,-1,20
 143 -119 143 -119 149.5 -98 c 128,-1,21
 156 -77 156 -77 167.5 -53 c 128,-1,22
 179 -29 179 -29 197 0 c 1,23,-1
 311 0 l 1,0,1
EndSplineSet
EndChar

StartChar: Euro
Encoding: 8364 8364 115
Width: 1027
Flags: MW
LayerCount: 2
Fore
SplineSet
593 -19 m 0,0,1
 497 -19 497 -19 424.5 13 c 128,-1,2
 352 45 352 45 300.5 103.5 c 128,-1,3
 249 162 249 162 217.5 245 c 128,-1,4
 186 328 186 328 174 430 c 1,5,-1
 59 430 l 1,6,-1
 59 544 l 1,7,-1
 165 544 l 1,8,9
 165 546 165 546 165 554 c 128,-1,10
 165 562 165 562 164.5 570.5 c 128,-1,11
 164 579 164 579 164 586.5 c 128,-1,12
 164 594 164 594 164 596 c 0,13,14
 164 616 164 616 164 631.5 c 128,-1,15
 164 647 164 647 166 658 c 1,16,-1
 59 658 l 1,17,-1
 59 771 l 1,18,-1
 174 771 l 1,19,20
 186 870 186 870 216 951.5 c 128,-1,21
 246 1033 246 1033 296.5 1091.5 c 128,-1,22
 347 1150 347 1150 418.5 1182 c 128,-1,23
 490 1214 490 1214 584 1214 c 0,24,25
 656 1214 656 1214 710 1188 c 128,-1,26
 764 1162 764 1162 799 1111 c 1,27,-1
 799 1203 l 1,28,-1
 928 1203 l 1,29,-1
 928 866 l 1,30,-1
 799 866 l 1,31,32
 791 917 791 917 772 959 c 128,-1,33
 753 1001 753 1001 725 1031.5 c 128,-1,34
 697 1062 697 1062 661.5 1078.5 c 128,-1,35
 626 1095 626 1095 585 1095 c 0,36,37
 523 1095 523 1095 477 1070.5 c 128,-1,38
 431 1046 431 1046 399 1003 c 128,-1,39
 367 960 367 960 348 900.5 c 128,-1,40
 329 841 329 841 321 771 c 1,41,-1
 647 771 l 1,42,-1
 647 658 l 1,43,-1
 312 658 l 1,44,-1
 312 544 l 1,45,-1
 647 544 l 1,46,-1
 647 430 l 1,47,-1
 323 430 l 1,48,49
 332 361 332 361 353 301 c 128,-1,50
 374 241 374 241 407.5 197.5 c 128,-1,51
 441 154 441 154 488 129 c 128,-1,52
 535 104 535 104 598 104 c 0,53,54
 640 104 640 104 675 122 c 128,-1,55
 710 140 710 140 737.5 171 c 128,-1,56
 765 202 765 202 786 243.5 c 128,-1,57
 807 285 807 285 821 333 c 1,58,-1
 950 275 l 1,59,60
 933 210 933 210 902 156 c 128,-1,61
 871 102 871 102 826.5 63 c 128,-1,62
 782 24 782 24 723.5 2.5 c 128,-1,63
 665 -19 665 -19 593 -19 c 0,0,1
EndSplineSet
EndChar

StartChar: quotesinglbase
Encoding: 8218 8218 116
Width: 389
Flags: MW
LayerCount: 2
Fore
SplineSet
110 197 m 1,0,-1
 282 197 l 1,1,-1
 282 -9 l 2,2,3
 282 -61 282 -61 272.5 -102 c 128,-1,4
 263 -143 263 -143 242 -172 c 128,-1,5
 221 -201 221 -201 187 -216.5 c 128,-1,6
 153 -232 153 -232 104 -233 c 1,7,-1
 104 -152 l 1,8,9
 129 -148 129 -148 146 -138 c 128,-1,10
 163 -128 163 -128 173.5 -110.5 c 128,-1,11
 184 -93 184 -93 189 -66 c 128,-1,12
 194 -39 194 -39 195 0 c 1,13,-1
 110 0 l 1,14,-1
 110 197 l 1,0,-1
EndSplineSet
EndChar

StartChar: florin
Encoding: 402 402 117
Width: 420
Flags: MW
LayerCount: 2
Fore
SplineSet
-205 -231 m 1,0,1
 -161 -242 -161 -242 -132 -246 c 128,-1,2
 -103 -250 -103 -250 -77 -250 c 0,3,4
 -22 -250 -22 -250 3.5 -221 c 128,-1,5
 29 -192 29 -192 40 -132 c 2,6,-1
 216 806 l 1,7,-1
 54 806 l 1,8,-1
 72 913 l 1,9,-1
 235 913 l 1,10,-1
 263 1047 l 1,11,12
 274 1105 274 1105 292 1149.5 c 128,-1,13
 310 1194 310 1194 338.5 1223 c 128,-1,14
 367 1252 367 1252 407 1267 c 128,-1,15
 447 1282 447 1282 502 1282 c 0,16,17
 539 1282 539 1282 582 1274.5 c 128,-1,18
 625 1267 625 1267 676 1250 c 1,19,-1
 651 1133 l 1,20,21
 605 1144 605 1144 575.5 1148 c 128,-1,22
 546 1152 546 1152 518 1152 c 0,23,24
 494 1152 494 1152 475.5 1146.5 c 128,-1,25
 457 1141 457 1141 443.5 1127 c 128,-1,26
 430 1113 430 1113 420.5 1089.5 c 128,-1,27
 411 1066 411 1066 404 1029 c 1,28,-1
 377 913 l 1,29,-1
 557 913 l 1,30,-1
 538 806 l 1,31,-1
 356 806 l 1,32,-1
 175 -149 l 2,33,34
 164 -209 164 -209 145.5 -251.5 c 128,-1,35
 127 -294 127 -294 99.5 -321 c 128,-1,36
 72 -348 72 -348 34.5 -360.5 c 128,-1,37
 -3 -373 -3 -373 -53 -373 c 0,38,39
 -128 -373 -128 -373 -232 -351 c 1,40,-1
 -205 -231 l 1,0,1
EndSplineSet
EndChar

StartChar: quotedblbase
Encoding: 8222 8222 118
Width: 785
Flags: MW
LayerCount: 2
Fore
SplineSet
506 197 m 1,0,-1
 678 197 l 1,1,-1
 678 -9 l 2,2,3
 678 -61 678 -61 669 -102 c 128,-1,4
 660 -143 660 -143 639 -172 c 128,-1,5
 618 -201 618 -201 584 -216.5 c 128,-1,6
 550 -232 550 -232 501 -233 c 1,7,-1
 501 -152 l 1,8,9
 526 -148 526 -148 543 -138 c 128,-1,10
 560 -128 560 -128 570.5 -110.5 c 128,-1,11
 581 -93 581 -93 585.5 -66 c 128,-1,12
 590 -39 590 -39 590 0 c 1,13,-1
 506 0 l 1,14,-1
 506 197 l 1,0,-1
110 197 m 1,15,-1
 282 197 l 1,16,-1
 282 -9 l 2,17,18
 282 -61 282 -61 272.5 -102 c 128,-1,19
 263 -143 263 -143 242 -172 c 128,-1,20
 221 -201 221 -201 187 -216.5 c 128,-1,21
 153 -232 153 -232 104 -233 c 1,22,-1
 104 -152 l 1,23,24
 129 -148 129 -148 146.5 -138 c 128,-1,25
 164 -128 164 -128 174.5 -110.5 c 128,-1,26
 185 -93 185 -93 189.5 -66 c 128,-1,27
 194 -39 194 -39 195 0 c 1,28,-1
 110 0 l 1,29,-1
 110 197 l 1,15,-1
EndSplineSet
EndChar

StartChar: quoteleft
Encoding: 8216 8216 119
Width: 382
Flags: MW
LayerCount: 2
Fore
SplineSet
276 765 m 1,0,-1
 104 765 l 1,1,-1
 104 971 l 2,2,3
 104 1023 104 1023 113.5 1064.5 c 128,-1,4
 123 1106 123 1106 144 1135 c 128,-1,5
 165 1164 165 1164 199 1179.5 c 128,-1,6
 233 1195 233 1195 282 1196 c 1,7,-1
 282 1115 l 1,8,9
 257 1110 257 1110 240 1100.5 c 128,-1,10
 223 1091 223 1091 212.5 1073.5 c 128,-1,11
 202 1056 202 1056 197 1029 c 128,-1,12
 192 1002 192 1002 192 963 c 1,13,-1
 276 963 l 1,14,-1
 276 765 l 1,0,-1
EndSplineSet
EndChar

StartChar: quoteright
Encoding: 8217 8217 120
Width: 364
Flags: MW
LayerCount: 2
Fore
SplineSet
108 1196 m 1,0,-1
 280 1196 l 1,1,-1
 280 991 l 2,2,3
 280 886 280 886 240 826.5 c 128,-1,4
 200 767 200 767 102 765 c 1,5,-1
 102 847 l 1,6,7
 127 851 127 851 144 861 c 128,-1,8
 161 871 161 871 171.5 888.5 c 128,-1,9
 182 906 182 906 187 933 c 128,-1,10
 192 960 192 960 193 999 c 1,11,-1
 108 999 l 1,12,-1
 108 1196 l 1,0,-1
EndSplineSet
EndChar

StartChar: quotedblleft
Encoding: 8220 8220 121
Width: 720
Flags: MW
LayerCount: 2
Fore
SplineSet
616 963 m 1,0,-1
 616 765 l 1,1,-1
 444 765 l 1,2,-1
 444 971 l 2,3,4
 444 1023 444 1023 453 1064.5 c 128,-1,5
 462 1106 462 1106 483 1135 c 128,-1,6
 504 1164 504 1164 538 1179.5 c 128,-1,7
 572 1195 572 1195 621 1196 c 1,8,-1
 621 1115 l 1,9,10
 596 1110 596 1110 579 1100.5 c 128,-1,11
 562 1091 562 1091 551.5 1073.5 c 128,-1,12
 541 1056 541 1056 536.5 1029 c 128,-1,13
 532 1002 532 1002 532 963 c 1,14,-1
 616 963 l 1,0,-1
277 963 m 1,15,-1
 277 765 l 1,16,-1
 105 765 l 1,17,-1
 105 971 l 2,18,19
 105 1023 105 1023 114 1064.5 c 128,-1,20
 123 1106 123 1106 144 1135 c 128,-1,21
 165 1164 165 1164 199 1179.5 c 128,-1,22
 233 1195 233 1195 282 1196 c 1,23,-1
 282 1115 l 1,24,25
 257 1110 257 1110 240.5 1100.5 c 128,-1,26
 224 1091 224 1091 213.5 1073.5 c 128,-1,27
 203 1056 203 1056 198 1029 c 128,-1,28
 193 1002 193 1002 193 963 c 1,29,-1
 277 963 l 1,15,-1
EndSplineSet
EndChar

StartChar: quotedblright
Encoding: 8221 8221 122
Width: 704
Flags: MW
LayerCount: 2
Fore
SplineSet
448 999 m 1,0,-1
 448 1196 l 1,1,-1
 620 1196 l 1,2,-1
 620 991 l 2,3,4
 620 938 620 938 610.5 897 c 128,-1,5
 601 856 601 856 580 827 c 128,-1,6
 559 798 559 798 525 782 c 128,-1,7
 491 766 491 766 442 765 c 1,8,-1
 442 847 l 1,9,10
 467 851 467 851 484 861 c 128,-1,11
 501 871 501 871 511.5 888.5 c 128,-1,12
 522 906 522 906 527 933 c 128,-1,13
 532 960 532 960 532 999 c 1,14,-1
 448 999 l 1,0,-1
109 999 m 1,15,-1
 109 1196 l 1,16,-1
 281 1196 l 1,17,-1
 281 991 l 2,18,19
 281 938 281 938 272 897 c 128,-1,20
 263 856 263 856 242 827 c 128,-1,21
 221 798 221 798 187 782 c 128,-1,22
 153 766 153 766 104 765 c 1,23,-1
 104 847 l 1,24,25
 129 851 129 851 146 861 c 128,-1,26
 163 871 163 871 173.5 888.5 c 128,-1,27
 184 906 184 906 189 933 c 128,-1,28
 194 960 194 960 194 999 c 1,29,-1
 109 999 l 1,15,-1
EndSplineSet
EndChar

StartChar: guilsinglleft
Encoding: 8249 8249 123
Width: 534
Flags: MW
LayerCount: 2
Fore
SplineSet
468 0 m 1,0,-1
 325 0 l 1,1,-1
 61 418 l 1,2,-1
 325 837 l 1,3,-1
 468 837 l 1,4,-1
 210 418 l 1,5,-1
 468 0 l 1,0,-1
EndSplineSet
EndChar

StartChar: tilde
Encoding: 732 732 124
Width: 587
Flags: MW
LayerCount: 2
Fore
SplineSet
9 980 m 1,0,1
 13 1035 13 1035 27 1074.5 c 128,-1,2
 41 1114 41 1114 62 1139.5 c 128,-1,3
 83 1165 83 1165 109.5 1177 c 128,-1,4
 136 1189 136 1189 165 1189 c 0,5,6
 200 1189 200 1189 235 1173.5 c 128,-1,7
 270 1158 270 1158 303 1139 c 128,-1,8
 336 1120 336 1120 366.5 1104.5 c 128,-1,9
 397 1089 397 1089 423 1089 c 0,10,11
 485 1089 485 1089 500 1184 c 1,12,-1
 578 1184 l 1,13,14
 571 1086 571 1086 530 1028.5 c 128,-1,15
 489 971 489 971 419 971 c 0,16,17
 380 971 380 971 344.5 987 c 128,-1,18
 309 1003 309 1003 276 1021.5 c 128,-1,19
 243 1040 243 1040 213.5 1056 c 128,-1,20
 184 1072 184 1072 157 1072 c 0,21,22
 125 1072 125 1072 110 1048.5 c 128,-1,23
 95 1025 95 1025 89 980 c 1,24,-1
 9 980 l 1,0,1
EndSplineSet
EndChar

StartChar: trademark
Encoding: 8482 8482 125
Width: 1547
Flags: MW
LayerCount: 2
Fore
SplineSet
655 1196 m 1,0,-1
 655 1101 l 1,1,-1
 428 1101 l 1,2,-1
 428 494 l 1,3,-1
 321 494 l 1,4,-1
 321 1101 l 1,5,-1
 92 1101 l 1,6,-1
 92 1196 l 1,7,-1
 655 1196 l 1,0,-1
895 1196 m 1,8,-1
 1070 635 l 1,9,-1
 1073 635 l 1,10,-1
 1245 1196 l 1,11,-1
 1404 1196 l 1,12,-1
 1404 494 l 1,13,-1
 1307 494 l 1,14,-1
 1307 1095 l 1,15,-1
 1304 1095 l 1,16,-1
 1115 494 l 1,17,-1
 1025 494 l 1,18,-1
 838 1095 l 1,19,-1
 834 1095 l 1,20,-1
 834 494 l 1,21,-1
 736 494 l 1,22,-1
 736 1196 l 1,23,-1
 895 1196 l 1,8,-1
EndSplineSet
EndChar

StartChar: guilsinglright
Encoding: 8250 8250 126
Width: 533
Flags: MW
LayerCount: 2
Fore
SplineSet
65 837 m 1,0,-1
 208 837 l 1,1,-1
 472 418 l 1,2,-1
 208 0 l 1,3,-1
 65 0 l 1,4,-1
 323 418 l 1,5,-1
 65 837 l 1,0,-1
EndSplineSet
EndChar

StartChar: cent
Encoding: 162 162 127
Width: 918
Flags: MW
LayerCount: 2
Fore
SplineSet
286 19 m 1,0,1
 234 46 234 46 191.5 86 c 128,-1,2
 149 126 149 126 118.5 177 c 128,-1,3
 88 228 88 228 71.5 289 c 128,-1,4
 55 350 55 350 55 418 c 0,5,6
 55 512 55 512 88 591.5 c 128,-1,7
 121 671 121 671 176 729 c 128,-1,8
 231 787 231 787 303 819.5 c 128,-1,9
 375 852 375 852 453 852 c 0,10,11
 500 852 500 852 548 839 c 1,12,-1
 665 1209 l 1,13,-1
 748 1209 l 1,14,-1
 620 815 l 1,15,16
 646 806 646 806 666 792.5 c 128,-1,17
 686 779 686 779 706 759 c 1,18,-1
 706 832 l 1,19,-1
 829 832 l 1,20,-1
 829 517 l 1,21,-1
 706 517 l 1,22,23
 698 583 698 583 670 627 c 128,-1,24
 642 671 642 671 583 697 c 1,25,-1
 395 117 l 1,26,27
 416 110 416 110 438 107.5 c 128,-1,28
 460 105 460 105 480 105 c 0,29,30
 562 105 562 105 631 148 c 128,-1,31
 700 191 700 191 742 279 c 1,32,-1
 856 225 l 1,33,34
 830 163 830 163 791 116.5 c 128,-1,35
 752 70 752 70 703 38.5 c 128,-1,36
 654 7 654 7 597.5 -9 c 128,-1,37
 541 -25 541 -25 479 -25 c 0,38,39
 416 -25 416 -25 356 -9 c 1,40,-1
 238 -378 l 1,41,-1
 156 -378 l 1,42,-1
 286 19 l 1,0,1
509 719 m 1,43,44
 497 721 497 721 486 721.5 c 128,-1,45
 475 722 475 722 464 722 c 0,46,47
 405 722 405 722 357 699 c 128,-1,48
 309 676 309 676 274.5 636 c 128,-1,49
 240 596 240 596 221 540.5 c 128,-1,50
 202 485 202 485 202 421 c 0,51,52
 202 374 202 374 210.5 336 c 128,-1,53
 219 298 219 298 235.5 266.5 c 128,-1,54
 252 235 252 235 276.5 208 c 128,-1,55
 301 181 301 181 333 157 c 1,56,-1
 509 719 l 1,43,44
EndSplineSet
EndChar

StartChar: sterling
Encoding: 163 163 128
Width: 993
Flags: MW
LayerCount: 2
Fore
SplineSet
98 646 m 1,0,-1
 309 646 l 1,1,2
 292 679 292 679 277.5 717.5 c 128,-1,3
 263 756 263 756 252.5 794 c 128,-1,4
 242 832 242 832 236 868 c 128,-1,5
 230 904 230 904 230 932 c 0,6,7
 230 999 230 999 253 1051.5 c 128,-1,8
 276 1104 276 1104 317.5 1140 c 128,-1,9
 359 1176 359 1176 416 1195 c 128,-1,10
 473 1214 473 1214 542 1214 c 0,11,12
 618 1214 618 1214 677 1192 c 128,-1,13
 736 1170 736 1170 776 1128.5 c 128,-1,14
 816 1087 816 1087 836.5 1027.5 c 128,-1,15
 857 968 857 968 857 893 c 1,16,-1
 718 893 l 1,17,18
 722 908 722 908 722 934 c 1,19,20
 720 964 720 964 709.5 993 c 128,-1,21
 699 1022 699 1022 679 1044.5 c 128,-1,22
 659 1067 659 1067 627 1081 c 128,-1,23
 595 1095 595 1095 549 1095 c 0,24,25
 470 1095 470 1095 421.5 1056 c 128,-1,26
 373 1017 373 1017 373 941 c 0,27,28
 373 912 373 912 380.5 876 c 128,-1,29
 388 840 388 840 400 801.5 c 128,-1,30
 412 763 412 763 427.5 723 c 128,-1,31
 443 683 443 683 459 646 c 1,32,-1
 678 646 l 1,33,-1
 678 559 l 1,34,-1
 494 559 l 1,35,36
 505 516 505 516 510 473 c 128,-1,37
 515 430 515 430 515 388 c 0,38,39
 515 343 515 343 509 298.5 c 128,-1,40
 503 254 503 254 492 215 c 1,41,42
 520 198 520 198 546.5 181.5 c 128,-1,43
 573 165 573 165 598.5 152 c 128,-1,44
 624 139 624 139 649.5 131.5 c 128,-1,45
 675 124 675 124 701 124 c 0,46,47
 769 124 769 124 802.5 166.5 c 128,-1,48
 836 209 836 209 841 290 c 1,49,-1
 934 290 l 1,50,51
 934 215 934 215 917 157.5 c 128,-1,52
 900 100 900 100 869 61 c 128,-1,53
 838 22 838 22 795.5 1.5 c 128,-1,54
 753 -19 753 -19 701 -19 c 0,55,56
 665 -19 665 -19 633.5 -10.5 c 128,-1,57
 602 -2 602 -2 571 13 c 128,-1,58
 540 28 540 28 509 49.5 c 128,-1,59
 478 71 478 71 444 98 c 1,60,61
 408 45 408 45 361.5 13 c 128,-1,62
 315 -19 315 -19 255 -19 c 0,63,64
 204 -19 204 -19 167.5 -4.5 c 128,-1,65
 131 10 131 10 107 33.5 c 128,-1,66
 83 57 83 57 71.5 87.5 c 128,-1,67
 60 118 60 118 60 150 c 0,68,69
 60 185 60 185 72.5 218.5 c 128,-1,70
 85 252 85 252 109 278.5 c 128,-1,71
 133 305 133 305 168 321.5 c 128,-1,72
 203 338 203 338 248 338 c 0,73,74
 288 338 288 338 323.5 326 c 128,-1,75
 359 314 359 314 396 291 c 1,76,77
 397 300 397 300 397 309 c 128,-1,78
 397 318 397 318 397 327 c 0,79,80
 397 388 397 388 386 443.5 c 128,-1,81
 375 499 375 499 352 559 c 1,82,-1
 98 559 l 1,83,-1
 98 646 l 1,0,-1
370 157 m 1,84,85
 328 205 328 205 296.5 226 c 128,-1,86
 265 247 265 247 234 247 c 0,87,88
 217 247 217 247 204 238.5 c 128,-1,89
 191 230 191 230 181.5 216.5 c 128,-1,90
 172 203 172 203 167 186 c 128,-1,91
 162 169 162 169 162 151 c 0,92,93
 162 118 162 118 182 91.5 c 128,-1,94
 202 65 202 65 247 65 c 0,95,96
 284 65 284 65 312.5 87 c 128,-1,97
 341 109 341 109 370 157 c 1,84,85
EndSplineSet
EndChar

StartChar: fraction
Encoding: 8260 8260 129
Width: 895
Flags: MW
LayerCount: 2
Fore
SplineSet
862 1196 m 1,0,-1
 951 1196 l 1,1,-1
 40 0 l 1,2,-1
 -50 0 l 1,3,-1
 862 1196 l 1,0,-1
EndSplineSet
EndChar

StartChar: section
Encoding: 167 167 130
Width: 877
Flags: MW
LayerCount: 2
Fore
SplineSet
261 -12 m 1,0,1
 263 -100 263 -100 315 -149.5 c 128,-1,2
 367 -199 367 -199 458 -199 c 0,3,4
 501 -199 501 -199 535.5 -188 c 128,-1,5
 570 -177 570 -177 594.5 -157 c 128,-1,6
 619 -137 619 -137 632 -109.5 c 128,-1,7
 645 -82 645 -82 645 -50 c 0,8,9
 645 -7 645 -7 620 24 c 128,-1,10
 595 55 595 55 554.5 79 c 128,-1,11
 514 103 514 103 462 122.5 c 128,-1,12
 410 142 410 142 356 163 c 128,-1,13
 302 184 302 184 250 208.5 c 128,-1,14
 198 233 198 233 157.5 266.5 c 128,-1,15
 117 300 117 300 92 345.5 c 128,-1,16
 67 391 67 391 67 453 c 0,17,18
 67 526 67 526 106.5 586 c 128,-1,19
 146 646 146 646 232 703 c 1,20,21
 167 742 167 742 132.5 802 c 128,-1,22
 98 862 98 862 98 935 c 0,23,24
 98 993 98 993 122 1044 c 128,-1,25
 146 1095 146 1095 189 1133.5 c 128,-1,26
 232 1172 232 1172 291 1194 c 128,-1,27
 350 1216 350 1216 419 1216 c 0,28,29
 485 1216 485 1216 545.5 1198.5 c 128,-1,30
 606 1181 606 1181 652 1143.5 c 128,-1,31
 698 1106 698 1106 725.5 1048 c 128,-1,32
 753 990 753 990 755 909 c 1,33,-1
 620 909 l 1,34,35
 613 1003 613 1003 557 1048 c 128,-1,36
 501 1093 501 1093 413 1093 c 0,37,38
 374 1093 374 1093 341 1082.5 c 128,-1,39
 308 1072 308 1072 284 1053 c 128,-1,40
 260 1034 260 1034 246.5 1007.5 c 128,-1,41
 233 981 233 981 233 949 c 0,42,43
 233 904 233 904 257.5 872 c 128,-1,44
 282 840 282 840 322.5 815 c 128,-1,45
 363 790 363 790 415 770 c 128,-1,46
 467 750 467 750 521 729 c 128,-1,47
 575 708 575 708 626.5 684 c 128,-1,48
 678 660 678 660 718.5 626.5 c 128,-1,49
 759 593 759 593 784 548 c 128,-1,50
 809 503 809 503 809 441 c 0,51,52
 809 365 809 365 767.5 302 c 128,-1,53
 726 239 726 239 645 188 c 1,54,55
 710 150 710 150 745 91.5 c 128,-1,56
 780 33 780 33 780 -38 c 0,57,58
 780 -102 780 -102 756 -155 c 128,-1,59
 732 -208 732 -208 689 -246 c 128,-1,60
 646 -284 646 -284 586.5 -305 c 128,-1,61
 527 -326 527 -326 455 -326 c 0,62,63
 377 -326 377 -326 315.5 -302.5 c 128,-1,64
 254 -279 254 -279 211.5 -237 c 128,-1,65
 169 -195 169 -195 147 -137.5 c 128,-1,66
 125 -80 125 -80 125 -12 c 1,67,-1
 261 -12 l 1,0,1
553 236 m 1,68,69
 616 270 616 270 648.5 314.5 c 128,-1,70
 681 359 681 359 681 409 c 0,71,72
 681 461 681 461 649 494 c 128,-1,73
 617 527 617 527 565.5 551.5 c 128,-1,74
 514 576 514 576 448.5 599 c 128,-1,75
 383 622 383 622 317 654 c 1,76,77
 252 614 252 614 224 575 c 128,-1,78
 196 536 196 536 196 487 c 0,79,80
 196 435 196 435 226.5 402 c 128,-1,81
 257 369 257 369 307.5 343.5 c 128,-1,82
 358 318 358 318 422 294 c 128,-1,83
 486 270 486 270 553 236 c 1,68,69
EndSplineSet
EndChar

StartChar: guillemotleft
Encoding: 171 171 131
Width: 904
Flags: MW
LayerCount: 2
Fore
SplineSet
838 0 m 1,0,-1
 696 0 l 1,1,-1
 431 418 l 1,2,-1
 696 837 l 1,3,-1
 838 837 l 1,4,-1
 581 418 l 1,5,-1
 838 0 l 1,0,-1
468 0 m 1,6,-1
 325 0 l 1,7,-1
 62 418 l 1,8,-1
 325 837 l 1,9,-1
 468 837 l 1,10,-1
 210 418 l 1,11,-1
 468 0 l 1,6,-1
EndSplineSet
EndChar

StartChar: logicalnot
Encoding: 172 172 132
Width: 1113
Flags: MW
LayerCount: 2
Fore
SplineSet
993 842 m 1,0,-1
 993 304 l 1,1,-1
 876 304 l 1,2,-1
 876 724 l 1,3,-1
 56 724 l 1,4,-1
 56 842 l 1,5,-1
 993 842 l 1,0,-1
EndSplineSet
EndChar

StartChar: plusminus
Encoding: 177 177 133
Width: 1119
Flags: MW
LayerCount: 2
Fore
SplineSet
1028 80 m 1,0,-1
 1028 -39 l 1,1,-1
 91 -39 l 1,2,-1
 91 80 l 1,3,-1
 1028 80 l 1,0,-1
1028 775 m 1,4,-1
 1028 656 l 1,5,-1
 617 656 l 1,6,-1
 617 247 l 1,7,-1
 502 247 l 1,8,-1
 502 656 l 1,9,-1
 91 656 l 1,10,-1
 91 775 l 1,11,-1
 502 775 l 1,12,-1
 502 1183 l 1,13,-1
 617 1183 l 1,14,-1
 617 775 l 1,15,-1
 1028 775 l 1,4,-1
EndSplineSet
EndChar

StartChar: registered
Encoding: 174 174 134
Width: 1429
Flags: MW
LayerCount: 2
Fore
SplineSet
736 969 m 2,0,1
 796 969 796 969 840.5 953.5 c 128,-1,2
 885 938 885 938 914.5 912 c 128,-1,3
 944 886 944 886 958 852.5 c 128,-1,4
 972 819 972 819 972 782 c 0,5,6
 972 742 972 742 957.5 707.5 c 128,-1,7
 943 673 943 673 916 647 c 128,-1,8
 889 621 889 621 852 605 c 128,-1,9
 815 589 815 589 770 587 c 1,10,-1
 770 584 l 1,11,12
 812 569 812 569 844 538.5 c 128,-1,13
 876 508 876 508 908 457 c 0,14,15
 911 452 911 452 925.5 426.5 c 128,-1,16
 940 401 940 401 958 370 c 128,-1,17
 976 339 976 339 991.5 310.5 c 128,-1,18
 1007 282 1007 282 1012 273 c 1,19,-1
 885 273 l 1,20,21
 839 369 839 369 805.5 428 c 128,-1,22
 772 487 772 487 741 519 c 128,-1,23
 710 551 710 551 677 561.5 c 128,-1,24
 644 572 644 572 600 572 c 2,25,-1
 542 572 l 1,26,-1
 542 273 l 1,27,-1
 437 273 l 1,28,-1
 437 969 l 1,29,-1
 736 969 l 2,0,1
687 660 m 2,30,31
 859 660 859 660 859 773 c 0,32,33
 859 825 859 825 822.5 853 c 128,-1,34
 786 881 786 881 699 881 c 2,35,-1
 542 881 l 1,36,-1
 542 660 l 1,37,-1
 687 660 l 2,30,31
715 1282 m 0,38,39
 805 1282 805 1282 888.5 1259 c 128,-1,40
 972 1236 972 1236 1044 1193.5 c 128,-1,41
 1116 1151 1116 1151 1176 1092 c 128,-1,42
 1236 1033 1236 1033 1278 960.5 c 128,-1,43
 1320 888 1320 888 1343.5 804.5 c 128,-1,44
 1367 721 1367 721 1367 631 c 256,45,46
 1367 541 1367 541 1343.5 457.5 c 128,-1,47
 1320 374 1320 374 1278 302 c 128,-1,48
 1236 230 1236 230 1176 170 c 128,-1,49
 1116 110 1116 110 1044 68 c 128,-1,50
 972 26 972 26 888.5 2.5 c 128,-1,51
 805 -21 805 -21 715 -21 c 256,52,53
 625 -21 625 -21 541.5 2.5 c 128,-1,54
 458 26 458 26 385.5 68 c 128,-1,55
 313 110 313 110 253.5 170 c 128,-1,56
 194 230 194 230 151.5 302 c 128,-1,57
 109 374 109 374 86 457.5 c 128,-1,58
 63 541 63 541 63 631 c 0,59,60
 63 766 63 766 114 885 c 128,-1,61
 165 1004 165 1004 253.5 1092 c 128,-1,62
 342 1180 342 1180 461 1231 c 128,-1,63
 580 1282 580 1282 715 1282 c 0,38,39
714 79 m 256,64,65
 828 79 828 79 929 122.5 c 128,-1,66
 1030 166 1030 166 1105 241 c 128,-1,67
 1180 316 1180 316 1223.5 416.5 c 128,-1,68
 1267 517 1267 517 1267 631 c 256,69,70
 1267 745 1267 745 1223.5 845.5 c 128,-1,71
 1180 946 1180 946 1105 1021 c 128,-1,72
 1030 1096 1030 1096 929 1139 c 128,-1,73
 828 1182 828 1182 714 1182 c 256,74,75
 600 1182 600 1182 499.5 1139 c 128,-1,76
 399 1096 399 1096 324 1021 c 128,-1,77
 249 946 249 946 205.5 845.5 c 128,-1,78
 162 745 162 745 162 631 c 256,79,80
 162 517 162 517 205.5 416.5 c 128,-1,81
 249 316 249 316 324 241 c 128,-1,82
 399 166 399 166 499.5 122.5 c 128,-1,83
 600 79 600 79 714 79 c 256,64,65
EndSplineSet
EndChar

StartChar: macron
Encoding: 175 175 135
Width: 587
Flags: MW
LayerCount: 2
Fore
SplineSet
31 1115 m 1,0,-1
 556 1115 l 1,1,-1
 556 1035 l 1,2,-1
 31 1035 l 1,3,-1
 31 1115 l 1,0,-1
EndSplineSet
EndChar

StartChar: degree
Encoding: 176 176 136
Width: 653
Flags: MW
LayerCount: 2
Fore
SplineSet
327 1130 m 0,0,1
 289 1130 289 1130 257.5 1116.5 c 128,-1,2
 226 1103 226 1103 203.5 1079.5 c 128,-1,3
 181 1056 181 1056 168 1025 c 128,-1,4
 155 994 155 994 155 958 c 0,5,6
 155 923 155 923 168 891.5 c 128,-1,7
 181 860 181 860 203.5 837 c 128,-1,8
 226 814 226 814 257.5 800.5 c 128,-1,9
 289 787 289 787 327 787 c 0,10,11
 362 787 362 787 393 800 c 128,-1,12
 424 813 424 813 447.5 835.5 c 128,-1,13
 471 858 471 858 484.5 889.5 c 128,-1,14
 498 921 498 921 498 958 c 0,15,16
 498 990 498 990 486.5 1021 c 128,-1,17
 475 1052 475 1052 453 1076 c 128,-1,18
 431 1100 431 1100 399 1115 c 128,-1,19
 367 1130 367 1130 327 1130 c 0,0,1
327 1216 m 256,20,21
 381 1216 381 1216 428 1196 c 128,-1,22
 475 1176 475 1176 510 1140.5 c 128,-1,23
 545 1105 545 1105 565 1058 c 128,-1,24
 585 1011 585 1011 585 957 c 256,25,26
 585 903 585 903 565 856 c 128,-1,27
 545 809 545 809 510 774 c 128,-1,28
 475 739 475 739 428 718.5 c 128,-1,29
 381 698 381 698 327 698 c 256,30,31
 273 698 273 698 226 718.5 c 128,-1,32
 179 739 179 739 144 774 c 128,-1,33
 109 809 109 809 88.5 856 c 128,-1,34
 68 903 68 903 68 957 c 256,35,36
 68 1011 68 1011 88.5 1058 c 128,-1,37
 109 1105 109 1105 144 1140.5 c 128,-1,38
 179 1176 179 1176 226 1196 c 128,-1,39
 273 1216 273 1216 327 1216 c 256,20,21
EndSplineSet
EndChar

StartChar: mu
Encoding: 181 181 137
AltUni2: 0003bc.ffffffff.0
Width: 925
Flags: MW
LayerCount: 2
Fore
SplineSet
268 832 m 1,0,-1
 268 415 l 2,1,2
 268 335 268 335 283.5 276 c 128,-1,3
 299 217 299 217 327.5 178.5 c 128,-1,4
 356 140 356 140 395.5 121.5 c 128,-1,5
 435 103 435 103 483 103 c 0,6,7
 528 103 528 103 568.5 120 c 128,-1,8
 609 137 609 137 639 172.5 c 128,-1,9
 669 208 669 208 687 263.5 c 128,-1,10
 705 319 705 319 705 396 c 2,11,-1
 705 832 l 1,12,-1
 835 832 l 1,13,-1
 835 0 l 1,14,-1
 715 0 l 1,15,-1
 715 106 l 1,16,-1
 711 106 l 1,17,18
 665 38 665 38 613 8.5 c 128,-1,19
 561 -21 561 -21 487 -21 c 0,20,21
 452 -21 452 -21 423 -15 c 128,-1,22
 394 -9 394 -9 368.5 5 c 128,-1,23
 343 19 343 19 319.5 41 c 128,-1,24
 296 63 296 63 272 95 c 1,25,-1
 268 95 l 1,26,-1
 268 -373 l 1,27,-1
 138 -373 l 1,28,-1
 138 832 l 1,29,-1
 268 832 l 1,0,-1
EndSplineSet
EndChar

StartChar: paragraph
Encoding: 182 182 138
Width: 1096
Flags: MW
LayerCount: 2
Fore
SplineSet
1020 1056 m 1,0,-1
 882 1056 l 1,1,-1
 882 -373 l 1,2,-1
 747 -373 l 1,3,-1
 747 1056 l 1,4,-1
 546 1056 l 1,5,-1
 546 -373 l 1,6,-1
 411 -373 l 1,7,-1
 411 478 l 1,8,9
 325 481 325 481 258 509.5 c 128,-1,10
 191 538 191 538 144.5 585.5 c 128,-1,11
 98 633 98 633 74 697 c 128,-1,12
 50 761 50 761 50 836 c 0,13,14
 50 910 50 910 75 975.5 c 128,-1,15
 100 1041 100 1041 150 1090 c 128,-1,16
 200 1139 200 1139 275 1167.5 c 128,-1,17
 350 1196 350 1196 451 1196 c 2,18,-1
 1020 1196 l 1,19,-1
 1020 1056 l 1,0,-1
EndSplineSet
EndChar

StartChar: periodcentered
Encoding: 183 183 139
Width: 374
Flags: MW
LayerCount: 2
Fore
SplineSet
101 679 m 1,0,-1
 273 679 l 1,1,-1
 273 482 l 1,2,-1
 101 482 l 1,3,-1
 101 679 l 1,0,-1
EndSplineSet
EndChar

StartChar: cedilla
Encoding: 184 184 140
Width: 587
Flags: MW
LayerCount: 2
Fore
SplineSet
168 -282 m 1,0,1
 173 -283 173 -283 178 -283 c 128,-1,2
 183 -283 183 -283 188 -283 c 0,3,4
 217 -283 217 -283 241.5 -279.5 c 128,-1,5
 266 -276 266 -276 284 -268 c 128,-1,6
 302 -260 302 -260 312 -246.5 c 128,-1,7
 322 -233 322 -233 322 -213 c 0,8,9
 322 -160 322 -160 239 -154 c 1,10,-1
 266 5 l 1,11,-1
 338 5 l 1,12,-1
 327 -69 l 1,13,14
 379 -79 379 -79 408 -114.5 c 128,-1,15
 437 -150 437 -150 437 -204 c 0,16,17
 437 -275 437 -275 381.5 -318 c 128,-1,18
 326 -361 326 -361 217 -361 c 2,19,-1
 168 -361 l 1,20,-1
 168 -282 l 1,0,1
EndSplineSet
EndChar

StartChar: guillemotright
Encoding: 187 187 141
Width: 905
Flags: MW
LayerCount: 2
Fore
SplineSet
437 837 m 1,0,-1
 580 837 l 1,1,-1
 843 418 l 1,2,-1
 580 0 l 1,3,-1
 437 0 l 1,4,-1
 694 418 l 1,5,-1
 437 837 l 1,0,-1
66 837 m 1,6,-1
 209 837 l 1,7,-1
 473 418 l 1,8,-1
 209 0 l 1,9,-1
 66 0 l 1,10,-1
 323 418 l 1,11,-1
 66 837 l 1,6,-1
EndSplineSet
EndChar

StartChar: germandbls
Encoding: 223 223 142
Width: 1082
Flags: MW
LayerCount: 2
Fore
SplineSet
443 125 m 1,0,-1
 443 0 l 1,1,-1
 22 0 l 1,2,-1
 22 125 l 1,3,-1
 172 125 l 1,4,-1
 172 814 l 2,5,6
 172 910 172 910 195 985 c 128,-1,7
 218 1060 218 1060 265.5 1112 c 128,-1,8
 313 1164 313 1164 385 1191.5 c 128,-1,9
 457 1219 457 1219 556 1219 c 0,10,11
 637 1219 637 1219 703 1198 c 128,-1,12
 769 1177 769 1177 816 1138.5 c 128,-1,13
 863 1100 863 1100 889 1046.5 c 128,-1,14
 915 993 915 993 915 927 c 0,15,16
 915 844 915 844 875 784.5 c 128,-1,17
 835 725 835 725 758 692 c 1,18,-1
 758 689 l 1,19,20
 821 676 821 676 870.5 646 c 128,-1,21
 920 616 920 616 954.5 572 c 128,-1,22
 989 528 989 528 1007 470.5 c 128,-1,23
 1025 413 1025 413 1025 346 c 0,24,25
 1025 266 1025 266 1001 199.5 c 128,-1,26
 977 133 977 133 933.5 86 c 128,-1,27
 890 39 890 39 829.5 13 c 128,-1,28
 769 -13 769 -13 696 -13 c 0,29,30
 658 -13 658 -13 625.5 -6.5 c 128,-1,31
 593 0 593 0 563 14 c 1,32,-1
 563 133 l 1,33,34
 587 119 587 119 615 114.5 c 128,-1,35
 643 110 643 110 669 110 c 0,36,37
 711 110 711 110 749.5 125.5 c 128,-1,38
 788 141 788 141 816.5 171 c 128,-1,39
 845 201 845 201 862 245 c 128,-1,40
 879 289 879 289 879 346 c 0,41,42
 879 402 879 402 862.5 451.5 c 128,-1,43
 846 501 846 501 809 537.5 c 128,-1,44
 772 574 772 574 711.5 595.5 c 128,-1,45
 651 617 651 617 563 617 c 1,46,-1
 563 733 l 1,47,48
 620 733 620 733 660 749 c 128,-1,49
 700 765 700 765 725 791 c 128,-1,50
 750 817 750 817 761 850 c 128,-1,51
 772 883 772 883 772 917 c 0,52,53
 772 957 772 957 756.5 990 c 128,-1,54
 741 1023 741 1023 713 1046.5 c 128,-1,55
 685 1070 685 1070 645 1083 c 128,-1,56
 605 1096 605 1096 556 1096 c 0,57,58
 501 1096 501 1096 456 1081 c 128,-1,59
 411 1066 411 1066 379 1033 c 128,-1,60
 347 1000 347 1000 329.5 947 c 128,-1,61
 312 894 312 894 312 818 c 2,62,-1
 312 125 l 1,63,-1
 443 125 l 1,0,-1
EndSplineSet
EndChar

StartChar: partialdiff
Encoding: 8706 8706 143
Width: 913
Flags: MW
LayerCount: 2
Fore
SplineSet
120 1241 m 1,0,1
 141 1257 141 1257 168 1274 c 128,-1,2
 195 1291 195 1291 230 1305 c 128,-1,3
 265 1319 265 1319 308 1327.5 c 128,-1,4
 351 1336 351 1336 403 1336 c 0,5,6
 486 1336 486 1336 563.5 1297 c 128,-1,7
 641 1258 641 1258 701 1178 c 128,-1,8
 761 1098 761 1098 797 976.5 c 128,-1,9
 833 855 833 855 833 691 c 0,10,11
 833 542 833 542 804.5 413.5 c 128,-1,12
 776 285 776 285 720.5 190.5 c 128,-1,13
 665 96 665 96 582 42.5 c 128,-1,14
 499 -11 499 -11 390 -11 c 0,15,16
 306 -11 306 -11 244.5 23.5 c 128,-1,17
 183 58 183 58 142.5 113.5 c 128,-1,18
 102 169 102 169 82 239.5 c 128,-1,19
 62 310 62 310 62 382 c 0,20,21
 62 482 62 482 92 562 c 128,-1,22
 122 642 122 642 172 698.5 c 128,-1,23
 222 755 222 755 287.5 785.5 c 128,-1,24
 353 816 353 816 424 816 c 0,25,26
 484 816 484 816 532 797.5 c 128,-1,27
 580 779 580 779 615.5 753.5 c 128,-1,28
 651 728 651 728 674 700.5 c 128,-1,29
 697 673 697 673 706 654 c 1,30,-1
 708 654 l 1,31,32
 710 668 710 668 710.5 690 c 128,-1,33
 711 712 711 712 711 728 c 0,34,35
 711 840 711 840 685.5 932.5 c 128,-1,36
 660 1025 660 1025 616 1090.5 c 128,-1,37
 572 1156 572 1156 514 1192 c 128,-1,38
 456 1228 456 1228 390 1228 c 0,39,40
 351 1228 351 1228 317 1220.5 c 128,-1,41
 283 1213 283 1213 255 1201.5 c 128,-1,42
 227 1190 227 1190 204.5 1175.5 c 128,-1,43
 182 1161 182 1161 164 1147 c 1,44,-1
 120 1241 l 1,0,1
402 96 m 2,45,46
 463 96 463 96 513 132 c 128,-1,47
 563 168 563 168 600 227.5 c 128,-1,48
 637 287 637 287 660.5 364.5 c 128,-1,49
 684 442 684 442 693 525 c 1,50,51
 684 553 684 553 662.5 586 c 128,-1,52
 641 619 641 619 609 647 c 128,-1,53
 577 675 577 675 535.5 694 c 128,-1,54
 494 713 494 713 444 713 c 0,55,56
 391 713 391 713 344.5 686.5 c 128,-1,57
 298 660 298 660 263 615 c 128,-1,58
 228 570 228 570 207.5 509.5 c 128,-1,59
 187 449 187 449 187 382 c 0,60,61
 187 320 187 320 202 268 c 128,-1,62
 217 216 217 216 244.5 177.5 c 128,-1,63
 272 139 272 139 311.5 117.5 c 128,-1,64
 351 96 351 96 399 96 c 2,65,-1
 402 96 l 2,45,46
EndSplineSet
EndChar

StartChar: summation
Encoding: 8721 8721 144
Width: 976
Flags: MW
LayerCount: 2
Fore
SplineSet
54 -163 m 1,0,-1
 54 -78 l 1,1,-1
 513 510 l 1,2,-1
 74 1098 l 1,3,-1
 74 1188 l 1,4,-1
 892 1188 l 1,5,-1
 892 1077 l 1,6,-1
 248 1077 l 1,7,-1
 248 1071 l 1,8,-1
 657 529 l 1,9,-1
 215 -36 l 1,10,-1
 215 -42 l 1,11,-1
 919 -42 l 1,12,-1
 919 -163 l 1,13,-1
 54 -163 l 1,0,-1
EndSplineSet
EndChar

StartChar: product
Encoding: 8719 8719 145
Width: 1206
Flags: MW
LayerCount: 2
Fore
SplineSet
967 1072 m 1,0,-1
 967 -163 l 1,1,-1
 844 -163 l 1,2,-1
 844 1072 l 1,3,-1
 362 1072 l 1,4,-1
 362 -163 l 1,5,-1
 239 -163 l 1,6,-1
 239 1072 l 1,7,-1
 53 1072 l 1,8,-1
 53 1188 l 1,9,-1
 1154 1188 l 1,10,-1
 1154 1072 l 1,11,-1
 967 1072 l 1,0,-1
EndSplineSet
EndChar

StartChar: pi
Encoding: 960 960 146
Width: 950
Flags: MW
LayerCount: 2
Fore
SplineSet
783 774 m 1,0,-1
 783 251 l 2,1,2
 783 198 783 198 785 158.5 c 128,-1,3
 787 119 787 119 791 89.5 c 128,-1,4
 795 60 795 60 799.5 38.5 c 128,-1,5
 804 17 804 17 809 0 c 1,6,-1
 686 0 l 1,7,8
 673 21 673 21 665.5 78 c 128,-1,9
 658 135 658 135 658 240 c 2,10,-1
 658 774 l 1,11,-1
 348 774 l 1,12,13
 345 719 345 719 339 652 c 128,-1,14
 333 585 333 585 324.5 512 c 128,-1,15
 316 439 316 439 304.5 365.5 c 128,-1,16
 293 292 293 292 280.5 224 c 128,-1,17
 268 156 268 156 253 98 c 128,-1,18
 238 40 238 40 223 0 c 1,19,-1
 98 0 l 1,20,21
 114 46 114 46 129.5 105 c 128,-1,22
 145 164 145 164 158 231 c 128,-1,23
 171 298 171 298 182 370 c 128,-1,24
 193 442 193 442 201 512.5 c 128,-1,25
 209 583 209 583 214.5 650 c 128,-1,26
 220 717 220 717 222 774 c 1,27,28
 182 774 182 774 152.5 772.5 c 128,-1,29
 123 771 123 771 100.5 768 c 128,-1,30
 78 765 78 765 61.5 761 c 128,-1,31
 45 757 45 757 32 752 c 1,32,-1
 12 838 l 1,33,34
 43 858 43 858 100.5 871 c 128,-1,35
 158 884 158 884 256 884 c 2,36,-1
 933 884 l 1,37,-1
 921 774 l 1,38,-1
 783 774 l 1,0,-1
EndSplineSet
EndChar

StartChar: integral
Encoding: 8747 8747 147
Width: 550
Flags: MW
LayerCount: 2
Fore
SplineSet
530 1339 m 1,0,1
 520 1347 520 1347 502.5 1352.5 c 128,-1,2
 485 1358 485 1358 468 1358 c 0,3,4
 431 1358 431 1358 404 1339 c 128,-1,5
 377 1320 377 1320 359 1278.5 c 128,-1,6
 341 1237 341 1237 332 1171.5 c 128,-1,7
 323 1106 323 1106 323 1012 c 0,8,9
 323 912 323 912 326.5 805 c 128,-1,10
 330 698 330 698 334.5 589 c 128,-1,11
 339 480 339 480 343 370.5 c 128,-1,12
 347 261 347 261 347 157 c 0,13,14
 347 24 347 24 327 -59.5 c 128,-1,15
 307 -143 307 -143 274 -190.5 c 128,-1,16
 241 -238 241 -238 197.5 -255.5 c 128,-1,17
 154 -273 154 -273 106 -273 c 0,18,19
 73 -273 73 -273 41 -264.5 c 128,-1,20
 9 -256 9 -256 -6 -245 c 1,21,-1
 17 -152 l 1,22,23
 28 -157 28 -157 48.5 -165 c 128,-1,24
 69 -173 69 -173 94 -173 c 0,25,26
 118 -173 118 -173 143 -161.5 c 128,-1,27
 168 -150 168 -150 188 -115 c 128,-1,28
 208 -80 208 -80 220.5 -15 c 128,-1,29
 233 50 233 50 233 158 c 0,30,31
 233 263 233 263 229 374 c 128,-1,32
 225 485 225 485 220.5 596 c 128,-1,33
 216 707 216 707 212.5 815.5 c 128,-1,34
 209 924 209 924 209 1025 c 0,35,36
 209 1142 209 1142 227 1223.5 c 128,-1,37
 245 1305 245 1305 277.5 1356 c 128,-1,38
 310 1407 310 1407 356.5 1430 c 128,-1,39
 403 1453 403 1453 460 1453 c 0,40,41
 486 1453 486 1453 512 1445 c 128,-1,42
 538 1437 538 1437 552 1429 c 1,43,-1
 530 1339 l 1,0,1
EndSplineSet
EndChar

StartChar: uni03A9
Encoding: 937 937 148
Width: 1191
Flags: MW
LayerCount: 2
Fore
SplineSet
323 112 m 1,0,1
 277 152 277 152 235 205.5 c 128,-1,2
 193 259 193 259 160.5 326 c 128,-1,3
 128 393 128 393 109 471.5 c 128,-1,4
 90 550 90 550 90 640 c 0,5,6
 90 765 90 765 129 869 c 128,-1,7
 168 973 168 973 237 1048 c 128,-1,8
 306 1123 306 1123 399.5 1165 c 128,-1,9
 493 1207 493 1207 602 1207 c 0,10,11
 716 1207 716 1207 808.5 1161 c 128,-1,12
 901 1115 901 1115 966 1037.5 c 128,-1,13
 1031 960 1031 960 1066 858.5 c 128,-1,14
 1101 757 1101 757 1101 646 c 0,15,16
 1101 553 1101 553 1081 471.5 c 128,-1,17
 1061 390 1061 390 1028 322.5 c 128,-1,18
 995 255 995 255 953 201.5 c 128,-1,19
 911 148 911 148 867 112 c 1,20,-1
 867 107 l 1,21,-1
 1125 107 l 1,22,-1
 1125 0 l 1,23,-1
 716 0 l 1,24,-1
 716 77 l 1,25,26
 765 110 765 110 811.5 161 c 128,-1,27
 858 212 858 212 894 280.5 c 128,-1,28
 930 349 930 349 952 435 c 128,-1,29
 974 521 974 521 974 623 c 0,30,31
 974 706 974 706 950 791 c 128,-1,32
 926 876 926 876 879 944.5 c 128,-1,33
 832 1013 832 1013 762 1056 c 128,-1,34
 692 1099 692 1099 600 1099 c 0,35,36
 513 1099 513 1099 442 1061.5 c 128,-1,37
 371 1024 371 1024 321.5 959.5 c 128,-1,38
 272 895 272 895 245 807 c 128,-1,39
 218 719 218 719 218 619 c 0,40,41
 218 523 218 523 240 438.5 c 128,-1,42
 262 354 262 354 298.5 284 c 128,-1,43
 335 214 335 214 381.5 161.5 c 128,-1,44
 428 109 428 109 477 77 c 1,45,-1
 477 0 l 1,46,-1
 67 0 l 1,47,-1
 67 107 l 1,48,-1
 323 107 l 1,49,-1
 323 112 l 1,0,1
EndSplineSet
EndChar

StartChar: approxequal
Encoding: 8776 8776 149
Width: 1030
Flags: MW
LayerCount: 2
Fore
SplineSet
918 687 m 1,0,1
 901 653 901 653 879 623.5 c 128,-1,2
 857 594 857 594 830 572 c 128,-1,3
 803 550 803 550 770.5 537.5 c 128,-1,4
 738 525 738 525 699 525 c 0,5,6
 673 525 673 525 650 530 c 128,-1,7
 627 535 627 535 603.5 544.5 c 128,-1,8
 580 554 580 554 555 567.5 c 128,-1,9
 530 581 530 581 499 598 c 0,10,11
 458 621 458 621 420.5 638.5 c 128,-1,12
 383 656 383 656 339 656 c 0,13,14
 309 656 309 656 285 645.5 c 128,-1,15
 261 635 261 635 241 617 c 128,-1,16
 221 599 221 599 203 576 c 128,-1,17
 185 553 185 553 169 528 c 1,18,-1
 115 574 l 1,19,20
 155 649 155 649 215.5 692 c 128,-1,21
 276 735 276 735 350 735 c 0,22,23
 380 735 380 735 407 727.5 c 128,-1,24
 434 720 434 720 458 709.5 c 128,-1,25
 482 699 482 699 502.5 687 c 128,-1,26
 523 675 523 675 541 666 c 0,27,28
 563 654 563 654 582 643 c 128,-1,29
 601 632 601 632 620 624 c 128,-1,30
 639 616 639 616 659 611 c 128,-1,31
 679 606 679 606 703 606 c 0,32,33
 755 606 755 606 792.5 638.5 c 128,-1,34
 830 671 830 671 865 734 c 1,35,-1
 918 687 l 1,0,1
918 396 m 1,36,37
 901 363 901 363 879.5 333.5 c 128,-1,38
 858 304 858 304 831 282.5 c 128,-1,39
 804 261 804 261 771 248 c 128,-1,40
 738 235 738 235 699 235 c 0,41,42
 673 235 673 235 650 240 c 128,-1,43
 627 245 627 245 603.5 254 c 128,-1,44
 580 263 580 263 555 276.5 c 128,-1,45
 530 290 530 290 499 307 c 0,46,47
 458 330 458 330 420.5 347.5 c 128,-1,48
 383 365 383 365 340 365 c 0,49,50
 309 365 309 365 284.5 354.5 c 128,-1,51
 260 344 260 344 240 326 c 128,-1,52
 220 308 220 308 202.5 285 c 128,-1,53
 185 262 185 262 169 237 c 1,54,-1
 115 283 l 1,55,56
 155 359 155 359 215.5 402 c 128,-1,57
 276 445 276 445 350 445 c 0,58,59
 381 445 381 445 408 438 c 128,-1,60
 435 431 435 431 458.5 420.5 c 128,-1,61
 482 410 482 410 502.5 398 c 128,-1,62
 523 386 523 386 541 377 c 1,63,64
 562 365 562 365 581.5 354 c 128,-1,65
 601 343 601 343 620 334.5 c 128,-1,66
 639 326 639 326 659.5 321 c 128,-1,67
 680 316 680 316 704 316 c 0,68,69
 756 316 756 316 793 348.5 c 128,-1,70
 830 381 830 381 865 444 c 1,71,-1
 918 396 l 1,36,37
EndSplineSet
EndChar

StartChar: Delta
Encoding: 8710 8710 150
Width: 1095
Flags: MW
LayerCount: 2
Fore
SplineSet
48 88 m 1,0,-1
 478 1220 l 1,1,-1
 624 1220 l 1,2,-1
 1046 89 l 1,3,-1
 1046 0 l 1,4,-1
 48 0 l 1,5,-1
 48 88 l 1,0,-1
910 105 m 1,6,-1
 661 755 l 1,7,8
 650 789 650 789 634 831.5 c 128,-1,9
 618 874 618 874 601.5 917.5 c 128,-1,10
 585 961 585 961 570.5 1001.5 c 128,-1,11
 556 1042 556 1042 548 1072 c 1,12,-1
 542 1072 l 1,13,14
 536 1048 536 1048 523.5 1012.5 c 128,-1,15
 511 977 511 977 496 937.5 c 128,-1,16
 481 898 481 898 466 857.5 c 128,-1,17
 451 817 451 817 439 783 c 1,18,-1
 177 105 l 1,19,-1
 910 105 l 1,6,-1
EndSplineSet
EndChar

StartChar: radical
Encoding: 8730 8730 151
Width: 902
Flags: MW
LayerCount: 2
Fore
SplineSet
504 -254 m 1,0,-1
 393 -254 l 1,1,-1
 121 535 l 1,2,-1
 -7 486 l 1,3,-1
 -32 565 l 1,4,-1
 198 656 l 1,5,-1
 418 23 l 1,6,7
 426 -9 426 -9 434 -42 c 128,-1,8
 442 -75 442 -75 447 -101 c 1,9,-1
 448 -101 l 1,10,11
 453 -77 453 -77 459.5 -43.5 c 128,-1,12
 466 -10 466 -10 472 22 c 1,13,-1
 790 1412 l 1,14,-1
 884 1412 l 1,15,-1
 504 -254 l 1,0,-1
EndSplineSet
EndChar

StartChar: divide
Encoding: 247 247 152
Width: 1164
Flags: MW
LayerCount: 2
Fore
SplineSet
115 632 m 1,0,-1
 1050 632 l 1,1,-1
 1050 513 l 1,2,-1
 115 513 l 1,3,-1
 115 632 l 1,0,-1
583 140 m 0,4,5
 551 140 551 140 530 162 c 128,-1,6
 509 184 509 184 509 216 c 256,7,8
 509 248 509 248 530 270 c 128,-1,9
 551 292 551 292 583 292 c 0,10,11
 614 292 614 292 635.5 270 c 128,-1,12
 657 248 657 248 657 216 c 256,13,14
 657 184 657 184 635.5 162 c 128,-1,15
 614 140 614 140 583 140 c 0,4,5
583 853 m 0,16,17
 551 853 551 853 530 874.5 c 128,-1,18
 509 896 509 896 509 928 c 256,19,20
 509 960 509 960 530 982 c 128,-1,21
 551 1004 551 1004 583 1004 c 0,22,23
 614 1004 614 1004 635.5 982 c 128,-1,24
 657 960 657 960 657 928 c 256,25,26
 657 896 657 896 635.5 874.5 c 128,-1,27
 614 853 614 853 583 853 c 0,16,17
EndSplineSet
EndChar

StartChar: lozenge
Encoding: 9674 9674 153
Width: 893
Flags: MW
LayerCount: 2
Fore
SplineSet
495 -77 m 1,0,-1
 393 -77 l 1,1,-1
 53 593 l 1,2,-1
 397 1266 l 1,3,-1
 499 1266 l 1,4,-1
 840 593 l 1,5,-1
 495 -77 l 1,0,-1
480 1067 m 2,6,7
 470 1087 470 1087 461.5 1113 c 128,-1,8
 453 1139 453 1139 448 1156 c 1,9,-1
 444 1156 l 1,10,11
 438 1136 438 1136 430 1113.5 c 128,-1,12
 422 1091 422 1091 411 1067 c 1,13,-1
 167 596 l 1,14,-1
 414 116 l 1,15,16
 425 91 425 91 432.5 67.5 c 128,-1,17
 440 44 440 44 443 29 c 1,18,-1
 450 29 l 1,19,20
 454 46 454 46 462.5 72 c 128,-1,21
 471 98 471 98 479 114 c 2,22,-1
 725 590 l 1,23,-1
 480 1067 l 2,6,7
EndSplineSet
EndChar

StartChar: daggerdbl
Encoding: 8225 8225 154
Width: 918
Flags: MW
LayerCount: 2
Fore
SplineSet
525 121 m 1,0,-1
 687 150 l 1,1,-1
 847 150 l 1,2,-1
 847 -10 l 1,3,-1
 687 -10 l 1,4,-1
 525 23 l 1,5,-1
 531 -168 l 1,6,-1
 531 -366 l 1,7,-1
 387 -366 l 1,8,-1
 387 -168 l 1,9,-1
 392 23 l 1,10,-1
 230 -10 l 1,11,-1
 71 -10 l 1,12,-1
 71 150 l 1,13,-1
 230 150 l 1,14,-1
 392 121 l 1,15,-1
 392 728 l 1,16,-1
 230 699 l 1,17,-1
 71 699 l 1,18,-1
 71 859 l 1,19,-1
 230 859 l 1,20,-1
 392 826 l 1,21,-1
 387 1017 l 1,22,-1
 387 1215 l 1,23,-1
 531 1215 l 1,24,-1
 531 1017 l 1,25,-1
 525 826 l 1,26,-1
 687 859 l 1,27,-1
 847 859 l 1,28,-1
 847 699 l 1,29,-1
 687 699 l 1,30,-1
 525 728 l 1,31,-1
 525 121 l 1,0,-1
EndSplineSet
EndChar

StartChar: dotlessi
Encoding: 305 305 155
Width: 509
Flags: MW
LayerCount: 2
Fore
SplineSet
59 124 m 1,0,-1
 194 124 l 1,1,-1
 194 685 l 1,2,-1
 59 685 l 1,3,-1
 59 805 l 1,4,-1
 343 805 l 1,5,-1
 343 122 l 1,6,-1
 479 122 l 1,7,-1
 479 0 l 1,8,-1
 59 0 l 1,9,-1
 59 124 l 1,0,-1
EndSplineSet
EndChar

StartChar: lessequal
Encoding: 8804 8804 156
Width: 964
Flags: MW
LayerCount: 2
Fore
SplineSet
85 548 m 1,0,-1
 85 648 l 1,1,-1
 857 1032 l 1,2,-1
 857 921 l 1,3,-1
 183 600 l 1,4,-1
 183 597 l 1,5,-1
 859 274 l 1,6,-1
 859 163 l 1,7,-1
 85 548 l 1,0,-1
76 0 m 1,8,-1
 76 97 l 1,9,-1
 862 97 l 1,10,-1
 862 0 l 1,11,-1
 76 0 l 1,8,-1
EndSplineSet
EndChar

StartChar: greaterequal
Encoding: 8805 8805 157
Width: 960
Flags: MW
LayerCount: 2
Fore
SplineSet
879 647 m 1,0,-1
 879 548 l 1,1,-1
 107 163 l 1,2,-1
 107 274 l 1,3,-1
 780 595 l 1,4,-1
 780 600 l 1,5,-1
 107 921 l 1,6,-1
 107 1032 l 1,7,-1
 879 647 l 1,0,-1
98 0 m 1,8,-1
 98 97 l 1,9,-1
 880 97 l 1,10,-1
 880 0 l 1,11,-1
 98 0 l 1,8,-1
EndSplineSet
EndChar

StartChar: infinity
Encoding: 8734 8734 158
Width: 1367
Flags: MW
LayerCount: 2
Fore
SplineSet
1262 491 m 2,0,1
 1262 427 1262 427 1240 376 c 128,-1,2
 1218 325 1218 325 1181.5 289 c 128,-1,3
 1145 253 1145 253 1097 234 c 128,-1,4
 1049 215 1049 215 998 215 c 0,5,6
 958 215 958 215 921 227 c 128,-1,7
 884 239 884 239 846.5 263.5 c 128,-1,8
 809 288 809 288 769.5 325.5 c 128,-1,9
 730 363 730 363 686 415 c 1,10,11
 652 376 652 376 617.5 340 c 128,-1,12
 583 304 583 304 544 276 c 128,-1,13
 505 248 505 248 460.5 231.5 c 128,-1,14
 416 215 416 215 363 215 c 0,15,16
 312 215 312 215 265 235.5 c 128,-1,17
 218 256 218 256 182 292 c 128,-1,18
 146 328 146 328 125 377.5 c 128,-1,19
 104 427 104 427 104 486 c 0,20,21
 104 546 104 546 124.5 596.5 c 128,-1,22
 145 647 145 647 181.5 683.5 c 128,-1,23
 218 720 218 720 268.5 740.5 c 128,-1,24
 319 761 319 761 378 761 c 0,25,26
 426 761 426 761 468.5 745 c 128,-1,27
 511 729 511 729 549 701.5 c 128,-1,28
 587 674 587 674 622.5 638 c 128,-1,29
 658 602 658 602 693 562 c 1,30,31
 723 596 723 596 755.5 631.5 c 128,-1,32
 788 667 788 667 825.5 696 c 128,-1,33
 863 725 863 725 907.5 743 c 128,-1,34
 952 761 952 761 1006 761 c 0,35,36
 1062 761 1062 761 1109 742 c 128,-1,37
 1156 723 1156 723 1190 688 c 128,-1,38
 1224 653 1224 653 1243 603.5 c 128,-1,39
 1262 554 1262 554 1262 494 c 2,40,-1
 1262 491 l 2,0,1
379 304 m 2,41,42
 419 304 419 304 454 321.5 c 128,-1,43
 489 339 489 339 521 365 c 128,-1,44
 553 391 553 391 581.5 422.5 c 128,-1,45
 610 454 610 454 637 482 c 1,46,47
 608 517 608 517 579.5 551.5 c 128,-1,48
 551 586 551 586 518.5 613 c 128,-1,49
 486 640 486 640 449 657 c 128,-1,50
 412 674 412 674 367 674 c 0,51,52
 328 674 328 674 297 659 c 128,-1,53
 266 644 266 644 244.5 618 c 128,-1,54
 223 592 223 592 211.5 557.5 c 128,-1,55
 200 523 200 523 200 484 c 0,56,57
 200 447 200 447 213 414.5 c 128,-1,58
 226 382 226 382 249 357.5 c 128,-1,59
 272 333 272 333 304.5 318.5 c 128,-1,60
 337 304 337 304 376 304 c 2,61,-1
 379 304 l 2,41,42
998 674 m 2,62,63
 956 674 956 674 918 654 c 128,-1,64
 880 634 880 634 847.5 605.5 c 128,-1,65
 815 577 815 577 788 545.5 c 128,-1,66
 761 514 761 514 739 491 c 1,67,68
 781 444 781 444 814.5 408.5 c 128,-1,69
 848 373 848 373 879 350 c 128,-1,70
 910 327 910 327 939.5 315.5 c 128,-1,71
 969 304 969 304 1003 304 c 0,72,73
 1043 304 1043 304 1073.5 320.5 c 128,-1,74
 1104 337 1104 337 1125 363 c 128,-1,75
 1146 389 1146 389 1157 421.5 c 128,-1,76
 1168 454 1168 454 1168 486 c 0,77,78
 1168 529 1168 529 1155.5 564 c 128,-1,79
 1143 599 1143 599 1120.5 623.5 c 128,-1,80
 1098 648 1098 648 1067.5 661 c 128,-1,81
 1037 674 1037 674 1000 674 c 2,82,-1
 998 674 l 2,62,63
EndSplineSet
EndChar

StartChar: notequal
Encoding: 8800 8800 159
Width: 968
Flags: MW
LayerCount: 2
Fore
SplineSet
615 699 m 1,0,-1
 876 699 l 1,1,-1
 876 606 l 1,2,-1
 578 606 l 1,3,-1
 468 361 l 1,4,-1
 876 361 l 1,5,-1
 876 267 l 1,6,-1
 431 267 l 1,7,-1
 339 67 l 1,8,-1
 265 101 l 1,9,-1
 340 267 l 1,10,-1
 90 267 l 1,11,-1
 90 361 l 1,12,-1
 379 361 l 1,13,-1
 490 606 l 1,14,-1
 90 606 l 1,15,-1
 90 699 l 1,16,-1
 527 699 l 1,17,-1
 617 896 l 1,18,-1
 691 863 l 1,19,-1
 615 699 l 1,0,-1
EndSplineSet
EndChar

StartChar: ordfeminine
Encoding: 170 170 160
Width: 696
Flags: MW
LayerCount: 2
Fore
SplineSet
619 701 m 1,0,-1
 434 701 l 1,1,-1
 434 763 l 1,2,3
 399 730 399 730 354 711 c 128,-1,4
 309 692 309 692 262 692 c 0,5,6
 223 692 223 692 189.5 704 c 128,-1,7
 156 716 156 716 131.5 737.5 c 128,-1,8
 107 759 107 759 92.5 788 c 128,-1,9
 78 817 78 817 78 851 c 256,10,11
 78 885 78 885 93 915 c 128,-1,12
 108 945 108 945 135 966.5 c 128,-1,13
 162 988 162 988 198.5 1000.5 c 128,-1,14
 235 1013 235 1013 278 1013 c 0,15,16
 313 1013 313 1013 351 1001.5 c 128,-1,17
 389 990 389 990 424 970 c 1,18,-1
 424 1039 l 2,19,20
 424 1082 424 1082 394 1107.5 c 128,-1,21
 364 1133 364 1133 304 1133 c 0,22,23
 264 1133 264 1133 235.5 1117 c 128,-1,24
 207 1101 207 1101 188 1072 c 1,25,-1
 87 1099 l 1,26,27
 155 1215 155 1215 320 1215 c 0,28,29
 358 1215 358 1215 395 1208.5 c 128,-1,30
 432 1202 432 1202 461.5 1184 c 128,-1,31
 491 1166 491 1166 509 1135 c 128,-1,32
 527 1104 527 1104 527 1055 c 2,33,-1
 527 789 l 1,34,-1
 619 789 l 1,35,-1
 619 701 l 1,0,-1
424 888 m 1,36,37
 392 911 392 911 355.5 924 c 128,-1,38
 319 937 319 937 287 937 c 0,39,40
 240 937 240 937 210.5 913.5 c 128,-1,41
 181 890 181 890 181 852 c 0,42,43
 181 815 181 815 208 792.5 c 128,-1,44
 235 770 235 770 280 770 c 0,45,46
 315 770 315 770 353.5 786 c 128,-1,47
 392 802 392 802 424 830 c 1,48,-1
 424 888 l 1,36,37
EndSplineSet
EndChar

StartChar: copyright
Encoding: 169 169 161
Width: 1423
Flags: MW
LayerCount: 2
Fore
SplineSet
1026 497 m 1,0,1
 1013 442 1013 442 985 398.5 c 128,-1,2
 957 355 957 355 916.5 324.5 c 128,-1,3
 876 294 876 294 824.5 277.5 c 128,-1,4
 773 261 773 261 713 261 c 0,5,6
 635 261 635 261 572 287.5 c 128,-1,7
 509 314 509 314 464.5 362.5 c 128,-1,8
 420 411 420 411 396 479.5 c 128,-1,9
 372 548 372 548 372 632 c 256,10,11
 372 716 372 716 396 784 c 128,-1,12
 420 852 420 852 465 899 c 128,-1,13
 510 946 510 946 574.5 971.5 c 128,-1,14
 639 997 639 997 720 997 c 0,15,16
 832 997 832 997 908.5 944.5 c 128,-1,17
 985 892 985 892 1014 795 c 1,18,-1
 912 770 l 1,19,20
 886 833 886 833 836 867.5 c 128,-1,21
 786 902 786 902 716 902 c 0,22,23
 665 902 665 902 623 882.5 c 128,-1,24
 581 863 581 863 552 827.5 c 128,-1,25
 523 792 523 792 507 741.5 c 128,-1,26
 491 691 491 691 491 629 c 256,27,28
 491 567 491 567 506 518 c 128,-1,29
 521 469 521 469 549 434.5 c 128,-1,30
 577 400 577 400 617.5 381.5 c 128,-1,31
 658 363 658 363 708 363 c 0,32,33
 787 363 787 363 843.5 407.5 c 128,-1,34
 900 452 900 452 920 528 c 1,35,-1
 1026 497 l 1,0,1
711 1282 m 256,36,37
 801 1282 801 1282 884 1259 c 128,-1,38
 967 1236 967 1236 1039 1194 c 128,-1,39
 1111 1152 1111 1152 1170.5 1093 c 128,-1,40
 1230 1034 1230 1034 1272 962 c 128,-1,41
 1314 890 1314 890 1337 807 c 128,-1,42
 1360 724 1360 724 1360 634 c 256,43,44
 1360 544 1360 544 1337 461 c 128,-1,45
 1314 378 1314 378 1272 306 c 128,-1,46
 1230 234 1230 234 1170.5 174.5 c 128,-1,47
 1111 115 1111 115 1039 73 c 128,-1,48
 967 31 967 31 884 8 c 128,-1,49
 801 -15 801 -15 711 -15 c 256,50,51
 621 -15 621 -15 538 8 c 128,-1,52
 455 31 455 31 383 73 c 128,-1,53
 311 115 311 115 252 174.5 c 128,-1,54
 193 234 193 234 151 306 c 128,-1,55
 109 378 109 378 86 461 c 128,-1,56
 63 544 63 544 63 634 c 256,57,58
 63 724 63 724 86 807 c 128,-1,59
 109 890 109 890 151 962 c 128,-1,60
 193 1034 193 1034 252 1093 c 128,-1,61
 311 1152 311 1152 383 1194 c 128,-1,62
 455 1236 455 1236 538 1259 c 128,-1,63
 621 1282 621 1282 711 1282 c 256,36,37
711 1175 m 256,64,65
 599 1175 599 1175 500.5 1132.5 c 128,-1,66
 402 1090 402 1090 328.5 1016.5 c 128,-1,67
 255 943 255 943 212.5 844.5 c 128,-1,68
 170 746 170 746 170 634 c 256,69,70
 170 522 170 522 212.5 423 c 128,-1,71
 255 324 255 324 328.5 250.5 c 128,-1,72
 402 177 402 177 500.5 134 c 128,-1,73
 599 91 599 91 711 91 c 0,74,75
 786 91 786 91 855 110.5 c 128,-1,76
 924 130 924 130 984.5 165.5 c 128,-1,77
 1045 201 1045 201 1094.5 250.5 c 128,-1,78
 1144 300 1144 300 1179 360.5 c 128,-1,79
 1214 421 1214 421 1233.5 490 c 128,-1,80
 1253 559 1253 559 1253 634 c 0,81,82
 1253 746 1253 746 1210.5 844.5 c 128,-1,83
 1168 943 1168 943 1094.5 1016.5 c 128,-1,84
 1021 1090 1021 1090 922 1132.5 c 128,-1,85
 823 1175 823 1175 711 1175 c 256,64,65
EndSplineSet
EndChar

StartChar: dagger
Encoding: 8224 8224 162
Width: 862
Flags: MW
LayerCount: 2
Fore
SplineSet
489 691 m 1,0,-1
 520 436 l 1,1,-1
 506 -382 l 1,2,-1
 356 -382 l 1,3,-1
 342 438 l 1,4,-1
 373 691 l 1,5,-1
 180 666 l 1,6,-1
 47 666 l 1,7,-1
 47 832 l 1,8,-1
 180 832 l 1,9,-1
 373 806 l 1,10,-1
 342 1017 l 1,11,-1
 342 1215 l 1,12,-1
 520 1215 l 1,13,-1
 520 1017 l 1,14,-1
 489 806 l 1,15,-1
 681 832 l 1,16,-1
 815 832 l 1,17,-1
 815 666 l 1,18,-1
 681 666 l 1,19,-1
 489 691 l 1,0,-1
EndSplineSet
EndChar

StartChar: less
Encoding: 60 60 168
Width: 1109
Flags: MW
LayerCount: 2
Fore
SplineSet
212 572 m 1,0,-1
 991 252 l 1,1,-1
 991 124 l 1,2,-1
 55 518 l 1,3,-1
 55 625 l 1,4,-1
 991 1019 l 1,5,-1
 991 891 l 1,6,-1
 212 572 l 1,0,-1
EndSplineSet
EndChar

StartChar: asciicircum
Encoding: 94 94 169
Width: 826
Flags: MW
LayerCount: 2
Fore
SplineSet
838 580 m 1,0,-1
 687 580 l 1,1,-1
 415 1035 l 1,2,-1
 139 580 l 1,3,-1
 -12 580 l 1,4,-1
 359 1196 l 1,5,-1
 472 1196 l 1,6,-1
 838 580 l 1,0,-1
EndSplineSet
EndChar

StartChar: braceright
Encoding: 125 125 170
Width: 527
Flags: MW
LayerCount: 2
Fore
SplineSet
510 353 m 1,0,1
 453 353 453 353 419 334.5 c 128,-1,2
 385 316 385 316 367 280.5 c 128,-1,3
 349 245 349 245 343 194.5 c 128,-1,4
 337 144 337 144 337 81 c 0,5,6
 337 -14 337 -14 333 -92 c 128,-1,7
 329 -170 329 -170 306.5 -225.5 c 128,-1,8
 284 -281 284 -281 236.5 -311.5 c 128,-1,9
 189 -342 189 -342 101 -342 c 2,10,-1
 34 -342 l 1,11,-1
 34 -236 l 1,12,13
 98 -236 98 -236 132.5 -227.5 c 128,-1,14
 167 -219 167 -219 183 -189 c 128,-1,15
 199 -159 199 -159 201.5 -101.5 c 128,-1,16
 204 -44 204 -44 204 53 c 0,17,18
 204 135 204 135 212.5 193.5 c 128,-1,19
 221 252 221 252 241 293.5 c 128,-1,20
 261 335 261 335 293.5 363 c 128,-1,21
 326 391 326 391 374 412 c 1,22,23
 316 437 316 437 282 470.5 c 128,-1,24
 248 504 248 504 230.5 557.5 c 128,-1,25
 213 611 213 611 208 691 c 128,-1,26
 203 771 203 771 203 890 c 1,27,28
 202 944 202 944 195 977.5 c 128,-1,29
 188 1011 188 1011 169 1029 c 128,-1,30
 150 1047 150 1047 117.5 1053 c 128,-1,31
 85 1059 85 1059 34 1059 c 1,32,-1
 34 1166 l 1,33,-1
 102 1166 l 1,34,35
 191 1165 191 1165 239 1133 c 128,-1,36
 287 1101 287 1101 308.5 1043.5 c 128,-1,37
 330 986 330 986 333.5 907 c 128,-1,38
 337 828 337 828 337 733 c 0,39,40
 337 671 337 671 343.5 622 c 128,-1,41
 350 573 350 573 368.5 539.5 c 128,-1,42
 387 506 387 506 421 488 c 128,-1,43
 455 470 455 470 510 470 c 1,44,-1
 510 353 l 1,0,1
EndSplineSet
EndChar

StartChar: AE
Encoding: 198 198 203
Width: 1733
Flags: MW
LayerCount: 2
Fore
SplineSet
1563 832 m 1,0,-1
 1431 832 l 1,1,-1
 1386 1026 l 1,2,-1
 870 1026 l 1,3,-1
 958 655 l 1,4,-1
 1320 655 l 1,5,-1
 1306 769 l 1,6,-1
 1393 769 l 1,7,-1
 1478 410 l 1,8,-1
 1390 410 l 1,9,-1
 1341 548 l 1,10,-1
 982 548 l 1,11,-1
 1085 127 l 1,12,-1
 1576 127 l 1,13,-1
 1528 328 l 1,14,-1
 1657 328 l 1,15,-1
 1735 0 l 1,16,-1
 744 0 l 1,17,-1
 755 127 l 1,18,-1
 924 127 l 1,19,-1
 854 424 l 1,20,-1
 393 424 l 1,21,-1
 291 126 l 1,22,-1
 441 126 l 1,23,-1
 430 0 l 1,24,-1
 -23 0 l 1,25,-1
 -12 125 l 1,26,-1
 125 127 l 1,27,28
 193 305 193 305 261 473 c 0,29,30
 290 545 290 545 321 621.5 c 128,-1,31
 352 698 352 698 383 772.5 c 128,-1,32
 414 847 414 847 443.5 916 c 128,-1,33
 473 985 473 985 499 1041 c 1,34,-1
 399 1043 l 1,35,-1
 410 1153 l 1,36,-1
 1487 1153 l 1,37,-1
 1563 832 l 1,0,-1
825 545 m 1,38,-1
 817 577 l 1,39,-1
 710 1029 l 1,40,-1
 634 1029 l 1,41,42
 627 1014 627 1014 615 985.5 c 128,-1,43
 603 957 603 957 588 920.5 c 128,-1,44
 573 884 573 884 556.5 842 c 128,-1,45
 540 800 540 800 524 758 c 0,46,47
 486 660 486 660 442 545 c 1,48,-1
 825 545 l 1,38,-1
EndSplineSet
EndChar

StartChar: yen
Encoding: 165 165 204
Width: 1261
Flags: MW
LayerCount: 2
Fore
SplineSet
487 622 m 1,0,-1
 195 1029 l 1,1,-1
 49 1029 l 1,2,-1
 49 1153 l 1,3,-1
 521 1153 l 1,4,-1
 521 1026 l 1,5,-1
 371 1026 l 1,6,-1
 645 630 l 1,7,-1
 902 1027 l 1,8,-1
 752 1027 l 1,9,-1
 752 1153 l 1,10,-1
 1212 1153 l 1,11,-1
 1212 1026 l 1,12,-1
 1056 1026 l 1,13,-1
 777 622 l 1,14,-1
 1012 622 l 1,15,-1
 1012 503 l 1,16,-1
 713 503 l 1,17,-1
 713 414 l 1,18,-1
 1012 414 l 1,19,-1
 1012 297 l 1,20,-1
 713 297 l 1,21,-1
 713 126 l 1,22,-1
 877 126 l 1,23,-1
 877 0 l 1,24,-1
 394 0 l 1,25,-1
 394 127 l 1,26,-1
 553 127 l 1,27,-1
 553 297 l 1,28,-1
 249 297 l 1,29,-1
 249 414 l 1,30,-1
 553 414 l 1,31,-1
 553 503 l 1,32,-1
 249 503 l 1,33,-1
 249 622 l 1,34,-1
 487 622 l 1,0,-1
EndSplineSet
EndChar

StartChar: ae
Encoding: 230 230 205
Width: 1453
Flags: MW
LayerCount: 2
Fore
SplineSet
327 -14 m 0,0,1
 264 -14 264 -14 213.5 5.5 c 128,-1,2
 163 25 163 25 127.5 57.5 c 128,-1,3
 92 90 92 90 73.5 132.5 c 128,-1,4
 55 175 55 175 55 221 c 0,5,6
 55 293 55 293 82.5 341 c 128,-1,7
 110 389 110 389 157 417.5 c 128,-1,8
 204 446 204 446 267.5 458 c 128,-1,9
 331 470 331 470 402 470 c 0,10,11
 495 470 495 470 595 450 c 1,12,-1
 595 547 l 2,13,14
 595 591 595 591 579.5 622 c 128,-1,15
 564 653 564 653 537 672.5 c 128,-1,16
 510 692 510 692 474.5 700.5 c 128,-1,17
 439 709 439 709 399 709 c 0,18,19
 337 709 337 709 290 688 c 128,-1,20
 243 667 243 667 214 626 c 1,21,-1
 74 665 l 1,22,23
 120 744 120 744 207 785.5 c 128,-1,24
 294 827 294 827 419 827 c 0,25,26
 477 827 477 827 522.5 816 c 128,-1,27
 568 805 568 805 602.5 785.5 c 128,-1,28
 637 766 637 766 661.5 739 c 128,-1,29
 686 712 686 712 702 680 c 1,30,31
 760 749 760 749 838.5 788 c 128,-1,32
 917 827 917 827 1012 827 c 256,33,34
 1107 827 1107 827 1178.5 791 c 128,-1,35
 1250 755 1250 755 1298 693.5 c 128,-1,36
 1346 632 1346 632 1370 551.5 c 128,-1,37
 1394 471 1394 471 1394 382 c 2,38,-1
 1394 365 l 1,39,-1
 1074 363 l 1,40,-1
 759 365 l 1,41,42
 766 307 766 307 785.5 258.5 c 128,-1,43
 805 210 805 210 837.5 175 c 128,-1,44
 870 140 870 140 915.5 120.5 c 128,-1,45
 961 101 961 101 1019 101 c 0,46,47
 1093 101 1093 101 1158.5 131.5 c 128,-1,48
 1224 162 1224 162 1266 217 c 1,49,-1
 1394 161 l 1,50,51
 1339 75 1339 75 1241.5 26 c 128,-1,52
 1144 -23 1144 -23 1016 -23 c 0,53,54
 911 -23 911 -23 828.5 10.5 c 128,-1,55
 746 44 746 44 687 103 c 1,56,57
 640 74 640 74 597.5 52.5 c 128,-1,58
 555 31 555 31 513 16 c 128,-1,59
 471 1 471 1 425.5 -6.5 c 128,-1,60
 380 -14 380 -14 327 -14 c 0,0,1
1251 467 m 1,61,62
 1243 516 1243 516 1224.5 561 c 128,-1,63
 1206 606 1206 606 1176 639.5 c 128,-1,64
 1146 673 1146 673 1105.5 693 c 128,-1,65
 1065 713 1065 713 1014 713 c 0,66,67
 959 713 959 713 916 694.5 c 128,-1,68
 873 676 873 676 841.5 643 c 128,-1,69
 810 610 810 610 790 565 c 128,-1,70
 770 520 770 520 763 467 c 1,71,-1
 1251 467 l 1,61,62
595 352 m 1,72,73
 563 353 563 353 514.5 360.5 c 128,-1,74
 466 368 466 368 412 368 c 0,75,76
 373 368 373 368 334 362.5 c 128,-1,77
 295 357 295 357 264.5 341 c 128,-1,78
 234 325 234 325 215 296 c 128,-1,79
 196 267 196 267 196 221 c 0,80,81
 196 168 196 168 235 132 c 128,-1,82
 274 96 274 96 348 96 c 0,83,84
 381 96 381 96 415 102 c 128,-1,85
 449 108 449 108 481.5 118.5 c 128,-1,86
 514 129 514 129 543 144 c 128,-1,87
 572 159 572 159 595 178 c 1,88,-1
 595 352 l 1,72,73
EndSplineSet
EndChar

StartChar: OE
Encoding: 338 338 210
Width: 1920
Flags: MW
LayerCount: 2
Fore
SplineSet
1832 1153 m 1,0,-1
 1832 832 l 1,1,-1
 1700 832 l 1,2,-1
 1700 1026 l 1,3,-1
 1176 1026 l 1,4,-1
 1176 655 l 1,5,-1
 1538 655 l 1,6,-1
 1551 769 l 1,7,-1
 1638 769 l 1,8,-1
 1638 410 l 1,9,-1
 1550 410 l 1,10,-1
 1537 526 l 1,11,-1
 1178 526 l 1,12,-1
 1178 127 l 1,13,-1
 1703 127 l 1,14,-1
 1703 328 l 1,15,-1
 1832 328 l 1,16,-1
 1832 0 l 1,17,-1
 1017 0 l 1,18,-1
 1017 95 l 1,19,20
 949 41 949 41 853 11 c 128,-1,21
 757 -19 757 -19 636 -19 c 0,22,23
 503 -19 503 -19 397.5 27 c 128,-1,24
 292 73 292 73 218.5 153.5 c 128,-1,25
 145 234 145 234 106 342 c 128,-1,26
 67 450 67 450 67 575 c 256,27,28
 67 700 67 700 106 809 c 128,-1,29
 145 918 145 918 218.5 998.5 c 128,-1,30
 292 1079 292 1079 397.5 1125 c 128,-1,31
 503 1171 503 1171 636 1171 c 0,32,33
 757 1171 757 1171 853 1141 c 128,-1,34
 949 1111 949 1111 1017 1057 c 1,35,-1
 1017 1153 l 1,36,-1
 1832 1153 l 1,0,-1
245 575 m 0,37,38
 245 458 245 458 280.5 372.5 c 128,-1,39
 316 287 316 287 375 231.5 c 128,-1,40
 434 176 434 176 512 149 c 128,-1,41
 590 122 590 122 674 122 c 0,42,43
 762 122 762 122 850.5 150.5 c 128,-1,44
 939 179 939 179 1017 235 c 1,45,-1
 1017 933 l 1,46,47
 930 986 930 986 840 1013 c 128,-1,48
 750 1040 750 1040 663 1040 c 0,49,50
 577 1040 577 1040 501 1012 c 128,-1,51
 425 984 425 984 368 926.5 c 128,-1,52
 311 869 311 869 278 781.5 c 128,-1,53
 245 694 245 694 245 575 c 0,37,38
EndSplineSet
EndChar

StartChar: oe
Encoding: 339 339 211
Width: 1648
Flags: MW
LayerCount: 2
Fore
SplineSet
1254 363 m 1,0,-1
 913 365 l 1,1,2
 921 307 921 307 942.5 258.5 c 128,-1,3
 964 210 964 210 999.5 175 c 128,-1,4
 1035 140 1035 140 1085 120.5 c 128,-1,5
 1135 101 1135 101 1199 101 c 0,6,7
 1278 101 1278 101 1348 131.5 c 128,-1,8
 1418 162 1418 162 1463 217 c 1,9,-1
 1591 161 l 1,10,11
 1534 75 1534 75 1432 26 c 128,-1,12
 1330 -23 1330 -23 1196 -23 c 0,13,14
 1072 -23 1072 -23 979.5 28 c 128,-1,15
 887 79 887 79 830 164 c 1,16,17
 774 80 774 80 685 28.5 c 128,-1,18
 596 -23 596 -23 481 -23 c 0,19,20
 383 -23 383 -23 304.5 11 c 128,-1,21
 226 45 226 45 171 103 c 128,-1,22
 116 161 116 161 86 238 c 128,-1,23
 56 315 56 315 56 402 c 256,24,25
 56 489 56 489 86 566 c 128,-1,26
 116 643 116 643 171.5 701 c 128,-1,27
 227 759 227 759 306 793 c 128,-1,28
 385 827 385 827 483 827 c 0,29,30
 598 827 598 827 686 775.5 c 128,-1,31
 774 724 774 724 830 639 c 1,32,33
 890 727 890 727 983 777 c 128,-1,34
 1076 827 1076 827 1192 827 c 0,35,36
 1291 827 1291 827 1365.5 791 c 128,-1,37
 1440 755 1440 755 1490.5 693.5 c 128,-1,38
 1541 632 1541 632 1566 551.5 c 128,-1,39
 1591 471 1591 471 1591 382 c 2,40,-1
 1591 365 l 1,41,-1
 1254 363 l 1,0,-1
481 114 m 0,42,43
 543 114 543 114 592.5 136 c 128,-1,44
 642 158 642 158 677 197 c 128,-1,45
 712 236 712 236 730.5 288.5 c 128,-1,46
 749 341 749 341 749 402 c 256,47,48
 749 463 749 463 730.5 516 c 128,-1,49
 712 569 712 569 677 608 c 128,-1,50
 642 647 642 647 592.5 669 c 128,-1,51
 543 691 543 691 481 691 c 0,52,53
 420 691 420 691 370.5 669 c 128,-1,54
 321 647 321 647 286.5 608 c 128,-1,55
 252 569 252 569 233.5 516 c 128,-1,56
 215 463 215 463 215 402 c 256,57,58
 215 341 215 341 233.5 288.5 c 128,-1,59
 252 236 252 236 286.5 197 c 128,-1,60
 321 158 321 158 370.5 136 c 128,-1,61
 420 114 420 114 481 114 c 0,42,43
1448 467 m 1,62,63
 1440 516 1440 516 1419.5 561 c 128,-1,64
 1399 606 1399 606 1367 639.5 c 128,-1,65
 1335 673 1335 673 1291.5 693 c 128,-1,66
 1248 713 1248 713 1194 713 c 0,67,68
 1133 713 1133 713 1085.5 694.5 c 128,-1,69
 1038 676 1038 676 1003.5 643 c 128,-1,70
 969 610 969 610 947.5 565 c 128,-1,71
 926 520 926 520 917 467 c 1,72,-1
 1448 467 l 1,62,63
EndSplineSet
EndChar

StartChar: minus
Encoding: 8722 8722 231
Width: 741
Flags: MW
LayerCount: 2
Fore
SplineSet
112 484 m 1,0,-1
 629 484 l 1,1,-1
 629 340 l 1,2,-1
 112 340 l 1,3,-1
 112 484 l 1,0,-1
EndSplineSet
EndChar

StartChar: brokenbar
Encoding: 166 166 232
Width: 422
Flags: MW
LayerCount: 2
Fore
SplineSet
272 263 m 1,0,-1
 272 -363 l 1,1,-1
 150 -363 l 1,2,-1
 150 263 l 1,3,-1
 272 263 l 1,0,-1
272 1171 m 1,4,-1
 272 550 l 1,5,-1
 150 550 l 1,6,-1
 150 1171 l 1,7,-1
 272 1171 l 1,4,-1
EndSplineSet
EndChar

StartChar: twosuperior
Encoding: 178 178 233
Width: 747
Flags: MW
LayerCount: 2
Fore
SplineSet
640 318 m 1,0,-1
 361 316 l 1,1,-1
 87 318 l 1,2,3
 87 396 87 396 115.5 471.5 c 128,-1,4
 144 547 144 547 207 623 c 0,5,6
 253 679 253 679 302.5 716 c 128,-1,7
 352 753 352 753 413 785 c 0,8,9
 471 816 471 816 499.5 854 c 128,-1,10
 528 892 528 892 528 943 c 0,11,12
 528 1006 528 1006 488.5 1045 c 128,-1,13
 449 1084 449 1084 368 1084 c 0,14,15
 278 1084 278 1084 243 1031.5 c 128,-1,16
 208 979 208 979 208 865 c 1,17,-1
 108 865 l 1,18,19
 108 870 108 870 107.5 878.5 c 128,-1,20
 107 887 107 887 106.5 895.5 c 128,-1,21
 106 904 106 904 105.5 911.5 c 128,-1,22
 105 919 105 919 105 923 c 0,23,24
 105 986 105 986 125 1032.5 c 128,-1,25
 145 1079 145 1079 180.5 1109.5 c 128,-1,26
 216 1140 216 1140 263.5 1155.5 c 128,-1,27
 311 1171 311 1171 367 1171 c 0,28,29
 446 1171 446 1171 499 1150 c 128,-1,30
 552 1129 552 1129 584 1096.5 c 128,-1,31
 616 1064 616 1064 630 1024 c 128,-1,32
 644 984 644 984 644 946 c 0,33,34
 644 901 644 901 628 863.5 c 128,-1,35
 612 826 612 826 584.5 794 c 128,-1,36
 557 762 557 762 518.5 735.5 c 128,-1,37
 480 709 480 709 435 685 c 0,38,39
 385 659 385 659 349.5 631 c 128,-1,40
 314 603 314 603 283 568 c 0,41,42
 255 537 255 537 231 494 c 128,-1,43
 207 451 207 451 199 412 c 1,44,-1
 373 412 l 1,45,-1
 554 412 l 1,46,-1
 554 591 l 1,47,-1
 640 591 l 1,48,-1
 640 318 l 1,0,-1
EndSplineSet
EndChar

StartChar: threesuperior
Encoding: 179 179 234
Width: 783
Flags: MW
LayerCount: 2
Fore
SplineSet
60 522 m 1,0,-1
 169 525 l 1,1,2
 178 434 178 434 233 384 c 128,-1,3
 288 334 288 334 383 334 c 0,4,5
 431 334 431 334 468 346.5 c 128,-1,6
 505 359 505 359 529.5 381.5 c 128,-1,7
 554 404 554 404 566.5 434.5 c 128,-1,8
 579 465 579 465 579 501 c 0,9,10
 579 542 579 542 562.5 574 c 128,-1,11
 546 606 546 606 516.5 627.5 c 128,-1,12
 487 649 487 649 446.5 660.5 c 128,-1,13
 406 672 406 672 357 673 c 2,14,-1
 290 674 l 1,15,-1
 290 773 l 1,16,-1
 354 773 l 2,17,18
 451 773 451 773 499.5 809 c 128,-1,19
 548 845 548 845 548 921 c 0,20,21
 548 955 548 955 538 983.5 c 128,-1,22
 528 1012 528 1012 507 1033 c 128,-1,23
 486 1054 486 1054 455 1065.5 c 128,-1,24
 424 1077 424 1077 382 1077 c 0,25,26
 301 1077 301 1077 261 1033.5 c 128,-1,27
 221 990 221 990 216 917 c 1,28,-1
 105 937 l 1,29,30
 107 990 107 990 126.5 1033.5 c 128,-1,31
 146 1077 146 1077 180.5 1107.5 c 128,-1,32
 215 1138 215 1138 263 1154.5 c 128,-1,33
 311 1171 311 1171 370 1171 c 0,34,35
 507 1171 507 1171 585 1110 c 128,-1,36
 663 1049 663 1049 663 935 c 0,37,38
 663 866 663 866 627 810.5 c 128,-1,39
 591 755 591 755 527 727 c 1,40,41
 616 698 616 698 658 644.5 c 128,-1,42
 700 591 700 591 700 508 c 0,43,44
 700 448 700 448 678 399 c 128,-1,45
 656 350 656 350 614 314.5 c 128,-1,46
 572 279 572 279 511.5 259.5 c 128,-1,47
 451 240 451 240 374 240 c 0,48,49
 305 240 305 240 247.5 257 c 128,-1,50
 190 274 190 274 148.5 309 c 128,-1,51
 107 344 107 344 83.5 397 c 128,-1,52
 60 450 60 450 60 522 c 1,0,-1
EndSplineSet
EndChar

StartChar: onesuperior
Encoding: 185 185 235
Width: 476
Flags: MW
LayerCount: 2
Fore
SplineSet
77 408 m 1,0,-1
 194 409 l 1,1,-1
 193 739 l 1,2,-1
 194 1065 l 1,3,-1
 70 1060 l 1,4,-1
 70 1149 l 1,5,-1
 195 1158 l 1,6,-1
 302 1158 l 1,7,-1
 301 782 l 1,8,-1
 301 409 l 1,9,-1
 414 408 l 1,10,-1
 414 320 l 1,11,-1
 77 320 l 1,12,-1
 77 408 l 1,0,-1
EndSplineSet
EndChar

StartChar: foursuperior
Encoding: 8308 8308 239
Width: 711
Flags: MW
LayerCount: 2
Fore
SplineSet
262 351 m 1,0,-1
 388 358 l 1,1,-1
 388 517 l 1,2,-1
 68 517 l 1,3,-1
 13 608 l 1,4,-1
 398 1172 l 1,5,-1
 498 1172 l 1,6,-1
 498 608 l 1,7,-1
 649 608 l 1,8,-1
 649 517 l 1,9,-1
 498 517 l 1,10,-1
 498 358 l 1,11,-1
 617 351 l 1,12,-1
 617 258 l 1,13,-1
 262 258 l 1,14,-1
 262 351 l 1,0,-1
388 981 m 1,15,-1
 381 981 l 1,16,-1
 137 608 l 1,17,-1
 388 608 l 1,18,-1
 388 981 l 1,15,-1
EndSplineSet
EndChar

StartChar: multiply
Encoding: 215 215 240
Width: 929
Flags: MW
LayerCount: 2
Fore
SplineSet
753 915 m 1,0,-1
 835 832 l 1,1,-1
 549 546 l 1,2,-1
 826 268 l 1,3,-1
 740 182 l 1,4,-1
 461 458 l 1,5,-1
 176 173 l 1,6,-1
 93 255 l 1,7,-1
 379 541 l 1,8,-1
 103 820 l 1,9,-1
 189 906 l 1,10,-1
 466 629 l 1,11,-1
 753 915 l 1,0,-1
EndSplineSet
EndChar

StartChar: thorn
Encoding: 254 254 245
Width: 1026
Flags: MW
LayerCount: 2
Fore
SplineSet
-22 -102 m 1,0,-1
 128 -101 l 1,1,2
 127 76 127 76 127 219 c 0,3,4
 127 280 127 280 126.5 340 c 128,-1,5
 126 400 126 400 126 450 c 128,-1,6
 126 500 126 500 126 534.5 c 128,-1,7
 126 569 126 569 126 580 c 0,8,9
 126 588 126 588 126 624.5 c 128,-1,10
 126 661 126 661 126 711 c 128,-1,11
 126 761 126 761 126 817.5 c 128,-1,12
 126 874 126 874 126.5 922.5 c 128,-1,13
 127 971 127 971 127 1004.5 c 128,-1,14
 127 1038 127 1038 128 1042 c 1,15,16
 124 1042 124 1042 100.5 1042 c 128,-1,17
 77 1042 77 1042 51 1043 c 0,18,19
 19 1044 19 1044 -19 1045 c 1,20,-1
 -19 1166 l 1,21,-1
 276 1166 l 1,22,23
 275 1047 275 1047 275 949 c 0,24,25
 275 907 275 907 274.5 866.5 c 128,-1,26
 274 826 274 826 274 792.5 c 128,-1,27
 274 759 274 759 274 736 c 128,-1,28
 274 713 274 713 274 707 c 1,29,30
 338 770 338 770 409 798.5 c 128,-1,31
 480 827 480 827 571 827 c 0,32,33
 663 827 663 827 736.5 794.5 c 128,-1,34
 810 762 810 762 861.5 705.5 c 128,-1,35
 913 649 913 649 940.5 573 c 128,-1,36
 968 497 968 497 968 410 c 256,37,38
 968 323 968 323 940.5 245.5 c 128,-1,39
 913 168 913 168 861 110.5 c 128,-1,40
 809 53 809 53 735.5 19.5 c 128,-1,41
 662 -14 662 -14 569 -14 c 0,42,43
 525 -14 525 -14 483 -6 c 128,-1,44
 441 2 441 2 403.5 17 c 128,-1,45
 366 32 366 32 334.5 53.5 c 128,-1,46
 303 75 303 75 280 101 c 1,47,48
 280 101 280 101 279.5 87 c 128,-1,49
 279 73 279 73 279 50 c 128,-1,50
 279 27 279 27 279 -2.5 c 128,-1,51
 279 -32 279 -32 279 -62 c 2,52,-1
 279 -224 l 1,53,-1
 -22 -224 l 1,54,-1
 -22 -102 l 1,0,-1
539 111 m 0,55,56
 602 111 602 111 652.5 134 c 128,-1,57
 703 157 703 157 737.5 197.5 c 128,-1,58
 772 238 772 238 790.5 293 c 128,-1,59
 809 348 809 348 809 413 c 0,60,61
 809 486 809 486 786 540 c 128,-1,62
 763 594 763 594 725.5 629 c 128,-1,63
 688 664 688 664 640.5 681 c 128,-1,64
 593 698 593 698 543 698 c 0,65,66
 488 698 488 698 441.5 681 c 128,-1,67
 395 664 395 664 360.5 633 c 128,-1,68
 326 602 326 602 304.5 559 c 128,-1,69
 283 516 283 516 279 464 c 1,70,-1
 279 343 l 2,71,72
 279 294 279 294 298 251.5 c 128,-1,73
 317 209 317 209 351.5 178 c 128,-1,74
 386 147 386 147 433.5 129 c 128,-1,75
 481 111 481 111 539 111 c 0,55,56
EndSplineSet
EndChar

StartChar: Thorn
Encoding: 222 222 246
Width: 1031
Flags: MW
LayerCount: 2
Fore
SplineSet
62 127 m 1,0,-1
 213 127 l 1,1,-1
 213 482 l 1,2,-1
 213 1028 l 1,3,-1
 62 1028 l 1,4,-1
 62 1155 l 1,5,-1
 373 1155 l 1,6,-1
 373 1012 l 1,7,-1
 595 1012 l 2,8,9
 715 1012 715 1012 791.5 982.5 c 128,-1,10
 868 953 868 953 912.5 907 c 128,-1,11
 957 861 957 861 974 805 c 128,-1,12
 991 749 991 749 991 696 c 0,13,14
 991 615 991 615 957 556.5 c 128,-1,15
 923 498 923 498 863 460 c 128,-1,16
 803 422 803 422 720 404 c 128,-1,17
 637 386 637 386 538 386 c 2,18,-1
 375 386 l 1,19,-1
 375 126 l 1,20,-1
 533 126 l 1,21,-1
 533 0 l 1,22,-1
 62 0 l 1,23,-1
 62 127 l 1,0,-1
373 511 m 1,24,-1
 551 511 l 2,25,26
 632 511 632 511 685.5 525.5 c 128,-1,27
 739 540 739 540 770 565 c 128,-1,28
 801 590 801 590 813.5 624 c 128,-1,29
 826 658 826 658 826 697 c 0,30,31
 826 789 826 789 766.5 836 c 128,-1,32
 707 883 707 883 600 883 c 0,33,34
 593 883 593 883 579.5 883 c 128,-1,35
 566 883 566 883 549 882.5 c 128,-1,36
 532 882 532 882 512 882 c 128,-1,37
 492 882 492 882 473 882 c 2,38,-1
 373 882 l 1,39,-1
 373 511 l 1,24,-1
EndSplineSet
EndChar

StartChar: uni0311
Encoding: 785 785 275
Width: 584
Flags: MW
LayerCount: 2
Fore
SplineSet
34 925 m 1,0,1
 38 977 38 977 59 1020 c 128,-1,2
 80 1063 80 1063 113.5 1094 c 128,-1,3
 147 1125 147 1125 192.5 1141.5 c 128,-1,4
 238 1158 238 1158 292 1158 c 256,5,6
 346 1158 346 1158 391 1141 c 128,-1,7
 436 1124 436 1124 470 1093.5 c 128,-1,8
 504 1063 504 1063 524.5 1020 c 128,-1,9
 545 977 545 977 550 925 c 1,10,-1
 439 925 l 1,11,12
 431 985 431 985 391.5 1019 c 128,-1,13
 352 1053 352 1053 292 1053 c 0,14,15
 229 1053 229 1053 191.5 1019 c 128,-1,16
 154 985 154 985 144 925 c 1,17,-1
 34 925 l 1,0,1
EndSplineSet
EndChar

StartChar: Eth
Encoding: 208 208 276
Width: 1273
Flags: MW
LayerCount: 2
Fore
SplineSet
61 650 m 1,0,-1
 220 650 l 1,1,2
 220 680 220 680 220 719 c 128,-1,3
 220 758 220 758 220 798.5 c 128,-1,4
 220 839 220 839 220.5 878.5 c 128,-1,5
 221 918 221 918 221 950 c 128,-1,6
 221 982 221 982 221.5 1002.5 c 128,-1,7
 222 1023 222 1023 222 1026 c 1,8,9
 220 1026 220 1026 212 1026 c 128,-1,10
 204 1026 204 1026 192 1026.5 c 128,-1,11
 180 1027 180 1027 166 1027.5 c 128,-1,12
 152 1028 152 1028 137 1028 c 0,13,14
 103 1029 103 1029 61 1029 c 1,15,-1
 61 1153 l 1,16,17
 65 1153 65 1153 89.5 1153 c 128,-1,18
 114 1153 114 1153 151.5 1153.5 c 128,-1,19
 189 1154 189 1154 236.5 1154 c 128,-1,20
 284 1154 284 1154 333 1154.5 c 128,-1,21
 382 1155 382 1155 429.5 1155 c 128,-1,22
 477 1155 477 1155 516 1155.5 c 128,-1,23
 555 1156 555 1156 581.5 1156 c 128,-1,24
 608 1156 608 1156 615 1156 c 0,25,26
 729 1156 729 1156 817 1132.5 c 128,-1,27
 905 1109 905 1109 970 1068.5 c 128,-1,28
 1035 1028 1035 1028 1079.5 973 c 128,-1,29
 1124 918 1124 918 1151 854.5 c 128,-1,30
 1178 791 1178 791 1189.5 723 c 128,-1,31
 1201 655 1201 655 1201 587 c 0,32,33
 1201 454 1201 454 1167.5 345.5 c 128,-1,34
 1134 237 1134 237 1062 159.5 c 128,-1,35
 990 82 990 82 876 39.5 c 128,-1,36
 762 -3 762 -3 601 -3 c 0,37,38
 592 -3 592 -3 550.5 -3 c 128,-1,39
 509 -3 509 -3 450.5 -2.5 c 128,-1,40
 392 -2 392 -2 326 -1.5 c 128,-1,41
 260 -1 260 -1 203 -0.5 c 128,-1,42
 146 0 146 0 106 0 c 128,-1,43
 66 0 66 0 61 0 c 1,44,-1
 61 125 l 1,45,46
 103 126 103 126 137 126 c 0,47,48
 166 126 166 126 191.5 126 c 128,-1,49
 217 126 217 126 222 127 c 1,50,51
 222 130 222 130 221.5 150.5 c 128,-1,52
 221 171 221 171 221 203.5 c 128,-1,53
 221 236 221 236 220.5 276 c 128,-1,54
 220 316 220 316 220 357 c 128,-1,55
 220 398 220 398 220 437 c 128,-1,56
 220 476 220 476 220 506 c 1,57,-1
 61 506 l 1,58,-1
 61 650 l 1,0,-1
382 650 m 1,59,-1
 578 650 l 1,60,-1
 578 506 l 1,61,-1
 382 506 l 1,62,63
 382 482 382 482 382 453 c 128,-1,64
 382 424 382 424 382 392.5 c 128,-1,65
 382 361 382 361 382.5 329.5 c 128,-1,66
 383 298 383 298 383 268 c 0,67,68
 383 198 383 198 384 127 c 1,69,70
 437 126 437 126 483 126 c 2,71,-1
 607 126 l 2,72,73
 733 126 733 126 816 162.5 c 128,-1,74
 899 199 899 199 947.5 261 c 128,-1,75
 996 323 996 323 1016 405.5 c 128,-1,76
 1036 488 1036 488 1036 581 c 0,77,78
 1036 676 1036 676 1013.5 757.5 c 128,-1,79
 991 839 991 839 940.5 899 c 128,-1,80
 890 959 890 959 809 993 c 128,-1,81
 728 1027 728 1027 611 1027 c 0,82,83
 605 1027 605 1027 592 1027 c 128,-1,84
 579 1027 579 1027 561.5 1026.5 c 128,-1,85
 544 1026 544 1026 524 1026 c 128,-1,86
 504 1026 504 1026 484 1026 c 2,87,-1
 382 1026 l 1,88,-1
 382 650 l 1,59,-1
EndSplineSet
EndChar

StartChar: eth
Encoding: 240 240 277
Width: 932
Flags: MW
LayerCount: 2
Fore
SplineSet
440 905 m 1,0,-1
 630 943 l 1,1,2
 562 1051 562 1051 441 1051 c 0,3,4
 398 1051 398 1051 360 1037 c 128,-1,5
 322 1023 322 1023 292 997 c 128,-1,6
 262 971 262 971 241.5 934 c 128,-1,7
 221 897 221 897 215 852 c 1,8,-1
 85 855 l 1,9,10
 87 925 87 925 112 983 c 128,-1,11
 137 1041 137 1041 181 1083 c 128,-1,12
 225 1125 225 1125 286.5 1148 c 128,-1,13
 348 1171 348 1171 424 1171 c 0,14,15
 544 1171 544 1171 627.5 1118.5 c 128,-1,16
 711 1066 711 1066 763 969 c 1,17,-1
 946 1006 l 1,18,-1
 967 905 l 1,19,-1
 804 872 l 1,20,21
 846 743 846 743 846 568 c 0,22,23
 846 427 846 427 819.5 318 c 128,-1,24
 793 209 793 209 741.5 134 c 128,-1,25
 690 59 690 59 612.5 20 c 128,-1,26
 535 -19 535 -19 433 -19 c 0,27,28
 346 -19 346 -19 277.5 11 c 128,-1,29
 209 41 209 41 161.5 93 c 128,-1,30
 114 145 114 145 89 215.5 c 128,-1,31
 64 286 64 286 64 367 c 0,32,33
 64 442 64 442 88.5 506.5 c 128,-1,34
 113 571 113 571 158 618 c 128,-1,35
 203 665 203 665 266 691.5 c 128,-1,36
 329 718 329 718 407 718 c 0,37,38
 450 718 450 718 492.5 710.5 c 128,-1,39
 535 703 535 703 573.5 689 c 128,-1,40
 612 675 612 675 645 654.5 c 128,-1,41
 678 634 678 634 702 607 c 1,42,43
 702 679 702 679 694.5 738.5 c 128,-1,44
 687 798 687 798 673 846 c 1,45,-1
 460 804 l 1,46,-1
 440 905 l 1,0,-1
696 457 m 1,47,48
 667 490 667 490 631.5 513.5 c 128,-1,49
 596 537 596 537 559 552.5 c 128,-1,50
 522 568 522 568 487 575.5 c 128,-1,51
 452 583 452 583 424 583 c 0,52,53
 371 583 371 583 330 566 c 128,-1,54
 289 549 289 549 260.5 519 c 128,-1,55
 232 489 232 489 217.5 448 c 128,-1,56
 203 407 203 407 203 358 c 0,57,58
 203 305 203 305 218 259 c 128,-1,59
 233 213 233 213 263 179 c 128,-1,60
 293 145 293 145 337 125.5 c 128,-1,61
 381 106 381 106 439 106 c 0,62,63
 502 106 502 106 547 128.5 c 128,-1,64
 592 151 592 151 622.5 195 c 128,-1,65
 653 239 653 239 670.5 304.5 c 128,-1,66
 688 370 688 370 696 457 c 1,47,48
EndSplineSet
EndChar

StartChar: uni030F
Encoding: 783 783 280
Width: 587
Flags: MW
LayerCount: 2
Fore
SplineSet
181 942 m 1,0,-1
 -53 1214 l 1,1,-1
 137 1214 l 1,2,-1
 277 942 l 1,3,-1
 181 942 l 1,0,-1
443 942 m 1,4,-1
 208 1214 l 1,5,-1
 398 1214 l 1,6,-1
 538 942 l 1,7,-1
 443 942 l 1,4,-1
EndSplineSet
EndChar

StartChar: uni0326
Encoding: 806 806 281
Width: 554
Flags: MW
LayerCount: 2
Fore
SplineSet
151 -66 m 1,0,-1
 363 -66 l 1,1,-1
 363 -278 l 2,2,3
 363 -335 363 -335 352 -379 c 128,-1,4
 341 -423 341 -423 316 -453 c 128,-1,5
 291 -483 291 -483 250.5 -498.5 c 128,-1,6
 210 -514 210 -514 151 -515 c 1,7,-1
 151 -427 l 1,8,9
 179 -421 179 -421 199.5 -410.5 c 128,-1,10
 220 -400 220 -400 232.5 -382.5 c 128,-1,11
 245 -365 245 -365 251 -339.5 c 128,-1,12
 257 -314 257 -314 257 -278 c 1,13,-1
 151 -278 l 1,14,-1
 151 -66 l 1,0,-1
EndSplineSet
EndChar
